G75*
G70*
%OFA0B0*%
%FSLAX24Y24*%
%IPPOS*%
%LPD*%
%AMOC8*
5,1,8,0,0,1.08239X$1,22.5*
%
%ADD10C,0.0069*%
%ADD11R,0.1024X0.1024*%
%ADD12R,0.0260X0.0800*%
%ADD13R,0.0394X0.0433*%
%ADD14R,0.0433X0.0394*%
%ADD15R,0.0276X0.0787*%
D10*
X006707Y001678D02*
X006707Y001748D01*
X006707Y001678D02*
X006421Y001678D01*
X006421Y001748D01*
X006707Y001748D01*
X006707Y001746D02*
X006421Y001746D01*
X006707Y001934D02*
X006707Y002004D01*
X006707Y001934D02*
X006421Y001934D01*
X006421Y002004D01*
X006707Y002004D01*
X006707Y002002D02*
X006421Y002002D01*
X006707Y002190D02*
X006707Y002260D01*
X006707Y002190D02*
X006421Y002190D01*
X006421Y002260D01*
X006707Y002260D01*
X006707Y002258D02*
X006421Y002258D01*
X006707Y002446D02*
X006707Y002516D01*
X006707Y002446D02*
X006421Y002446D01*
X006421Y002516D01*
X006707Y002516D01*
X006707Y002514D02*
X006421Y002514D01*
X006707Y002702D02*
X006707Y002772D01*
X006707Y002702D02*
X006421Y002702D01*
X006421Y002772D01*
X006707Y002772D01*
X006707Y002770D02*
X006421Y002770D01*
X006973Y002968D02*
X006973Y003254D01*
X006973Y002968D02*
X006903Y002968D01*
X006903Y003254D01*
X006973Y003254D01*
X006973Y003036D02*
X006903Y003036D01*
X006903Y003104D02*
X006973Y003104D01*
X006973Y003172D02*
X006903Y003172D01*
X006903Y003240D02*
X006973Y003240D01*
X007229Y003254D02*
X007229Y002968D01*
X007159Y002968D01*
X007159Y003254D01*
X007229Y003254D01*
X007229Y003036D02*
X007159Y003036D01*
X007159Y003104D02*
X007229Y003104D01*
X007229Y003172D02*
X007159Y003172D01*
X007159Y003240D02*
X007229Y003240D01*
X007485Y003254D02*
X007485Y002968D01*
X007415Y002968D01*
X007415Y003254D01*
X007485Y003254D01*
X007485Y003036D02*
X007415Y003036D01*
X007415Y003104D02*
X007485Y003104D01*
X007485Y003172D02*
X007415Y003172D01*
X007415Y003240D02*
X007485Y003240D01*
X007741Y003254D02*
X007741Y002968D01*
X007671Y002968D01*
X007671Y003254D01*
X007741Y003254D01*
X007741Y003036D02*
X007671Y003036D01*
X007671Y003104D02*
X007741Y003104D01*
X007741Y003172D02*
X007671Y003172D01*
X007671Y003240D02*
X007741Y003240D01*
X007997Y003254D02*
X007997Y002968D01*
X007927Y002968D01*
X007927Y003254D01*
X007997Y003254D01*
X007997Y003036D02*
X007927Y003036D01*
X007927Y003104D02*
X007997Y003104D01*
X007997Y003172D02*
X007927Y003172D01*
X007927Y003240D02*
X007997Y003240D01*
X008479Y002772D02*
X008479Y002702D01*
X008193Y002702D01*
X008193Y002772D01*
X008479Y002772D01*
X008479Y002770D02*
X008193Y002770D01*
X008479Y002516D02*
X008479Y002446D01*
X008193Y002446D01*
X008193Y002516D01*
X008479Y002516D01*
X008479Y002514D02*
X008193Y002514D01*
X008479Y002260D02*
X008479Y002190D01*
X008193Y002190D01*
X008193Y002260D01*
X008479Y002260D01*
X008479Y002258D02*
X008193Y002258D01*
X008479Y002004D02*
X008479Y001934D01*
X008193Y001934D01*
X008193Y002004D01*
X008479Y002004D01*
X008479Y002002D02*
X008193Y002002D01*
X008479Y001748D02*
X008479Y001678D01*
X008193Y001678D01*
X008193Y001748D01*
X008479Y001748D01*
X008479Y001746D02*
X008193Y001746D01*
X007997Y001482D02*
X007997Y001196D01*
X007927Y001196D01*
X007927Y001482D01*
X007997Y001482D01*
X007997Y001264D02*
X007927Y001264D01*
X007927Y001332D02*
X007997Y001332D01*
X007997Y001400D02*
X007927Y001400D01*
X007927Y001468D02*
X007997Y001468D01*
X007741Y001482D02*
X007741Y001196D01*
X007671Y001196D01*
X007671Y001482D01*
X007741Y001482D01*
X007741Y001264D02*
X007671Y001264D01*
X007671Y001332D02*
X007741Y001332D01*
X007741Y001400D02*
X007671Y001400D01*
X007671Y001468D02*
X007741Y001468D01*
X007485Y001482D02*
X007485Y001196D01*
X007415Y001196D01*
X007415Y001482D01*
X007485Y001482D01*
X007485Y001264D02*
X007415Y001264D01*
X007415Y001332D02*
X007485Y001332D01*
X007485Y001400D02*
X007415Y001400D01*
X007415Y001468D02*
X007485Y001468D01*
X007229Y001482D02*
X007229Y001196D01*
X007159Y001196D01*
X007159Y001482D01*
X007229Y001482D01*
X007229Y001264D02*
X007159Y001264D01*
X007159Y001332D02*
X007229Y001332D01*
X007229Y001400D02*
X007159Y001400D01*
X007159Y001468D02*
X007229Y001468D01*
X006973Y001482D02*
X006973Y001196D01*
X006903Y001196D01*
X006903Y001482D01*
X006973Y001482D01*
X006973Y001264D02*
X006903Y001264D01*
X006903Y001332D02*
X006973Y001332D01*
X006973Y001400D02*
X006903Y001400D01*
X006903Y001468D02*
X006973Y001468D01*
D11*
X007450Y002213D03*
D12*
X010600Y002940D03*
X011100Y002940D03*
X011600Y002940D03*
X012100Y002940D03*
X012100Y005360D03*
X011600Y005360D03*
X011100Y005360D03*
X010600Y005360D03*
D13*
X010050Y005385D03*
X009450Y005385D03*
X009450Y004715D03*
X010050Y004715D03*
X010815Y002125D03*
X011485Y002125D03*
X002735Y007250D03*
X002065Y007250D03*
D14*
X008965Y002550D03*
X009635Y002550D03*
X013200Y006315D03*
X013200Y006985D03*
D15*
X007894Y004300D03*
X007500Y004300D03*
X007106Y004300D03*
M02*
