G75*
G70*
%OFA0B0*%
%FSLAX24Y24*%
%IPPOS*%
%LPD*%
%AMOC8*
5,1,8,0,0,1.08239X$1,22.5*
%
%ADD10C,0.0099*%
%ADD11R,0.1084X0.1084*%
%ADD12R,0.0320X0.0860*%
%ADD13OC8,0.0660*%
%ADD14R,0.0454X0.0493*%
%ADD15R,0.0493X0.0454*%
%ADD16R,0.0336X0.0847*%
%ADD17C,0.0532*%
%ADD18C,0.0350*%
D10*
X006722Y001663D02*
X006722Y001763D01*
X006722Y001663D02*
X006406Y001663D01*
X006406Y001763D01*
X006722Y001763D01*
X006722Y001761D02*
X006406Y001761D01*
X006722Y001919D02*
X006722Y002019D01*
X006722Y001919D02*
X006406Y001919D01*
X006406Y002019D01*
X006722Y002019D01*
X006722Y002017D02*
X006406Y002017D01*
X006722Y002175D02*
X006722Y002275D01*
X006722Y002175D02*
X006406Y002175D01*
X006406Y002275D01*
X006722Y002275D01*
X006722Y002273D02*
X006406Y002273D01*
X006722Y002431D02*
X006722Y002531D01*
X006722Y002431D02*
X006406Y002431D01*
X006406Y002531D01*
X006722Y002531D01*
X006722Y002529D02*
X006406Y002529D01*
X006722Y002687D02*
X006722Y002787D01*
X006722Y002687D02*
X006406Y002687D01*
X006406Y002787D01*
X006722Y002787D01*
X006722Y002785D02*
X006406Y002785D01*
X006988Y002953D02*
X006988Y003269D01*
X006988Y002953D02*
X006888Y002953D01*
X006888Y003269D01*
X006988Y003269D01*
X006988Y003051D02*
X006888Y003051D01*
X006888Y003149D02*
X006988Y003149D01*
X006988Y003247D02*
X006888Y003247D01*
X007244Y003269D02*
X007244Y002953D01*
X007144Y002953D01*
X007144Y003269D01*
X007244Y003269D01*
X007244Y003051D02*
X007144Y003051D01*
X007144Y003149D02*
X007244Y003149D01*
X007244Y003247D02*
X007144Y003247D01*
X007500Y003269D02*
X007500Y002953D01*
X007400Y002953D01*
X007400Y003269D01*
X007500Y003269D01*
X007500Y003051D02*
X007400Y003051D01*
X007400Y003149D02*
X007500Y003149D01*
X007500Y003247D02*
X007400Y003247D01*
X007756Y003269D02*
X007756Y002953D01*
X007656Y002953D01*
X007656Y003269D01*
X007756Y003269D01*
X007756Y003051D02*
X007656Y003051D01*
X007656Y003149D02*
X007756Y003149D01*
X007756Y003247D02*
X007656Y003247D01*
X008012Y003269D02*
X008012Y002953D01*
X007912Y002953D01*
X007912Y003269D01*
X008012Y003269D01*
X008012Y003051D02*
X007912Y003051D01*
X007912Y003149D02*
X008012Y003149D01*
X008012Y003247D02*
X007912Y003247D01*
X008494Y002787D02*
X008494Y002687D01*
X008178Y002687D01*
X008178Y002787D01*
X008494Y002787D01*
X008494Y002785D02*
X008178Y002785D01*
X008494Y002531D02*
X008494Y002431D01*
X008178Y002431D01*
X008178Y002531D01*
X008494Y002531D01*
X008494Y002529D02*
X008178Y002529D01*
X008494Y002275D02*
X008494Y002175D01*
X008178Y002175D01*
X008178Y002275D01*
X008494Y002275D01*
X008494Y002273D02*
X008178Y002273D01*
X008494Y002019D02*
X008494Y001919D01*
X008178Y001919D01*
X008178Y002019D01*
X008494Y002019D01*
X008494Y002017D02*
X008178Y002017D01*
X008494Y001763D02*
X008494Y001663D01*
X008178Y001663D01*
X008178Y001763D01*
X008494Y001763D01*
X008494Y001761D02*
X008178Y001761D01*
X008012Y001497D02*
X008012Y001181D01*
X007912Y001181D01*
X007912Y001497D01*
X008012Y001497D01*
X008012Y001279D02*
X007912Y001279D01*
X007912Y001377D02*
X008012Y001377D01*
X008012Y001475D02*
X007912Y001475D01*
X007756Y001497D02*
X007756Y001181D01*
X007656Y001181D01*
X007656Y001497D01*
X007756Y001497D01*
X007756Y001279D02*
X007656Y001279D01*
X007656Y001377D02*
X007756Y001377D01*
X007756Y001475D02*
X007656Y001475D01*
X007500Y001497D02*
X007500Y001181D01*
X007400Y001181D01*
X007400Y001497D01*
X007500Y001497D01*
X007500Y001279D02*
X007400Y001279D01*
X007400Y001377D02*
X007500Y001377D01*
X007500Y001475D02*
X007400Y001475D01*
X007244Y001497D02*
X007244Y001181D01*
X007144Y001181D01*
X007144Y001497D01*
X007244Y001497D01*
X007244Y001279D02*
X007144Y001279D01*
X007144Y001377D02*
X007244Y001377D01*
X007244Y001475D02*
X007144Y001475D01*
X006988Y001497D02*
X006988Y001181D01*
X006888Y001181D01*
X006888Y001497D01*
X006988Y001497D01*
X006988Y001279D02*
X006888Y001279D01*
X006888Y001377D02*
X006988Y001377D01*
X006988Y001475D02*
X006888Y001475D01*
D11*
X007450Y002213D03*
D12*
X010600Y002940D03*
X011100Y002940D03*
X011600Y002940D03*
X012100Y002940D03*
X012100Y005360D03*
X011600Y005360D03*
X011100Y005360D03*
X010600Y005360D03*
D13*
X014150Y006150D03*
X014150Y007250D03*
X013750Y010350D03*
X010500Y010150D03*
X006950Y014500D03*
X004750Y010150D03*
X002950Y006350D03*
X002950Y005350D03*
X002950Y004350D03*
X001950Y004350D03*
X001950Y005350D03*
X001950Y006350D03*
D14*
X002065Y007250D03*
X002735Y007250D03*
X009450Y005385D03*
X010050Y005385D03*
X010050Y004715D03*
X009450Y004715D03*
X010815Y002125D03*
X011485Y002125D03*
D15*
X009635Y002550D03*
X008965Y002550D03*
X013200Y006315D03*
X013200Y006985D03*
D16*
X007894Y004300D03*
X007500Y004300D03*
X007106Y004300D03*
D17*
X011952Y012944D03*
X008248Y014456D03*
D18*
X003400Y003250D03*
X003425Y003750D03*
X005150Y001900D03*
X004400Y001650D03*
X006150Y002025D03*
X006550Y003075D03*
X008675Y003225D03*
X009250Y003225D03*
X008850Y001950D03*
X009600Y001500D03*
X010450Y001500D03*
X011050Y001500D03*
X013650Y004400D03*
X013150Y008050D03*
X013750Y009550D03*
X012900Y010350D03*
X013750Y011150D03*
X009950Y008950D03*
X008325Y007250D03*
X007550Y007650D03*
X007150Y007250D03*
X006150Y007250D03*
X005750Y007250D03*
X005350Y006550D03*
X005150Y008150D03*
X003650Y007650D03*
X001650Y009850D03*
X001650Y010350D03*
X001650Y010850D03*
X002150Y010350D03*
X001150Y007650D03*
X003650Y013200D03*
X007450Y008850D03*
X009450Y006700D03*
X009800Y006950D03*
X010150Y006450D03*
X010150Y006000D03*
X008900Y005650D03*
X008900Y005150D03*
M02*
