%
M48
M72
T01C0.0150
T02C0.0315
T03C0.0400
%
T01
X3400Y3250
X3425Y3750
X5150Y1900
X4400Y1650
X6150Y2025
X6550Y3075
X8675Y3225
X9250Y3225
X8850Y1950
X9600Y1500
X10450Y1500
X11050Y1500
X13650Y4400
X13150Y8050
X13750Y9550
X12900Y10350
X13750Y11150
X9950Y8950
X8325Y7250
X7550Y7650
X7150Y7250
X6150Y7250
X5750Y7250
X5350Y6550
X5150Y8150
X3650Y7650
X1650Y9850
X1650Y10350
X1650Y10850
X2150Y10350
X1150Y7650
X3650Y13200
X7450Y8850
X9450Y6700
X9800Y6950
X10150Y6450
X10150Y6000
X8900Y5650
X8900Y5150
T02
X11952Y12944
X8248Y14456
T03
X6950Y14500
X4750Y10150
X2950Y6350
X2950Y5350
X2950Y4350
X1950Y4350
X1950Y5350
X1950Y6350
X10500Y10150
X13750Y10350
X14150Y7250
X14150Y6150
M30
