G75*
G70*
%OFA0B0*%
%FSLAX24Y24*%
%IPPOS*%
%LPD*%
%AMOC8*
5,1,8,0,0,1.08239X$1,22.5*
%
%ADD10R,0.0180X0.0450*%
%ADD11R,0.2029X0.0847*%
%ADD12R,0.0552X0.0414*%
%ADD13R,0.0316X0.0316*%
%ADD14R,0.0355X0.0355*%
%ADD15OC8,0.0660*%
%ADD16R,0.0493X0.0454*%
%ADD17R,0.0454X0.0493*%
%ADD18R,0.0847X0.0847*%
%ADD19R,0.0997X0.0710*%
%ADD20C,0.0040*%
%ADD21R,0.0493X0.1399*%
%ADD22C,0.0532*%
%ADD23R,0.0611X0.0454*%
%ADD24R,0.0651X0.0572*%
%ADD25C,0.0350*%
D10*
X005787Y004501D03*
X006043Y004501D03*
X006298Y004501D03*
X006554Y004501D03*
X006810Y004501D03*
X007066Y004501D03*
X007322Y004501D03*
X007578Y004501D03*
X007834Y004501D03*
X008090Y004501D03*
X008346Y004501D03*
X008602Y004501D03*
X008857Y004501D03*
X009113Y004501D03*
X009113Y006799D03*
X008857Y006799D03*
X008602Y006799D03*
X008346Y006799D03*
X008090Y006799D03*
X007834Y006799D03*
X007578Y006799D03*
X007322Y006799D03*
X007066Y006799D03*
X006810Y006799D03*
X006554Y006799D03*
X006298Y006799D03*
X006043Y006799D03*
X005787Y006799D03*
D11*
X007450Y005650D03*
D12*
X006775Y009085D03*
X006125Y009085D03*
X006125Y011015D03*
X006775Y011015D03*
X008525Y011015D03*
X009175Y011015D03*
X009175Y009085D03*
X008525Y009085D03*
X011825Y009086D03*
X012475Y009086D03*
X012475Y011015D03*
X011825Y011015D03*
X003475Y011015D03*
X002825Y011015D03*
X002825Y009085D03*
X003475Y009085D03*
D13*
X003150Y009774D03*
X006450Y009774D03*
X008850Y009774D03*
X012150Y009775D03*
D14*
X012337Y010306D03*
X011963Y010306D03*
X009037Y010306D03*
X008663Y010306D03*
X006637Y010306D03*
X006263Y010306D03*
X003337Y010306D03*
X002963Y010306D03*
D15*
X004750Y010150D03*
X002950Y006350D03*
X002950Y005350D03*
X002950Y004350D03*
X001950Y004350D03*
X001950Y005350D03*
X001950Y006350D03*
X006950Y014500D03*
X010500Y010150D03*
X013750Y010350D03*
X014150Y007250D03*
X014150Y006150D03*
D16*
X013485Y005250D03*
X012815Y005250D03*
X010850Y005715D03*
X010850Y006385D03*
X010850Y006915D03*
X010850Y007585D03*
X009685Y007400D03*
X009685Y007950D03*
X009015Y007950D03*
X009015Y007400D03*
X007985Y008100D03*
X007315Y008100D03*
X006685Y008100D03*
X006015Y008100D03*
X005200Y005185D03*
X004600Y005185D03*
X004000Y005185D03*
X004000Y004515D03*
X004600Y004515D03*
X005200Y004515D03*
X005250Y003110D03*
X005250Y002440D03*
X005950Y002440D03*
X005950Y003110D03*
X007025Y003085D03*
X007025Y002415D03*
X008250Y003065D03*
X008250Y003735D03*
X009240Y002325D03*
X009910Y002325D03*
X012050Y007415D03*
X012650Y007415D03*
X012650Y008085D03*
X012050Y008085D03*
D17*
X011450Y008085D03*
X011450Y007415D03*
X012750Y006785D03*
X012750Y006115D03*
X011650Y002910D03*
X011650Y002240D03*
X007650Y002415D03*
X007650Y003085D03*
X004535Y003100D03*
X004535Y002450D03*
X003865Y002450D03*
X003865Y003100D03*
X003865Y003750D03*
X004535Y003750D03*
X004850Y006615D03*
X004850Y007285D03*
D18*
X004850Y011963D03*
X004850Y013537D03*
X006550Y013537D03*
X006550Y011963D03*
X008750Y011963D03*
X008750Y013537D03*
X010450Y013537D03*
X010450Y011963D03*
D19*
X011850Y005950D03*
D20*
X011909Y005321D02*
X011791Y005321D01*
X011791Y005517D01*
X011909Y005517D01*
X011909Y005321D01*
X011909Y005360D02*
X011791Y005360D01*
X011791Y005399D02*
X011909Y005399D01*
X011909Y005438D02*
X011791Y005438D01*
X011791Y005477D02*
X011909Y005477D01*
X011909Y005516D02*
X011791Y005516D01*
X011712Y005321D02*
X011594Y005321D01*
X011594Y005517D01*
X011712Y005517D01*
X011712Y005321D01*
X011712Y005360D02*
X011594Y005360D01*
X011594Y005399D02*
X011712Y005399D01*
X011712Y005438D02*
X011594Y005438D01*
X011594Y005477D02*
X011712Y005477D01*
X011712Y005516D02*
X011594Y005516D01*
X011515Y005321D02*
X011397Y005321D01*
X011397Y005517D01*
X011515Y005517D01*
X011515Y005321D01*
X011515Y005360D02*
X011397Y005360D01*
X011397Y005399D02*
X011515Y005399D01*
X011515Y005438D02*
X011397Y005438D01*
X011397Y005477D02*
X011515Y005477D01*
X011515Y005516D02*
X011397Y005516D01*
X011988Y005321D02*
X012106Y005321D01*
X011988Y005321D02*
X011988Y005517D01*
X012106Y005517D01*
X012106Y005321D01*
X012106Y005360D02*
X011988Y005360D01*
X011988Y005399D02*
X012106Y005399D01*
X012106Y005438D02*
X011988Y005438D01*
X011988Y005477D02*
X012106Y005477D01*
X012106Y005516D02*
X011988Y005516D01*
X012185Y005321D02*
X012303Y005321D01*
X012185Y005321D02*
X012185Y005517D01*
X012303Y005517D01*
X012303Y005321D01*
X012303Y005360D02*
X012185Y005360D01*
X012185Y005399D02*
X012303Y005399D01*
X012303Y005438D02*
X012185Y005438D01*
X012185Y005477D02*
X012303Y005477D01*
X012303Y005516D02*
X012185Y005516D01*
X012185Y006383D02*
X012303Y006383D01*
X012185Y006383D02*
X012185Y006579D01*
X012303Y006579D01*
X012303Y006383D01*
X012303Y006422D02*
X012185Y006422D01*
X012185Y006461D02*
X012303Y006461D01*
X012303Y006500D02*
X012185Y006500D01*
X012185Y006539D02*
X012303Y006539D01*
X012303Y006578D02*
X012185Y006578D01*
X012106Y006383D02*
X011988Y006383D01*
X011988Y006579D01*
X012106Y006579D01*
X012106Y006383D01*
X012106Y006422D02*
X011988Y006422D01*
X011988Y006461D02*
X012106Y006461D01*
X012106Y006500D02*
X011988Y006500D01*
X011988Y006539D02*
X012106Y006539D01*
X012106Y006578D02*
X011988Y006578D01*
X011909Y006383D02*
X011791Y006383D01*
X011791Y006579D01*
X011909Y006579D01*
X011909Y006383D01*
X011909Y006422D02*
X011791Y006422D01*
X011791Y006461D02*
X011909Y006461D01*
X011909Y006500D02*
X011791Y006500D01*
X011791Y006539D02*
X011909Y006539D01*
X011909Y006578D02*
X011791Y006578D01*
X011712Y006383D02*
X011594Y006383D01*
X011594Y006579D01*
X011712Y006579D01*
X011712Y006383D01*
X011712Y006422D02*
X011594Y006422D01*
X011594Y006461D02*
X011712Y006461D01*
X011712Y006500D02*
X011594Y006500D01*
X011594Y006539D02*
X011712Y006539D01*
X011712Y006578D02*
X011594Y006578D01*
X011515Y006383D02*
X011397Y006383D01*
X011397Y006579D01*
X011515Y006579D01*
X011515Y006383D01*
X011515Y006422D02*
X011397Y006422D01*
X011397Y006461D02*
X011515Y006461D01*
X011515Y006500D02*
X011397Y006500D01*
X011397Y006539D02*
X011515Y006539D01*
X011515Y006578D02*
X011397Y006578D01*
D21*
X011659Y004150D03*
X012841Y004150D03*
D22*
X011952Y012944D03*
X008248Y014456D03*
D23*
X010833Y004524D03*
X010833Y003776D03*
X009967Y004150D03*
D24*
X010850Y002924D03*
X010850Y002176D03*
D25*
X003400Y003250D03*
X003425Y003750D03*
X005150Y001900D03*
X004400Y001650D03*
X006150Y002025D03*
X006550Y003075D03*
X008675Y003225D03*
X009250Y003225D03*
X008850Y001950D03*
X009600Y001500D03*
X010450Y001500D03*
X011050Y001500D03*
X013650Y004400D03*
X013150Y008050D03*
X013750Y009550D03*
X012900Y010350D03*
X013750Y011150D03*
X009950Y008950D03*
X008325Y007250D03*
X007550Y007650D03*
X007150Y007250D03*
X006150Y007250D03*
X005750Y007250D03*
X005350Y006550D03*
X005150Y008150D03*
X003650Y007650D03*
X001650Y009850D03*
X001650Y010350D03*
X001650Y010850D03*
X002150Y010350D03*
X001150Y007650D03*
X003650Y013200D03*
X007450Y008850D03*
X009450Y006700D03*
X009800Y006950D03*
X010150Y006450D03*
X010150Y006000D03*
X008900Y005650D03*
X008900Y005150D03*
M02*
