G75*
G70*
%OFA0B0*%
%FSLAX24Y24*%
%IPPOS*%
%LPD*%
%AMOC8*
5,1,8,0,0,1.08239X$1,22.5*
%
%ADD10C,0.0069*%
%ADD11R,0.1024X0.1024*%
%ADD12R,0.0260X0.0800*%
%ADD13OC8,0.0600*%
%ADD14R,0.0394X0.0433*%
%ADD15R,0.0433X0.0394*%
%ADD16R,0.0276X0.0787*%
%ADD17C,0.0472*%
%ADD18C,0.0290*%
%ADD19C,0.0100*%
%ADD20C,0.0120*%
%ADD21C,0.0160*%
D10*
X006707Y001678D02*
X006707Y001748D01*
X006707Y001678D02*
X006421Y001678D01*
X006421Y001748D01*
X006707Y001748D01*
X006707Y001746D02*
X006421Y001746D01*
X006707Y001934D02*
X006707Y002004D01*
X006707Y001934D02*
X006421Y001934D01*
X006421Y002004D01*
X006707Y002004D01*
X006707Y002002D02*
X006421Y002002D01*
X006707Y002190D02*
X006707Y002260D01*
X006707Y002190D02*
X006421Y002190D01*
X006421Y002260D01*
X006707Y002260D01*
X006707Y002258D02*
X006421Y002258D01*
X006707Y002446D02*
X006707Y002516D01*
X006707Y002446D02*
X006421Y002446D01*
X006421Y002516D01*
X006707Y002516D01*
X006707Y002514D02*
X006421Y002514D01*
X006707Y002702D02*
X006707Y002772D01*
X006707Y002702D02*
X006421Y002702D01*
X006421Y002772D01*
X006707Y002772D01*
X006707Y002770D02*
X006421Y002770D01*
X006973Y002968D02*
X006973Y003254D01*
X006973Y002968D02*
X006903Y002968D01*
X006903Y003254D01*
X006973Y003254D01*
X006973Y003036D02*
X006903Y003036D01*
X006903Y003104D02*
X006973Y003104D01*
X006973Y003172D02*
X006903Y003172D01*
X006903Y003240D02*
X006973Y003240D01*
X007229Y003254D02*
X007229Y002968D01*
X007159Y002968D01*
X007159Y003254D01*
X007229Y003254D01*
X007229Y003036D02*
X007159Y003036D01*
X007159Y003104D02*
X007229Y003104D01*
X007229Y003172D02*
X007159Y003172D01*
X007159Y003240D02*
X007229Y003240D01*
X007485Y003254D02*
X007485Y002968D01*
X007415Y002968D01*
X007415Y003254D01*
X007485Y003254D01*
X007485Y003036D02*
X007415Y003036D01*
X007415Y003104D02*
X007485Y003104D01*
X007485Y003172D02*
X007415Y003172D01*
X007415Y003240D02*
X007485Y003240D01*
X007741Y003254D02*
X007741Y002968D01*
X007671Y002968D01*
X007671Y003254D01*
X007741Y003254D01*
X007741Y003036D02*
X007671Y003036D01*
X007671Y003104D02*
X007741Y003104D01*
X007741Y003172D02*
X007671Y003172D01*
X007671Y003240D02*
X007741Y003240D01*
X007997Y003254D02*
X007997Y002968D01*
X007927Y002968D01*
X007927Y003254D01*
X007997Y003254D01*
X007997Y003036D02*
X007927Y003036D01*
X007927Y003104D02*
X007997Y003104D01*
X007997Y003172D02*
X007927Y003172D01*
X007927Y003240D02*
X007997Y003240D01*
X008479Y002772D02*
X008479Y002702D01*
X008193Y002702D01*
X008193Y002772D01*
X008479Y002772D01*
X008479Y002770D02*
X008193Y002770D01*
X008479Y002516D02*
X008479Y002446D01*
X008193Y002446D01*
X008193Y002516D01*
X008479Y002516D01*
X008479Y002514D02*
X008193Y002514D01*
X008479Y002260D02*
X008479Y002190D01*
X008193Y002190D01*
X008193Y002260D01*
X008479Y002260D01*
X008479Y002258D02*
X008193Y002258D01*
X008479Y002004D02*
X008479Y001934D01*
X008193Y001934D01*
X008193Y002004D01*
X008479Y002004D01*
X008479Y002002D02*
X008193Y002002D01*
X008479Y001748D02*
X008479Y001678D01*
X008193Y001678D01*
X008193Y001748D01*
X008479Y001748D01*
X008479Y001746D02*
X008193Y001746D01*
X007997Y001482D02*
X007997Y001196D01*
X007927Y001196D01*
X007927Y001482D01*
X007997Y001482D01*
X007997Y001264D02*
X007927Y001264D01*
X007927Y001332D02*
X007997Y001332D01*
X007997Y001400D02*
X007927Y001400D01*
X007927Y001468D02*
X007997Y001468D01*
X007741Y001482D02*
X007741Y001196D01*
X007671Y001196D01*
X007671Y001482D01*
X007741Y001482D01*
X007741Y001264D02*
X007671Y001264D01*
X007671Y001332D02*
X007741Y001332D01*
X007741Y001400D02*
X007671Y001400D01*
X007671Y001468D02*
X007741Y001468D01*
X007485Y001482D02*
X007485Y001196D01*
X007415Y001196D01*
X007415Y001482D01*
X007485Y001482D01*
X007485Y001264D02*
X007415Y001264D01*
X007415Y001332D02*
X007485Y001332D01*
X007485Y001400D02*
X007415Y001400D01*
X007415Y001468D02*
X007485Y001468D01*
X007229Y001482D02*
X007229Y001196D01*
X007159Y001196D01*
X007159Y001482D01*
X007229Y001482D01*
X007229Y001264D02*
X007159Y001264D01*
X007159Y001332D02*
X007229Y001332D01*
X007229Y001400D02*
X007159Y001400D01*
X007159Y001468D02*
X007229Y001468D01*
X006973Y001482D02*
X006973Y001196D01*
X006903Y001196D01*
X006903Y001482D01*
X006973Y001482D01*
X006973Y001264D02*
X006903Y001264D01*
X006903Y001332D02*
X006973Y001332D01*
X006973Y001400D02*
X006903Y001400D01*
X006903Y001468D02*
X006973Y001468D01*
D11*
X007450Y002213D03*
D12*
X010600Y002940D03*
X011100Y002940D03*
X011600Y002940D03*
X012100Y002940D03*
X012100Y005360D03*
X011600Y005360D03*
X011100Y005360D03*
X010600Y005360D03*
D13*
X014150Y006150D03*
X014150Y007250D03*
X013750Y010350D03*
X010500Y010150D03*
X006950Y014500D03*
X004750Y010150D03*
X002950Y006350D03*
X002950Y005350D03*
X002950Y004350D03*
X001950Y004350D03*
X001950Y005350D03*
X001950Y006350D03*
D14*
X002065Y007250D03*
X002735Y007250D03*
X009450Y005385D03*
X010050Y005385D03*
X010050Y004715D03*
X009450Y004715D03*
X010815Y002125D03*
X011485Y002125D03*
D15*
X009635Y002550D03*
X008965Y002550D03*
X013200Y006315D03*
X013200Y006985D03*
D16*
X007894Y004300D03*
X007500Y004300D03*
X007106Y004300D03*
D17*
X011952Y012944D03*
X008248Y014456D03*
D18*
X003650Y013200D03*
X001650Y010850D03*
X001650Y010350D03*
X001650Y009850D03*
X002150Y010350D03*
X001150Y007650D03*
X003650Y007650D03*
X005150Y008150D03*
X005750Y007250D03*
X006150Y007250D03*
X007150Y007250D03*
X007550Y007650D03*
X008325Y007250D03*
X009450Y006700D03*
X009800Y006950D03*
X010150Y006450D03*
X010150Y006000D03*
X008900Y005650D03*
X008900Y005150D03*
X008675Y003225D03*
X009250Y003225D03*
X008850Y001950D03*
X009600Y001500D03*
X010450Y001500D03*
X011050Y001500D03*
X013650Y004400D03*
X013150Y008050D03*
X013750Y009550D03*
X012900Y010350D03*
X013750Y011150D03*
X009950Y008950D03*
X007450Y008850D03*
X005350Y006550D03*
X003425Y003750D03*
X003400Y003250D03*
X004400Y001650D03*
X005150Y001900D03*
X006150Y002025D03*
X006550Y003075D03*
D19*
X002442Y002621D02*
X001793Y003394D01*
X001257Y004251D01*
X000847Y005174D01*
X000568Y006145D01*
X000428Y007145D01*
X000428Y008155D01*
X000568Y009155D01*
X000847Y010126D01*
X001257Y011049D01*
X001793Y011906D01*
X002442Y012679D01*
X003193Y013355D01*
X004030Y013920D01*
X004938Y014363D01*
X005898Y014675D01*
X006512Y014783D01*
X006440Y014711D01*
X006440Y014289D01*
X006739Y013990D01*
X007161Y013990D01*
X007460Y014289D01*
X007460Y014711D01*
X007306Y014865D01*
X007903Y014886D01*
X008076Y014867D01*
X007995Y014834D01*
X007870Y014708D01*
X007802Y014544D01*
X007802Y014367D01*
X007870Y014203D01*
X007995Y014077D01*
X008159Y014009D01*
X008337Y014009D01*
X008501Y014077D01*
X008627Y014203D01*
X008694Y014367D01*
X008694Y014544D01*
X008627Y014708D01*
X008514Y014821D01*
X008907Y014780D01*
X009887Y014536D01*
X010824Y014157D01*
X011699Y013652D01*
X012495Y013030D01*
X013196Y012304D01*
X013790Y011487D01*
X014264Y010595D01*
X014610Y009646D01*
X014820Y008658D01*
X014890Y007650D01*
X014471Y007650D01*
X014373Y007749D02*
X014883Y007749D01*
X014876Y007847D02*
X013449Y007847D01*
X013451Y007849D02*
X013505Y007979D01*
X013505Y008121D01*
X013451Y008251D01*
X013351Y008351D01*
X013278Y008381D01*
X013460Y008563D01*
X013460Y009637D01*
X013337Y009760D01*
X013137Y009960D01*
X012063Y009960D01*
X011940Y009837D01*
X011940Y009663D01*
X012063Y009540D01*
X012963Y009540D01*
X013040Y009463D01*
X013040Y008737D01*
X012963Y008660D01*
X010763Y008660D01*
X010707Y008604D01*
X010529Y008782D01*
X010560Y008813D01*
X010560Y009337D01*
X010307Y009590D01*
X010358Y009640D01*
X010711Y009640D01*
X011010Y009939D01*
X011010Y010361D01*
X010711Y010660D01*
X010289Y010660D01*
X009990Y010361D01*
X009990Y010008D01*
X009890Y009907D01*
X009837Y009960D01*
X008763Y009960D01*
X008640Y009837D01*
X008640Y009663D01*
X008763Y009540D01*
X009522Y009540D01*
X009492Y009510D01*
X008198Y009510D01*
X008103Y009470D01*
X008030Y009397D01*
X007717Y009085D01*
X007651Y009151D01*
X007521Y009205D01*
X007379Y009205D01*
X007249Y009151D01*
X007149Y009051D01*
X007125Y008992D01*
X006715Y008582D01*
X006637Y008660D01*
X005637Y008660D01*
X005460Y008837D01*
X005460Y009363D01*
X005637Y009540D01*
X006587Y009540D01*
X006710Y009663D01*
X006710Y009837D01*
X006587Y009960D01*
X005463Y009960D01*
X005340Y009837D01*
X005040Y009537D01*
X005040Y008663D01*
X005163Y008540D01*
X005463Y008240D01*
X006372Y008240D01*
X005737Y007605D01*
X005679Y007605D01*
X005549Y007551D01*
X005449Y007451D01*
X005440Y007428D01*
X004760Y008108D01*
X004760Y009640D01*
X004961Y009640D01*
X005260Y009939D01*
X005260Y010361D01*
X004961Y010660D01*
X004539Y010660D01*
X004240Y010361D01*
X004240Y008457D01*
X004037Y008660D01*
X002337Y008660D01*
X002260Y008737D01*
X002260Y009463D01*
X002337Y009540D01*
X003287Y009540D01*
X003410Y009663D01*
X003410Y009837D01*
X003287Y009960D01*
X002163Y009960D01*
X002040Y009837D01*
X001840Y009637D01*
X001840Y008563D01*
X001963Y008440D01*
X001963Y008440D01*
X002163Y008240D01*
X003863Y008240D01*
X004263Y007840D01*
X004292Y007840D01*
X004353Y007780D01*
X005243Y006890D01*
X005149Y006851D01*
X005049Y006751D01*
X004995Y006621D01*
X004995Y006479D01*
X005049Y006349D01*
X005149Y006249D01*
X005279Y006195D01*
X005337Y006195D01*
X005403Y006130D01*
X005498Y006090D01*
X006102Y006090D01*
X006197Y006130D01*
X006270Y006203D01*
X006310Y006243D01*
X006363Y006190D01*
X007987Y006190D01*
X008110Y006313D01*
X008110Y006487D01*
X007987Y006610D01*
X006678Y006610D01*
X006997Y006929D01*
X007079Y006895D01*
X007221Y006895D01*
X007351Y006949D01*
X007451Y007049D01*
X007505Y007179D01*
X007505Y007295D01*
X007621Y007295D01*
X007751Y007349D01*
X007792Y007390D01*
X007837Y007390D01*
X007970Y007249D01*
X007970Y007179D01*
X008024Y007049D01*
X008124Y006949D01*
X008254Y006895D01*
X008396Y006895D01*
X008526Y006949D01*
X008626Y007049D01*
X008680Y007179D01*
X008680Y007321D01*
X008672Y007340D01*
X008687Y007340D01*
X008810Y007463D01*
X008810Y008113D01*
X008937Y008240D01*
X010137Y008240D01*
X010193Y008296D01*
X010196Y008293D01*
X010063Y008160D01*
X009940Y008037D01*
X009940Y007213D01*
X010063Y007090D01*
X010237Y007090D01*
X010360Y007213D01*
X010360Y007863D01*
X010493Y007996D01*
X010604Y007886D01*
X010686Y007804D01*
X010792Y007760D01*
X012938Y007760D01*
X012949Y007749D01*
X013079Y007695D01*
X013221Y007695D01*
X013351Y007749D01*
X013451Y007849D01*
X013491Y007946D02*
X014869Y007946D01*
X014862Y008044D02*
X013505Y008044D01*
X013496Y008143D02*
X014856Y008143D01*
X014849Y008241D02*
X013455Y008241D01*
X013363Y008340D02*
X014842Y008340D01*
X014835Y008438D02*
X013335Y008438D01*
X013433Y008537D02*
X014828Y008537D01*
X014821Y008635D02*
X013460Y008635D01*
X013460Y008734D02*
X014803Y008734D01*
X014782Y008832D02*
X013460Y008832D01*
X013460Y008931D02*
X014762Y008931D01*
X014741Y009029D02*
X013460Y009029D01*
X013460Y009128D02*
X014720Y009128D01*
X014699Y009226D02*
X013460Y009226D01*
X013460Y009325D02*
X014678Y009325D01*
X014657Y009423D02*
X013460Y009423D01*
X013460Y009522D02*
X014636Y009522D01*
X014615Y009620D02*
X013460Y009620D01*
X013378Y009719D02*
X014583Y009719D01*
X014547Y009817D02*
X013280Y009817D01*
X013181Y009916D02*
X013548Y009916D01*
X013564Y009900D02*
X013700Y009900D01*
X013700Y010300D01*
X013800Y010300D01*
X013800Y010400D01*
X014200Y010400D01*
X014200Y010536D01*
X013936Y010800D01*
X013800Y010800D01*
X013800Y010400D01*
X013700Y010400D01*
X013700Y010800D01*
X013564Y010800D01*
X013300Y010536D01*
X013300Y010400D01*
X013700Y010400D01*
X013700Y010300D01*
X013300Y010300D01*
X013300Y010164D01*
X013564Y009900D01*
X013700Y009916D02*
X013800Y009916D01*
X013800Y009900D02*
X013936Y009900D01*
X014200Y010164D01*
X014200Y010300D01*
X013800Y010300D01*
X013800Y009900D01*
X013800Y010014D02*
X013700Y010014D01*
X013700Y010113D02*
X013800Y010113D01*
X013800Y010211D02*
X013700Y010211D01*
X013700Y010310D02*
X011010Y010310D01*
X011010Y010211D02*
X013300Y010211D01*
X013351Y010113D02*
X011010Y010113D01*
X011010Y010014D02*
X013450Y010014D01*
X013300Y010408D02*
X010963Y010408D01*
X010865Y010507D02*
X013300Y010507D01*
X013369Y010605D02*
X010766Y010605D01*
X010500Y010150D02*
X009600Y009250D01*
X008250Y009250D01*
X006250Y007250D01*
X006150Y007250D01*
X006250Y006850D02*
X005650Y006850D01*
X004500Y008000D01*
X004500Y009900D01*
X004750Y010150D01*
X005115Y010507D02*
X010135Y010507D01*
X010234Y010605D02*
X005016Y010605D01*
X005213Y010408D02*
X010037Y010408D01*
X009990Y010310D02*
X005260Y010310D01*
X005260Y010211D02*
X009990Y010211D01*
X009990Y010113D02*
X005260Y010113D01*
X005260Y010014D02*
X009990Y010014D01*
X009898Y009916D02*
X009881Y009916D01*
X009504Y009522D02*
X005618Y009522D01*
X005520Y009423D02*
X008055Y009423D01*
X007957Y009325D02*
X005460Y009325D01*
X005460Y009226D02*
X007858Y009226D01*
X007760Y009128D02*
X007675Y009128D01*
X007450Y008850D02*
X007350Y008850D01*
X005750Y007250D01*
X005451Y007453D02*
X005415Y007453D01*
X005316Y007551D02*
X005550Y007551D01*
X005782Y007650D02*
X005218Y007650D01*
X005119Y007749D02*
X005881Y007749D01*
X005979Y007847D02*
X005021Y007847D01*
X004922Y007946D02*
X006078Y007946D01*
X006176Y008044D02*
X004824Y008044D01*
X004760Y008143D02*
X006275Y008143D01*
X006662Y008635D02*
X006767Y008635D01*
X006866Y008734D02*
X005563Y008734D01*
X005465Y008832D02*
X006964Y008832D01*
X007063Y008931D02*
X005460Y008931D01*
X005460Y009029D02*
X007140Y009029D01*
X007225Y009128D02*
X005460Y009128D01*
X005040Y009128D02*
X004760Y009128D01*
X004760Y009226D02*
X005040Y009226D01*
X005040Y009325D02*
X004760Y009325D01*
X004760Y009423D02*
X005040Y009423D01*
X005040Y009522D02*
X004760Y009522D01*
X004760Y009620D02*
X005123Y009620D01*
X005040Y009719D02*
X005222Y009719D01*
X005138Y009817D02*
X005320Y009817D01*
X005237Y009916D02*
X005419Y009916D01*
X005040Y009029D02*
X004760Y009029D01*
X004760Y008931D02*
X005040Y008931D01*
X005040Y008832D02*
X004760Y008832D01*
X004760Y008734D02*
X005040Y008734D01*
X005068Y008635D02*
X004760Y008635D01*
X004760Y008537D02*
X005167Y008537D01*
X005265Y008438D02*
X004760Y008438D01*
X004760Y008340D02*
X005364Y008340D01*
X005462Y008241D02*
X004760Y008241D01*
X004353Y007780D02*
X004353Y007780D01*
X004384Y007749D02*
X000428Y007749D01*
X000428Y007847D02*
X004256Y007847D01*
X004158Y007946D02*
X000428Y007946D01*
X000428Y008044D02*
X004059Y008044D01*
X003961Y008143D02*
X000428Y008143D01*
X000440Y008241D02*
X002162Y008241D01*
X002064Y008340D02*
X000454Y008340D01*
X000467Y008438D02*
X001965Y008438D01*
X001867Y008537D02*
X000481Y008537D01*
X000495Y008635D02*
X001840Y008635D01*
X001840Y008734D02*
X000509Y008734D01*
X000523Y008832D02*
X001840Y008832D01*
X001840Y008931D02*
X000537Y008931D01*
X000550Y009029D02*
X001840Y009029D01*
X001840Y009128D02*
X000564Y009128D01*
X000588Y009226D02*
X001840Y009226D01*
X001840Y009325D02*
X000617Y009325D01*
X000645Y009423D02*
X001840Y009423D01*
X001840Y009522D02*
X000673Y009522D01*
X000701Y009620D02*
X001840Y009620D01*
X001922Y009719D02*
X000730Y009719D01*
X000758Y009817D02*
X002020Y009817D01*
X002119Y009916D02*
X000786Y009916D01*
X000814Y010014D02*
X004240Y010014D01*
X004240Y009916D02*
X003331Y009916D01*
X003410Y009817D02*
X004240Y009817D01*
X004240Y009719D02*
X003410Y009719D01*
X003367Y009620D02*
X004240Y009620D01*
X004240Y009522D02*
X002318Y009522D01*
X002260Y009423D02*
X004240Y009423D01*
X004240Y009325D02*
X002260Y009325D01*
X002260Y009226D02*
X004240Y009226D01*
X004240Y009128D02*
X002260Y009128D01*
X002260Y009029D02*
X004240Y009029D01*
X004240Y008931D02*
X002260Y008931D01*
X002260Y008832D02*
X004240Y008832D01*
X004240Y008734D02*
X002263Y008734D01*
X002349Y007677D02*
X001782Y007677D01*
X001659Y007554D01*
X001659Y007226D01*
X001353Y006920D01*
X001280Y006847D01*
X001240Y006752D01*
X001240Y004748D01*
X001280Y004653D01*
X001440Y004492D01*
X001440Y004139D01*
X001739Y003840D01*
X002161Y003840D01*
X002450Y004129D01*
X002739Y003840D01*
X003078Y003840D01*
X003070Y003821D01*
X003070Y003774D01*
X002907Y003622D01*
X002903Y003620D01*
X002869Y003587D01*
X002835Y003555D01*
X002833Y003551D01*
X002830Y003547D01*
X002812Y003504D01*
X002792Y003461D01*
X002792Y003456D01*
X002790Y003452D01*
X002790Y003404D01*
X002788Y003357D01*
X002790Y003353D01*
X002790Y003098D01*
X002830Y003003D01*
X002903Y002930D01*
X003153Y002680D01*
X003248Y002640D01*
X005142Y002640D01*
X005240Y002542D01*
X005240Y002247D01*
X005221Y002255D01*
X005079Y002255D01*
X004949Y002201D01*
X004849Y002101D01*
X004795Y001971D01*
X004795Y001829D01*
X004849Y001699D01*
X004949Y001599D01*
X005079Y001545D01*
X005119Y001545D01*
X005777Y000810D01*
X005780Y000803D01*
X005811Y000771D01*
X005841Y000738D01*
X005847Y000735D01*
X005853Y000730D01*
X005894Y000713D01*
X005934Y000693D01*
X005941Y000693D01*
X005948Y000690D01*
X005993Y000690D01*
X006037Y000688D01*
X006044Y000690D01*
X007077Y000690D01*
X007172Y000730D01*
X007245Y000803D01*
X007300Y000857D01*
X007530Y000628D01*
X007530Y000628D01*
X007603Y000555D01*
X007698Y000515D01*
X008802Y000515D01*
X008897Y000555D01*
X009283Y000940D01*
X009802Y000940D01*
X009897Y000980D01*
X009970Y001053D01*
X010183Y001265D01*
X010249Y001199D01*
X010379Y001145D01*
X010521Y001145D01*
X010651Y001199D01*
X010751Y001299D01*
X010805Y001429D01*
X010805Y001487D01*
X011016Y001698D01*
X011099Y001698D01*
X011150Y001749D01*
X011201Y001698D01*
X011763Y001698D01*
X011699Y001648D01*
X010824Y001143D01*
X009887Y000764D01*
X008907Y000520D01*
X007903Y000414D01*
X006893Y000450D01*
X005898Y000625D01*
X004938Y000937D01*
X004030Y001380D01*
X003193Y001945D01*
X002442Y002621D01*
X002437Y002626D02*
X005156Y002626D01*
X005240Y002528D02*
X002545Y002528D01*
X002654Y002429D02*
X005240Y002429D01*
X005240Y002331D02*
X002764Y002331D01*
X002873Y002232D02*
X005025Y002232D01*
X004882Y002134D02*
X002983Y002134D01*
X003092Y002035D02*
X004822Y002035D01*
X004795Y001937D02*
X003204Y001937D01*
X003350Y001838D02*
X004795Y001838D01*
X004832Y001740D02*
X003496Y001740D01*
X003642Y001641D02*
X004906Y001641D01*
X005121Y001543D02*
X003788Y001543D01*
X003934Y001444D02*
X005209Y001444D01*
X005297Y001346D02*
X004100Y001346D01*
X004302Y001247D02*
X005385Y001247D01*
X005473Y001149D02*
X004504Y001149D01*
X004706Y001050D02*
X005561Y001050D01*
X005649Y000952D02*
X004908Y000952D01*
X005195Y000853D02*
X005737Y000853D01*
X005826Y000755D02*
X005499Y000755D01*
X005802Y000656D02*
X007501Y000656D01*
X007599Y000558D02*
X006279Y000558D01*
X006000Y000950D02*
X005150Y001900D01*
X005500Y001850D02*
X005500Y002650D01*
X005250Y002900D01*
X003300Y002900D01*
X003050Y003150D01*
X003050Y003400D01*
X003425Y003750D01*
X003070Y003808D02*
X001534Y003808D01*
X001596Y003710D02*
X003001Y003710D01*
X002894Y003611D02*
X001657Y003611D01*
X001719Y003513D02*
X002815Y003513D01*
X002790Y003414D02*
X001780Y003414D01*
X001859Y003316D02*
X002790Y003316D01*
X002790Y003217D02*
X001941Y003217D01*
X002024Y003119D02*
X002790Y003119D01*
X002822Y003020D02*
X002106Y003020D01*
X002189Y002922D02*
X002910Y002922D01*
X003009Y002823D02*
X002272Y002823D01*
X002354Y002725D02*
X003107Y002725D01*
X003450Y003200D02*
X003400Y003250D01*
X003450Y003200D02*
X005300Y003200D01*
X005750Y002750D01*
X005750Y001900D01*
X005987Y001663D01*
X006514Y001663D01*
X006564Y001713D01*
X006150Y002025D02*
X006150Y002725D01*
X006138Y002737D01*
X004100Y004800D01*
X002500Y004800D01*
X001950Y005350D01*
X002243Y005778D02*
X002657Y005778D01*
X002729Y005850D02*
X002450Y005571D01*
X002161Y005860D01*
X001760Y005860D01*
X001760Y005904D01*
X001764Y005900D01*
X001900Y005900D01*
X001900Y006300D01*
X002000Y006300D01*
X002000Y006400D01*
X001900Y006400D01*
X001900Y006732D01*
X001991Y006823D01*
X002349Y006823D01*
X002400Y006874D01*
X002451Y006823D01*
X002475Y006823D01*
X002475Y006596D01*
X002440Y006561D01*
X002440Y006139D01*
X002729Y005850D01*
X002702Y005877D02*
X001760Y005877D01*
X001900Y005975D02*
X002000Y005975D01*
X002000Y005900D02*
X002136Y005900D01*
X002400Y006164D01*
X002400Y006300D01*
X002000Y006300D01*
X002000Y005900D01*
X002000Y006074D02*
X001900Y006074D01*
X001900Y006172D02*
X002000Y006172D01*
X002000Y006271D02*
X001900Y006271D01*
X002000Y006369D02*
X002440Y006369D01*
X002400Y006400D02*
X002400Y006536D01*
X002136Y006800D01*
X002000Y006800D01*
X002000Y006400D01*
X002400Y006400D01*
X002400Y006468D02*
X002440Y006468D01*
X002445Y006566D02*
X002370Y006566D01*
X002271Y006665D02*
X002475Y006665D01*
X002475Y006763D02*
X002173Y006763D01*
X002000Y006763D02*
X001931Y006763D01*
X001900Y006665D02*
X002000Y006665D01*
X002000Y006566D02*
X001900Y006566D01*
X001900Y006468D02*
X002000Y006468D01*
X002400Y006271D02*
X002440Y006271D01*
X002440Y006172D02*
X002400Y006172D01*
X002310Y006074D02*
X002505Y006074D01*
X002603Y005975D02*
X002212Y005975D01*
X002341Y005680D02*
X002559Y005680D01*
X002460Y005581D02*
X002440Y005581D01*
X002950Y006350D02*
X002735Y006565D01*
X002735Y007250D01*
X003057Y006862D02*
X005176Y006862D01*
X005172Y006960D02*
X003141Y006960D01*
X003141Y006946D02*
X003141Y007554D01*
X003018Y007677D01*
X002451Y007677D01*
X002400Y007626D01*
X002349Y007677D01*
X002376Y007650D02*
X002424Y007650D01*
X002065Y007250D02*
X002050Y007250D01*
X001500Y006700D01*
X001500Y004800D01*
X001950Y004350D01*
X001573Y004005D02*
X001411Y004005D01*
X001472Y003907D02*
X001672Y003907D01*
X001475Y004104D02*
X001349Y004104D01*
X001288Y004202D02*
X001440Y004202D01*
X001440Y004301D02*
X001235Y004301D01*
X001191Y004399D02*
X001440Y004399D01*
X001434Y004498D02*
X001148Y004498D01*
X001104Y004596D02*
X001336Y004596D01*
X001262Y004695D02*
X001060Y004695D01*
X001016Y004793D02*
X001240Y004793D01*
X001240Y004892D02*
X000972Y004892D01*
X000928Y004990D02*
X001240Y004990D01*
X001240Y005089D02*
X000884Y005089D01*
X000843Y005187D02*
X001240Y005187D01*
X001240Y005286D02*
X000814Y005286D01*
X000786Y005384D02*
X001240Y005384D01*
X001240Y005483D02*
X000758Y005483D01*
X000730Y005581D02*
X001240Y005581D01*
X001240Y005680D02*
X000701Y005680D01*
X000673Y005778D02*
X001240Y005778D01*
X001240Y005877D02*
X000645Y005877D01*
X000617Y005975D02*
X001240Y005975D01*
X001240Y006074D02*
X000588Y006074D01*
X000564Y006172D02*
X001240Y006172D01*
X001240Y006271D02*
X000550Y006271D01*
X000537Y006369D02*
X001240Y006369D01*
X001240Y006468D02*
X000523Y006468D01*
X000509Y006566D02*
X001240Y006566D01*
X001240Y006665D02*
X000495Y006665D01*
X000481Y006763D02*
X001245Y006763D01*
X001294Y006862D02*
X000467Y006862D01*
X000454Y006960D02*
X001393Y006960D01*
X001491Y007059D02*
X000440Y007059D01*
X000428Y007157D02*
X001590Y007157D01*
X001659Y007256D02*
X000428Y007256D01*
X000428Y007354D02*
X001659Y007354D01*
X001659Y007453D02*
X000428Y007453D01*
X000428Y007551D02*
X001659Y007551D01*
X001755Y007650D02*
X000428Y007650D01*
X002388Y006862D02*
X002412Y006862D01*
X003055Y006860D02*
X003141Y006946D01*
X003161Y006860D02*
X003055Y006860D01*
X003161Y006860D02*
X003460Y006561D01*
X003460Y006196D01*
X005810Y003760D01*
X006818Y003760D01*
X006759Y003819D01*
X006759Y004781D01*
X006882Y004904D01*
X007331Y004904D01*
X007391Y004844D01*
X007481Y004844D01*
X007481Y004319D01*
X007519Y004319D01*
X007519Y004844D01*
X007609Y004844D01*
X007669Y004904D01*
X008118Y004904D01*
X008241Y004781D01*
X008241Y003819D01*
X008222Y003800D01*
X008222Y003348D01*
X008241Y003302D01*
X008241Y003016D01*
X008382Y003016D01*
X008374Y003024D01*
X008320Y003154D01*
X008320Y003296D01*
X008374Y003426D01*
X008474Y003526D01*
X008604Y003580D01*
X008746Y003580D01*
X008876Y003526D01*
X008917Y003485D01*
X009008Y003485D01*
X009049Y003526D01*
X009179Y003580D01*
X009321Y003580D01*
X009451Y003526D01*
X009551Y003426D01*
X009605Y003296D01*
X009605Y003220D01*
X009630Y003220D01*
X009630Y003704D01*
X009671Y003803D01*
X010217Y004349D01*
X010098Y004349D01*
X010098Y004667D01*
X010002Y004667D01*
X010002Y004349D01*
X009833Y004349D01*
X009795Y004359D01*
X009761Y004379D01*
X009750Y004390D01*
X009739Y004379D01*
X009705Y004359D01*
X009667Y004349D01*
X009498Y004349D01*
X009498Y004667D01*
X009402Y004667D01*
X009402Y004349D01*
X009233Y004349D01*
X009195Y004359D01*
X009161Y004379D01*
X009133Y004407D01*
X009113Y004441D01*
X009103Y004479D01*
X009103Y004667D01*
X009402Y004667D01*
X009402Y004764D01*
X009103Y004764D01*
X009103Y004952D01*
X009113Y004990D01*
X009121Y005003D01*
X009043Y005081D01*
X009043Y005688D01*
X009166Y005811D01*
X009734Y005811D01*
X009750Y005795D01*
X009766Y005811D01*
X009844Y005811D01*
X009795Y005929D01*
X009795Y006071D01*
X009844Y006190D01*
X009648Y006190D01*
X009553Y006230D01*
X009480Y006303D01*
X009437Y006345D01*
X009379Y006345D01*
X009249Y006399D01*
X009149Y006499D01*
X009095Y006629D01*
X009095Y006771D01*
X009149Y006901D01*
X009249Y007001D01*
X009379Y007055D01*
X009521Y007055D01*
X009651Y007001D01*
X009751Y006901D01*
X009805Y006771D01*
X009805Y006713D01*
X009808Y006710D01*
X009908Y006710D01*
X009949Y006751D01*
X010079Y006805D01*
X010221Y006805D01*
X010351Y006751D01*
X010451Y006651D01*
X010505Y006521D01*
X010505Y006379D01*
X010451Y006249D01*
X010427Y006225D01*
X010451Y006201D01*
X010505Y006071D01*
X010505Y005970D01*
X010817Y005970D01*
X010840Y005947D01*
X010840Y006152D01*
X010880Y006247D01*
X011764Y007132D01*
X011837Y007205D01*
X011933Y007245D01*
X012773Y007245D01*
X012773Y007268D01*
X012896Y007391D01*
X013504Y007391D01*
X013627Y007268D01*
X013627Y007245D01*
X013640Y007245D01*
X013640Y007461D01*
X013939Y007760D01*
X014361Y007760D01*
X014660Y007461D01*
X014660Y007039D01*
X014361Y006740D01*
X013973Y006740D01*
X013936Y006725D01*
X013627Y006725D01*
X013627Y006701D01*
X013576Y006650D01*
X013627Y006599D01*
X013627Y006575D01*
X013854Y006575D01*
X013939Y006660D01*
X014361Y006660D01*
X014660Y006361D01*
X014660Y005939D01*
X014361Y005640D01*
X013939Y005640D01*
X013640Y005939D01*
X013640Y006055D01*
X013627Y006055D01*
X013627Y006032D01*
X013504Y005909D01*
X012896Y005909D01*
X012773Y006032D01*
X012773Y006055D01*
X011923Y006055D01*
X011910Y006042D01*
X011910Y005899D01*
X011912Y005900D01*
X011950Y005910D01*
X012085Y005910D01*
X012085Y005375D01*
X012115Y005375D01*
X012115Y005910D01*
X012250Y005910D01*
X012288Y005900D01*
X012322Y005880D01*
X012350Y005852D01*
X012370Y005818D01*
X012380Y005780D01*
X012380Y005375D01*
X012115Y005375D01*
X012115Y005345D01*
X012380Y005345D01*
X012380Y005210D01*
X012952Y005210D01*
X013047Y005170D01*
X013120Y005097D01*
X013160Y005002D01*
X013160Y003448D01*
X013120Y003353D01*
X013047Y003280D01*
X012952Y003240D01*
X012440Y003240D01*
X012440Y002453D01*
X012317Y002330D01*
X011891Y002330D01*
X011891Y001821D01*
X011786Y001716D01*
X012495Y002270D01*
X013196Y002996D01*
X013790Y003813D01*
X014264Y004705D01*
X014610Y005654D01*
X014820Y006642D01*
X014820Y006642D01*
X014890Y007650D01*
X014883Y007551D02*
X014570Y007551D01*
X014660Y007453D02*
X014876Y007453D01*
X014869Y007354D02*
X014660Y007354D01*
X014660Y007256D02*
X014862Y007256D01*
X014856Y007157D02*
X014660Y007157D01*
X014660Y007059D02*
X014849Y007059D01*
X014842Y006960D02*
X014582Y006960D01*
X014483Y006862D02*
X014835Y006862D01*
X014828Y006763D02*
X014385Y006763D01*
X014455Y006566D02*
X014803Y006566D01*
X014782Y006468D02*
X014553Y006468D01*
X014652Y006369D02*
X014762Y006369D01*
X014741Y006271D02*
X014660Y006271D01*
X014660Y006172D02*
X014720Y006172D01*
X014699Y006074D02*
X014660Y006074D01*
X014660Y005975D02*
X014678Y005975D01*
X014657Y005877D02*
X014598Y005877D01*
X014636Y005778D02*
X014500Y005778D01*
X014401Y005680D02*
X014615Y005680D01*
X014583Y005581D02*
X012380Y005581D01*
X012380Y005483D02*
X014547Y005483D01*
X014511Y005384D02*
X012380Y005384D01*
X012380Y005286D02*
X014475Y005286D01*
X014440Y005187D02*
X013006Y005187D01*
X013124Y005089D02*
X014404Y005089D01*
X014368Y004990D02*
X013160Y004990D01*
X013160Y004892D02*
X014332Y004892D01*
X014296Y004793D02*
X013160Y004793D01*
X013160Y004695D02*
X014259Y004695D01*
X014206Y004596D02*
X013160Y004596D01*
X013160Y004498D02*
X014154Y004498D01*
X014102Y004399D02*
X013160Y004399D01*
X013160Y004301D02*
X014049Y004301D01*
X013997Y004202D02*
X013160Y004202D01*
X013160Y004104D02*
X013944Y004104D01*
X013892Y004005D02*
X013160Y004005D01*
X013160Y003907D02*
X013840Y003907D01*
X013786Y003808D02*
X013160Y003808D01*
X013160Y003710D02*
X013715Y003710D01*
X013643Y003611D02*
X013160Y003611D01*
X013160Y003513D02*
X013572Y003513D01*
X013500Y003414D02*
X013146Y003414D01*
X013084Y003316D02*
X013428Y003316D01*
X013357Y003217D02*
X012440Y003217D01*
X012440Y003119D02*
X013285Y003119D01*
X013214Y003020D02*
X012440Y003020D01*
X012440Y002922D02*
X013124Y002922D01*
X013029Y002823D02*
X012440Y002823D01*
X012440Y002725D02*
X012934Y002725D01*
X012839Y002626D02*
X012440Y002626D01*
X012440Y002528D02*
X012744Y002528D01*
X012649Y002429D02*
X012416Y002429D01*
X012318Y002331D02*
X012554Y002331D01*
X012447Y002232D02*
X011891Y002232D01*
X011891Y002134D02*
X012321Y002134D01*
X012195Y002035D02*
X011891Y002035D01*
X011891Y001937D02*
X012069Y001937D01*
X011943Y001838D02*
X011891Y001838D01*
X011817Y001740D02*
X011810Y001740D01*
X011688Y001641D02*
X010959Y001641D01*
X010861Y001543D02*
X011517Y001543D01*
X011346Y001444D02*
X010805Y001444D01*
X010770Y001346D02*
X011176Y001346D01*
X011005Y001247D02*
X010700Y001247D01*
X010835Y001149D02*
X010530Y001149D01*
X010595Y001050D02*
X009968Y001050D01*
X010067Y001149D02*
X010370Y001149D01*
X010200Y001247D02*
X010165Y001247D01*
X010352Y000952D02*
X009831Y000952D01*
X009850Y000755D02*
X009098Y000755D01*
X009196Y000853D02*
X010108Y000853D01*
X009750Y001200D02*
X009175Y001200D01*
X008750Y000775D01*
X007750Y000775D01*
X007450Y001075D01*
X007450Y001339D01*
X007194Y001339D02*
X007194Y001119D01*
X007025Y000950D01*
X006000Y000950D01*
X006150Y001150D02*
X005500Y001850D01*
X006150Y001150D02*
X006700Y001150D01*
X006938Y001362D01*
X006938Y001339D01*
X007296Y000853D02*
X007304Y000853D01*
X007402Y000755D02*
X007198Y000755D01*
X006838Y000459D02*
X008332Y000459D01*
X008901Y000558D02*
X009060Y000558D01*
X008999Y000656D02*
X009455Y000656D01*
X009750Y001200D02*
X010450Y001900D01*
X010450Y002500D01*
X010600Y002650D01*
X010600Y002940D01*
X011100Y002940D02*
X011600Y002940D01*
X011600Y002240D01*
X011485Y002125D01*
X011159Y001740D02*
X011141Y001740D01*
X010815Y001865D02*
X010815Y002125D01*
X010815Y001865D02*
X010450Y001500D01*
X010150Y002250D02*
X010150Y003400D01*
X010500Y003750D01*
X011750Y003750D01*
X012100Y003400D01*
X012100Y002940D01*
X010150Y002250D02*
X009700Y001800D01*
X009200Y001800D01*
X008689Y001339D01*
X007962Y001339D01*
X007706Y001339D02*
X007706Y001144D01*
X007850Y001000D01*
X008650Y001000D01*
X009175Y001500D01*
X009600Y001500D01*
X009592Y002060D02*
X009207Y002060D01*
X009162Y002062D01*
X009155Y002060D01*
X009148Y002060D01*
X009107Y002043D01*
X009064Y002028D01*
X009059Y002023D01*
X009053Y002020D01*
X009021Y001989D01*
X008723Y001720D01*
X008723Y001796D01*
X008704Y001841D01*
X008723Y001886D01*
X008723Y002052D01*
X008686Y002142D01*
X008685Y002143D01*
X009269Y002143D01*
X009347Y002221D01*
X009360Y002213D01*
X009398Y002203D01*
X009586Y002203D01*
X009586Y002502D01*
X009683Y002502D01*
X009683Y002203D01*
X009735Y002203D01*
X009592Y002060D01*
X009666Y002134D02*
X008689Y002134D01*
X008723Y002035D02*
X009086Y002035D01*
X008964Y001937D02*
X008723Y001937D01*
X008706Y001838D02*
X008855Y001838D01*
X008850Y001950D02*
X008625Y002225D01*
X008336Y002225D01*
X008324Y002213D01*
X007450Y002213D01*
X007450Y003111D02*
X007450Y003350D01*
X007300Y003500D01*
X005700Y003500D01*
X002950Y006350D01*
X003356Y006665D02*
X005013Y006665D01*
X004995Y006566D02*
X003455Y006566D01*
X003460Y006468D02*
X005000Y006468D01*
X005041Y006369D02*
X003460Y006369D01*
X003460Y006271D02*
X005127Y006271D01*
X005360Y006172D02*
X003483Y006172D01*
X003578Y006074D02*
X009796Y006074D01*
X009795Y005975D02*
X003673Y005975D01*
X003768Y005877D02*
X009817Y005877D01*
X009837Y006172D02*
X006240Y006172D01*
X006050Y006350D02*
X005550Y006350D01*
X005350Y006550D01*
X005061Y006763D02*
X003258Y006763D01*
X003141Y007059D02*
X005073Y007059D01*
X004975Y007157D02*
X003141Y007157D01*
X003141Y007256D02*
X004876Y007256D01*
X004778Y007354D02*
X003141Y007354D01*
X003141Y007453D02*
X004679Y007453D01*
X004581Y007551D02*
X003141Y007551D01*
X003045Y007650D02*
X004482Y007650D01*
X004240Y008537D02*
X004160Y008537D01*
X004240Y008635D02*
X004062Y008635D01*
X004240Y010113D02*
X000843Y010113D01*
X000884Y010211D02*
X004240Y010211D01*
X004240Y010310D02*
X000928Y010310D01*
X000972Y010408D02*
X004287Y010408D01*
X004385Y010507D02*
X001016Y010507D01*
X001060Y010605D02*
X004484Y010605D01*
X002545Y012772D02*
X011605Y012772D01*
X011609Y012761D02*
X011652Y012698D01*
X011706Y012644D01*
X011769Y012602D01*
X011779Y012598D01*
X011914Y012929D01*
X011583Y013064D01*
X011580Y013057D01*
X011566Y012982D01*
X011566Y012906D01*
X011580Y012832D01*
X011609Y012761D01*
X011676Y012674D02*
X002437Y012674D01*
X002354Y012575D02*
X011834Y012575D01*
X011832Y012576D02*
X011839Y012573D01*
X011914Y012558D01*
X011990Y012558D01*
X012064Y012573D01*
X012135Y012602D01*
X012198Y012644D01*
X012252Y012698D01*
X012294Y012761D01*
X012298Y012772D01*
X012744Y012772D01*
X012839Y012674D02*
X012227Y012674D01*
X012298Y012772D02*
X011967Y012907D01*
X011832Y012576D01*
X011810Y012674D02*
X011872Y012674D01*
X011850Y012772D02*
X011912Y012772D01*
X011891Y012871D02*
X011953Y012871D01*
X011967Y012907D02*
X011914Y012929D01*
X011936Y012982D01*
X012071Y013313D01*
X012064Y013316D01*
X011990Y013331D01*
X011914Y013331D01*
X011839Y013316D01*
X011769Y013287D01*
X011706Y013244D01*
X011652Y013191D01*
X011609Y013127D01*
X011605Y013117D01*
X011936Y012982D01*
X011989Y012960D01*
X012124Y013291D01*
X012135Y013287D01*
X012198Y013244D01*
X012252Y013191D01*
X012294Y013127D01*
X012323Y013057D01*
X012338Y012982D01*
X012338Y012906D01*
X012323Y012832D01*
X012320Y012825D01*
X011989Y012960D01*
X011967Y012907D01*
X011967Y012969D02*
X011993Y012969D01*
X011931Y012969D02*
X011815Y012969D01*
X011726Y013068D02*
X002873Y013068D01*
X002983Y013166D02*
X011635Y013166D01*
X011736Y013265D02*
X003092Y013265D01*
X003204Y013363D02*
X012069Y013363D01*
X012051Y013265D02*
X012113Y013265D01*
X012168Y013265D02*
X012195Y013265D01*
X012268Y013166D02*
X012321Y013166D01*
X012319Y013068D02*
X012447Y013068D01*
X012495Y013030D02*
X012495Y013030D01*
X012554Y012969D02*
X012338Y012969D01*
X012331Y012871D02*
X012649Y012871D01*
X012934Y012575D02*
X012069Y012575D01*
X012057Y012871D02*
X012209Y012871D01*
X012033Y013068D02*
X011971Y013068D01*
X012011Y013166D02*
X012073Y013166D01*
X011943Y013462D02*
X003350Y013462D01*
X003496Y013560D02*
X011817Y013560D01*
X011699Y013652D02*
X011699Y013652D01*
X011688Y013659D02*
X003642Y013659D01*
X003788Y013757D02*
X011517Y013757D01*
X011346Y013856D02*
X003934Y013856D01*
X004100Y013954D02*
X011176Y013954D01*
X011005Y014053D02*
X008441Y014053D01*
X008575Y014151D02*
X010835Y014151D01*
X010595Y014250D02*
X008646Y014250D01*
X008687Y014348D02*
X010352Y014348D01*
X010108Y014447D02*
X008694Y014447D01*
X008694Y014545D02*
X009850Y014545D01*
X009455Y014644D02*
X008653Y014644D01*
X008593Y014742D02*
X009060Y014742D01*
X008011Y014841D02*
X007331Y014841D01*
X007429Y014742D02*
X007904Y014742D01*
X007843Y014644D02*
X007460Y014644D01*
X007460Y014545D02*
X007802Y014545D01*
X007802Y014447D02*
X007460Y014447D01*
X007460Y014348D02*
X007810Y014348D01*
X007851Y014250D02*
X007421Y014250D01*
X007322Y014151D02*
X007922Y014151D01*
X008056Y014053D02*
X007224Y014053D01*
X006676Y014053D02*
X004302Y014053D01*
X004504Y014151D02*
X006578Y014151D01*
X006479Y014250D02*
X004706Y014250D01*
X004908Y014348D02*
X006440Y014348D01*
X006440Y014447D02*
X005195Y014447D01*
X005499Y014545D02*
X006440Y014545D01*
X006440Y014644D02*
X005802Y014644D01*
X006279Y014742D02*
X006471Y014742D01*
X002764Y012969D02*
X011566Y012969D01*
X011573Y012871D02*
X002654Y012871D01*
X002272Y012477D02*
X013029Y012477D01*
X013124Y012378D02*
X002189Y012378D01*
X002106Y012280D02*
X013214Y012280D01*
X013285Y012181D02*
X002024Y012181D01*
X001941Y012083D02*
X013357Y012083D01*
X013428Y011984D02*
X001859Y011984D01*
X001780Y011886D02*
X013500Y011886D01*
X013572Y011787D02*
X001719Y011787D01*
X001657Y011689D02*
X013643Y011689D01*
X013715Y011590D02*
X001596Y011590D01*
X001534Y011492D02*
X013786Y011492D01*
X013840Y011393D02*
X001472Y011393D01*
X001411Y011295D02*
X013892Y011295D01*
X013944Y011196D02*
X001349Y011196D01*
X001288Y011098D02*
X013997Y011098D01*
X014049Y010999D02*
X001235Y010999D01*
X001191Y010901D02*
X014102Y010901D01*
X014154Y010802D02*
X001148Y010802D01*
X001104Y010704D02*
X013467Y010704D01*
X013700Y010704D02*
X013800Y010704D01*
X013800Y010605D02*
X013700Y010605D01*
X013700Y010507D02*
X013800Y010507D01*
X013800Y010408D02*
X013700Y010408D01*
X013800Y010310D02*
X014368Y010310D01*
X014332Y010408D02*
X014200Y010408D01*
X014200Y010507D02*
X014296Y010507D01*
X014259Y010605D02*
X014131Y010605D01*
X014206Y010704D02*
X014033Y010704D01*
X014200Y010211D02*
X014404Y010211D01*
X014440Y010113D02*
X014149Y010113D01*
X014050Y010014D02*
X014475Y010014D01*
X014511Y009916D02*
X013952Y009916D01*
X013040Y009423D02*
X010474Y009423D01*
X010560Y009325D02*
X013040Y009325D01*
X013040Y009226D02*
X010560Y009226D01*
X010560Y009128D02*
X013040Y009128D01*
X013040Y009029D02*
X010560Y009029D01*
X010560Y008931D02*
X013040Y008931D01*
X013040Y008832D02*
X010560Y008832D01*
X010577Y008734D02*
X013037Y008734D01*
X012982Y009522D02*
X010375Y009522D01*
X010338Y009620D02*
X011983Y009620D01*
X011940Y009719D02*
X010790Y009719D01*
X010888Y009817D02*
X011940Y009817D01*
X012019Y009916D02*
X010987Y009916D01*
X010738Y008635D02*
X010675Y008635D01*
X010144Y008241D02*
X010138Y008241D01*
X010046Y008143D02*
X008839Y008143D01*
X008810Y008044D02*
X009947Y008044D01*
X009940Y007946D02*
X008810Y007946D01*
X008810Y007847D02*
X009940Y007847D01*
X009940Y007749D02*
X008810Y007749D01*
X008810Y007650D02*
X009940Y007650D01*
X009940Y007551D02*
X008810Y007551D01*
X008800Y007453D02*
X009940Y007453D01*
X009940Y007354D02*
X008701Y007354D01*
X008680Y007256D02*
X009940Y007256D01*
X009996Y007157D02*
X008671Y007157D01*
X008630Y007059D02*
X011691Y007059D01*
X011593Y006960D02*
X009692Y006960D01*
X009767Y006862D02*
X011494Y006862D01*
X011396Y006763D02*
X010321Y006763D01*
X010437Y006665D02*
X011297Y006665D01*
X011199Y006566D02*
X010486Y006566D01*
X010505Y006468D02*
X011100Y006468D01*
X011002Y006369D02*
X010501Y006369D01*
X010460Y006271D02*
X010903Y006271D01*
X010849Y006172D02*
X010463Y006172D01*
X010504Y006074D02*
X010840Y006074D01*
X010840Y005975D02*
X010505Y005975D01*
X010150Y006000D02*
X010150Y005585D01*
X010050Y005385D01*
X010550Y005310D02*
X010600Y005360D01*
X010575Y005385D01*
X011100Y005360D02*
X011100Y006100D01*
X011985Y006985D01*
X013200Y006985D01*
X013885Y006985D01*
X014150Y007250D01*
X013640Y007256D02*
X013627Y007256D01*
X013640Y007354D02*
X013541Y007354D01*
X013640Y007453D02*
X010360Y007453D01*
X010360Y007551D02*
X013730Y007551D01*
X013829Y007650D02*
X010360Y007650D01*
X010360Y007749D02*
X012950Y007749D01*
X012859Y007354D02*
X010360Y007354D01*
X010360Y007256D02*
X012773Y007256D01*
X013350Y007749D02*
X013927Y007749D01*
X013591Y006665D02*
X014821Y006665D01*
X014150Y006150D02*
X013985Y006315D01*
X013200Y006315D01*
X011815Y006315D01*
X011650Y006150D01*
X011650Y005410D01*
X011600Y005360D01*
X011940Y005345D02*
X012085Y005345D01*
X012085Y005375D01*
X011940Y005375D01*
X011940Y005345D01*
X012085Y005345D02*
X012115Y005345D01*
X012115Y005210D01*
X012085Y005210D01*
X012085Y005345D01*
X012085Y005384D02*
X012115Y005384D01*
X012115Y005286D02*
X012085Y005286D01*
X012085Y005483D02*
X012115Y005483D01*
X012115Y005581D02*
X012085Y005581D01*
X012085Y005680D02*
X012115Y005680D01*
X012115Y005778D02*
X012085Y005778D01*
X012085Y005877D02*
X012115Y005877D01*
X012325Y005877D02*
X013702Y005877D01*
X013640Y005975D02*
X013571Y005975D01*
X013800Y005778D02*
X012380Y005778D01*
X012380Y005680D02*
X013899Y005680D01*
X012829Y005975D02*
X011910Y005975D01*
X011790Y007157D02*
X010304Y007157D01*
X009979Y006763D02*
X009805Y006763D01*
X009700Y006450D02*
X010150Y006450D01*
X009700Y006450D02*
X009450Y006700D01*
X009121Y006566D02*
X008030Y006566D01*
X008110Y006468D02*
X009180Y006468D01*
X009320Y006369D02*
X008110Y006369D01*
X008068Y006271D02*
X009511Y006271D01*
X009095Y006665D02*
X006733Y006665D01*
X006831Y006763D02*
X009095Y006763D01*
X009133Y006862D02*
X006930Y006862D01*
X006950Y007250D02*
X007150Y007250D01*
X006950Y007250D02*
X006050Y006350D01*
X006250Y006850D02*
X007050Y007650D01*
X007550Y007650D01*
X007950Y007650D01*
X008325Y007250D01*
X008538Y006960D02*
X009208Y006960D01*
X008112Y006960D02*
X007363Y006960D01*
X007455Y007059D02*
X008020Y007059D01*
X007979Y007157D02*
X007496Y007157D01*
X007505Y007256D02*
X007963Y007256D01*
X007871Y007354D02*
X007757Y007354D01*
X009133Y005778D02*
X003863Y005778D01*
X003958Y005680D02*
X009043Y005680D01*
X009043Y005581D02*
X004053Y005581D01*
X004148Y005483D02*
X009043Y005483D01*
X009043Y005384D02*
X004243Y005384D01*
X004338Y005286D02*
X009043Y005286D01*
X009043Y005187D02*
X004433Y005187D01*
X004528Y005089D02*
X009043Y005089D01*
X009114Y004990D02*
X004623Y004990D01*
X004718Y004892D02*
X006870Y004892D01*
X006771Y004793D02*
X004813Y004793D01*
X004908Y004695D02*
X006759Y004695D01*
X006759Y004596D02*
X005003Y004596D01*
X005098Y004498D02*
X006759Y004498D01*
X006759Y004399D02*
X005193Y004399D01*
X005288Y004301D02*
X006759Y004301D01*
X006759Y004202D02*
X005383Y004202D01*
X005479Y004104D02*
X006759Y004104D01*
X006759Y004005D02*
X005574Y004005D01*
X005669Y003907D02*
X006759Y003907D01*
X006769Y003808D02*
X005764Y003808D01*
X006550Y003075D02*
X006902Y003075D01*
X006938Y003111D01*
X006564Y002737D02*
X006337Y002737D01*
X006138Y002737D02*
X006564Y002737D01*
X007250Y003750D02*
X007450Y003750D01*
X007706Y003494D01*
X007706Y003111D01*
X007962Y003111D02*
X007962Y004232D01*
X007894Y004300D01*
X008241Y004301D02*
X010169Y004301D01*
X010098Y004399D02*
X010002Y004399D01*
X010002Y004498D02*
X010098Y004498D01*
X010098Y004596D02*
X010002Y004596D01*
X010002Y004667D02*
X009703Y004667D01*
X009498Y004667D01*
X009498Y004764D01*
X010002Y004764D01*
X010002Y004667D01*
X010002Y004695D02*
X009498Y004695D01*
X009402Y004695D02*
X008241Y004695D01*
X008241Y004596D02*
X009103Y004596D01*
X009103Y004498D02*
X008241Y004498D01*
X008241Y004399D02*
X009140Y004399D01*
X009402Y004399D02*
X009498Y004399D01*
X009498Y004498D02*
X009402Y004498D01*
X009402Y004596D02*
X009498Y004596D01*
X009103Y004793D02*
X008229Y004793D01*
X008130Y004892D02*
X009103Y004892D01*
X009874Y004005D02*
X008241Y004005D01*
X008241Y003907D02*
X009775Y003907D01*
X009677Y003808D02*
X008231Y003808D01*
X008222Y003710D02*
X009633Y003710D01*
X009630Y003611D02*
X008222Y003611D01*
X008222Y003513D02*
X008461Y003513D01*
X008369Y003414D02*
X008222Y003414D01*
X008235Y003316D02*
X008328Y003316D01*
X008320Y003217D02*
X008241Y003217D01*
X008241Y003119D02*
X008335Y003119D01*
X008377Y003020D02*
X008241Y003020D01*
X008675Y003225D02*
X009250Y003225D01*
X009597Y003316D02*
X009630Y003316D01*
X009630Y003414D02*
X009556Y003414D01*
X009630Y003513D02*
X009464Y003513D01*
X009036Y003513D02*
X008889Y003513D01*
X008241Y004104D02*
X009972Y004104D01*
X010071Y004202D02*
X008241Y004202D01*
X007519Y004399D02*
X007481Y004399D01*
X007481Y004498D02*
X007519Y004498D01*
X007519Y004596D02*
X007481Y004596D01*
X007481Y004695D02*
X007519Y004695D01*
X007519Y004793D02*
X007481Y004793D01*
X007343Y004892D02*
X007657Y004892D01*
X007106Y004300D02*
X007106Y003894D01*
X007250Y003750D01*
X008896Y002481D02*
X008965Y002550D01*
X009586Y002429D02*
X009683Y002429D01*
X009683Y002331D02*
X009586Y002331D01*
X009586Y002232D02*
X009683Y002232D01*
X008745Y001740D02*
X008723Y001740D01*
X010360Y007847D02*
X010643Y007847D01*
X010544Y007946D02*
X010442Y007946D01*
X008683Y009620D02*
X006667Y009620D01*
X006710Y009719D02*
X008640Y009719D01*
X008640Y009817D02*
X006710Y009817D01*
X006631Y009916D02*
X008719Y009916D01*
X002672Y003907D02*
X002228Y003907D01*
X002327Y004005D02*
X002573Y004005D01*
X002475Y004104D02*
X002425Y004104D01*
D20*
X008336Y002481D02*
X008896Y002481D01*
X008965Y002550D02*
X008965Y002765D01*
X009150Y002950D01*
X009750Y002950D01*
X009900Y003100D01*
X009900Y003650D01*
X010550Y004300D01*
X010550Y005310D01*
X010575Y005385D02*
X010050Y005385D01*
X009450Y005385D01*
D21*
X010850Y008050D02*
X013150Y008050D01*
X010850Y008050D02*
X009950Y008950D01*
M02*
