G75*
G70*
%OFA0B0*%
%FSLAX24Y24*%
%IPPOS*%
%LPD*%
%AMOC8*
5,1,8,0,0,1.08239X$1,22.5*
%
%ADD10C,0.0100*%
D10*
X000150Y007650D02*
X000159Y008018D01*
X000186Y008385D01*
X000231Y008750D01*
X000294Y009113D01*
X000375Y009472D01*
X000473Y009827D01*
X000588Y010177D01*
X000721Y010520D01*
X000870Y010857D01*
X001036Y011185D01*
X001217Y011506D01*
X001414Y011817D01*
X001626Y012118D01*
X001852Y012408D01*
X002093Y012687D01*
X002347Y012953D01*
X002613Y013207D01*
X002892Y013448D01*
X003182Y013674D01*
X003483Y013886D01*
X003794Y014083D01*
X004115Y014264D01*
X004443Y014430D01*
X004780Y014579D01*
X005123Y014712D01*
X005473Y014827D01*
X005828Y014925D01*
X006187Y015006D01*
X006550Y015069D01*
X006915Y015114D01*
X007282Y015141D01*
X007650Y015150D01*
X008018Y015141D01*
X008385Y015114D01*
X008750Y015069D01*
X009113Y015006D01*
X009472Y014925D01*
X009827Y014827D01*
X010177Y014712D01*
X010520Y014579D01*
X010857Y014430D01*
X011185Y014264D01*
X011506Y014083D01*
X011817Y013886D01*
X012118Y013674D01*
X012408Y013448D01*
X012687Y013207D01*
X012953Y012953D01*
X013207Y012687D01*
X013448Y012408D01*
X013674Y012118D01*
X013886Y011817D01*
X014083Y011506D01*
X014264Y011185D01*
X014430Y010857D01*
X014579Y010520D01*
X014712Y010177D01*
X014827Y009827D01*
X014925Y009472D01*
X015006Y009113D01*
X015069Y008750D01*
X015114Y008385D01*
X015141Y008018D01*
X015150Y007650D01*
X015141Y007282D01*
X015114Y006915D01*
X015069Y006550D01*
X015006Y006187D01*
X014925Y005828D01*
X014827Y005473D01*
X014712Y005123D01*
X014579Y004780D01*
X014430Y004443D01*
X014264Y004115D01*
X014083Y003794D01*
X013886Y003483D01*
X013674Y003182D01*
X013448Y002892D01*
X013207Y002613D01*
X012953Y002347D01*
X012687Y002093D01*
X012408Y001852D01*
X012118Y001626D01*
X011817Y001414D01*
X011506Y001217D01*
X011185Y001036D01*
X010857Y000870D01*
X010520Y000721D01*
X010177Y000588D01*
X009827Y000473D01*
X009472Y000375D01*
X009113Y000294D01*
X008750Y000231D01*
X008385Y000186D01*
X008018Y000159D01*
X007650Y000150D01*
X007282Y000159D01*
X006915Y000186D01*
X006550Y000231D01*
X006187Y000294D01*
X005828Y000375D01*
X005473Y000473D01*
X005123Y000588D01*
X004780Y000721D01*
X004443Y000870D01*
X004115Y001036D01*
X003794Y001217D01*
X003483Y001414D01*
X003182Y001626D01*
X002892Y001852D01*
X002613Y002093D01*
X002347Y002347D01*
X002093Y002613D01*
X001852Y002892D01*
X001626Y003182D01*
X001414Y003483D01*
X001217Y003794D01*
X001036Y004115D01*
X000870Y004443D01*
X000721Y004780D01*
X000588Y005123D01*
X000473Y005473D01*
X000375Y005828D01*
X000294Y006187D01*
X000231Y006550D01*
X000186Y006915D01*
X000159Y007282D01*
X000150Y007650D01*
M02*
