G75*
G70*
%OFA0B0*%
%FSLAX24Y24*%
%IPPOS*%
%LPD*%
%AMOC8*
5,1,8,0,0,1.08239X$1,22.5*
%
%ADD10C,0.0100*%
%ADD11C,0.0060*%
%ADD12C,0.0020*%
%ADD13C,0.0087*%
%ADD14C,0.0050*%
D10*
X006515Y001418D02*
X006643Y001290D01*
X006781Y001615D02*
X006783Y001630D01*
X006788Y001643D01*
X006797Y001655D01*
X006808Y001665D01*
X006822Y001671D01*
X006836Y001674D01*
X006851Y001673D01*
X006865Y001668D01*
X006878Y001660D01*
X006888Y001650D01*
X006895Y001637D01*
X006899Y001622D01*
X006899Y001608D01*
X006895Y001593D01*
X006888Y001580D01*
X006878Y001570D01*
X006865Y001562D01*
X006851Y001557D01*
X006836Y001556D01*
X006822Y001559D01*
X006808Y001565D01*
X006797Y001575D01*
X006788Y001587D01*
X006783Y001600D01*
X006781Y001615D01*
X006515Y003032D02*
X006643Y003160D01*
X008257Y003160D02*
X008385Y003032D01*
X008385Y001418D02*
X008257Y001290D01*
X000150Y007650D02*
X000159Y008018D01*
X000186Y008385D01*
X000231Y008750D01*
X000294Y009113D01*
X000375Y009472D01*
X000473Y009827D01*
X000588Y010177D01*
X000721Y010520D01*
X000870Y010857D01*
X001036Y011185D01*
X001217Y011506D01*
X001414Y011817D01*
X001626Y012118D01*
X001852Y012408D01*
X002093Y012687D01*
X002347Y012953D01*
X002613Y013207D01*
X002892Y013448D01*
X003182Y013674D01*
X003483Y013886D01*
X003794Y014083D01*
X004115Y014264D01*
X004443Y014430D01*
X004780Y014579D01*
X005123Y014712D01*
X005473Y014827D01*
X005828Y014925D01*
X006187Y015006D01*
X006550Y015069D01*
X006915Y015114D01*
X007282Y015141D01*
X007650Y015150D01*
X008018Y015141D01*
X008385Y015114D01*
X008750Y015069D01*
X009113Y015006D01*
X009472Y014925D01*
X009827Y014827D01*
X010177Y014712D01*
X010520Y014579D01*
X010857Y014430D01*
X011185Y014264D01*
X011506Y014083D01*
X011817Y013886D01*
X012118Y013674D01*
X012408Y013448D01*
X012687Y013207D01*
X012953Y012953D01*
X013207Y012687D01*
X013448Y012408D01*
X013674Y012118D01*
X013886Y011817D01*
X014083Y011506D01*
X014264Y011185D01*
X014430Y010857D01*
X014579Y010520D01*
X014712Y010177D01*
X014827Y009827D01*
X014925Y009472D01*
X015006Y009113D01*
X015069Y008750D01*
X015114Y008385D01*
X015141Y008018D01*
X015150Y007650D01*
X015141Y007282D01*
X015114Y006915D01*
X015069Y006550D01*
X015006Y006187D01*
X014925Y005828D01*
X014827Y005473D01*
X014712Y005123D01*
X014579Y004780D01*
X014430Y004443D01*
X014264Y004115D01*
X014083Y003794D01*
X013886Y003483D01*
X013674Y003182D01*
X013448Y002892D01*
X013207Y002613D01*
X012953Y002347D01*
X012687Y002093D01*
X012408Y001852D01*
X012118Y001626D01*
X011817Y001414D01*
X011506Y001217D01*
X011185Y001036D01*
X010857Y000870D01*
X010520Y000721D01*
X010177Y000588D01*
X009827Y000473D01*
X009472Y000375D01*
X009113Y000294D01*
X008750Y000231D01*
X008385Y000186D01*
X008018Y000159D01*
X007650Y000150D01*
X007282Y000159D01*
X006915Y000186D01*
X006550Y000231D01*
X006187Y000294D01*
X005828Y000375D01*
X005473Y000473D01*
X005123Y000588D01*
X004780Y000721D01*
X004443Y000870D01*
X004115Y001036D01*
X003794Y001217D01*
X003483Y001414D01*
X003182Y001626D01*
X002892Y001852D01*
X002613Y002093D01*
X002347Y002347D01*
X002093Y002613D01*
X001852Y002892D01*
X001626Y003182D01*
X001414Y003483D01*
X001217Y003794D01*
X001036Y004115D01*
X000870Y004443D01*
X000721Y004780D01*
X000588Y005123D01*
X000473Y005473D01*
X000375Y005828D01*
X000294Y006187D01*
X000231Y006550D01*
X000186Y006915D01*
X000159Y007282D01*
X000150Y007650D01*
D11*
X001450Y006600D02*
X001700Y006850D01*
X003200Y006850D01*
X003450Y006600D01*
X003450Y006100D01*
X003200Y005850D01*
X001700Y005850D01*
X001450Y006100D01*
X001450Y006600D01*
X001700Y005850D02*
X001450Y005600D01*
X001450Y005100D01*
X001700Y004850D01*
X003200Y004850D01*
X003450Y005100D01*
X003450Y005600D01*
X003200Y005850D01*
X003200Y004850D02*
X003450Y004600D01*
X003450Y004100D01*
X003200Y003850D01*
X001700Y003850D01*
X001450Y004100D01*
X001450Y004600D01*
X001700Y004850D01*
X004500Y009650D02*
X005000Y009650D01*
X005250Y009900D01*
X005250Y010400D01*
X005000Y010650D01*
X004500Y010650D01*
X004250Y010400D01*
X004250Y009900D01*
X004500Y009650D01*
X005430Y011280D02*
X005657Y011507D01*
X005657Y011564D01*
X005600Y011620D01*
X005487Y011620D01*
X005430Y011564D01*
X005430Y011280D02*
X005657Y011280D01*
X005798Y011337D02*
X005798Y011564D01*
X005855Y011620D01*
X005968Y011620D01*
X006025Y011564D01*
X005798Y011337D01*
X005855Y011280D01*
X005968Y011280D01*
X006025Y011337D01*
X006025Y011564D01*
X006167Y011507D02*
X006280Y011620D01*
X006280Y011280D01*
X006167Y011280D02*
X006393Y011280D01*
X006535Y011450D02*
X006762Y011450D01*
X006903Y011450D02*
X007130Y011450D01*
X007272Y011337D02*
X007498Y011564D01*
X007498Y011337D01*
X007442Y011280D01*
X007328Y011280D01*
X007272Y011337D01*
X007272Y011564D01*
X007328Y011620D01*
X007442Y011620D01*
X007498Y011564D01*
X007640Y011620D02*
X007867Y011620D01*
X007867Y011564D01*
X007640Y011337D01*
X007640Y011280D01*
X008008Y011450D02*
X008235Y011450D01*
X008377Y011507D02*
X008490Y011620D01*
X008490Y011280D01*
X008377Y011280D02*
X008603Y011280D01*
X008745Y011337D02*
X008802Y011280D01*
X008915Y011280D01*
X008972Y011337D01*
X008972Y011564D01*
X008915Y011620D01*
X008802Y011620D01*
X008745Y011564D01*
X008745Y011507D01*
X008802Y011450D01*
X008972Y011450D01*
X009481Y011507D02*
X009595Y011280D01*
X009708Y011507D01*
X009850Y011564D02*
X009906Y011620D01*
X010020Y011620D01*
X010077Y011564D01*
X010077Y011507D01*
X009850Y011280D01*
X010077Y011280D01*
X010250Y010650D02*
X010000Y010400D01*
X010000Y009900D01*
X010250Y009650D01*
X010750Y009650D01*
X011000Y009900D01*
X011000Y010400D01*
X010750Y010650D01*
X010250Y010650D01*
X010216Y012080D02*
X010329Y012193D01*
X010329Y012420D01*
X010102Y012420D02*
X010102Y012193D01*
X010216Y012080D01*
X009961Y012137D02*
X009961Y012364D01*
X009904Y012420D01*
X009791Y012420D01*
X009734Y012364D01*
X009734Y012137D01*
X009791Y012080D01*
X009904Y012080D01*
X009961Y012137D01*
X009592Y012080D02*
X009479Y012193D01*
X009536Y012193D02*
X009366Y012193D01*
X009366Y012080D02*
X009366Y012420D01*
X009536Y012420D01*
X009592Y012364D01*
X009592Y012250D01*
X009536Y012193D01*
X009606Y012830D02*
X009436Y012943D01*
X009606Y013057D01*
X009743Y013057D02*
X009800Y013057D01*
X009800Y012830D01*
X009856Y012830D02*
X009743Y012830D01*
X009436Y012830D02*
X009436Y013170D01*
X009294Y013057D02*
X009124Y013057D01*
X009068Y013000D01*
X009124Y012943D01*
X009238Y012943D01*
X009294Y012887D01*
X009238Y012830D01*
X009068Y012830D01*
X008926Y012887D02*
X008926Y013000D01*
X008869Y013057D01*
X008756Y013057D01*
X008699Y013000D01*
X008699Y012887D01*
X008756Y012830D01*
X008869Y012830D01*
X008926Y012887D01*
X008856Y012420D02*
X008629Y012420D01*
X008629Y012080D01*
X008856Y012080D01*
X008742Y012250D02*
X008629Y012250D01*
X008488Y012080D02*
X008261Y012080D01*
X008261Y012420D01*
X008488Y012420D01*
X008374Y012250D02*
X008261Y012250D01*
X008119Y012080D02*
X007892Y012080D01*
X007892Y012420D01*
X008119Y012420D01*
X008006Y012250D02*
X007892Y012250D01*
X007760Y012080D02*
X007647Y012080D01*
X007704Y012080D02*
X007704Y012420D01*
X007760Y012420D02*
X007647Y012420D01*
X007698Y012830D02*
X007698Y013170D01*
X007840Y013057D02*
X007897Y013057D01*
X007897Y012830D01*
X007953Y012830D02*
X007840Y012830D01*
X007698Y012830D02*
X007585Y012943D01*
X007472Y012830D01*
X007472Y013170D01*
X007897Y013170D02*
X007897Y013227D01*
X008085Y013000D02*
X008142Y013057D01*
X008312Y013057D01*
X008312Y013170D02*
X008312Y012830D01*
X008142Y012830D01*
X008085Y012887D01*
X008085Y013000D01*
X008454Y012830D02*
X008567Y012830D01*
X008510Y012830D02*
X008510Y013170D01*
X008454Y013170D01*
X007450Y014250D02*
X007200Y014000D01*
X006700Y014000D01*
X006450Y014250D01*
X006450Y014750D01*
X006700Y015000D01*
X007200Y015000D01*
X007450Y014750D01*
X007450Y014250D01*
X006905Y013057D02*
X006735Y013057D01*
X006735Y012830D01*
X006593Y012830D02*
X006593Y013000D01*
X006537Y013057D01*
X006423Y013057D01*
X006423Y012943D02*
X006593Y012943D01*
X006593Y012830D02*
X006423Y012830D01*
X006367Y012887D01*
X006423Y012943D01*
X006225Y013057D02*
X006112Y012830D01*
X005998Y013057D01*
X005857Y013170D02*
X005630Y013170D01*
X005630Y012830D01*
X005857Y012830D01*
X005743Y013000D02*
X005630Y013000D01*
X005300Y012420D02*
X005130Y012420D01*
X005130Y012080D01*
X005130Y012193D02*
X005300Y012193D01*
X005357Y012250D01*
X005357Y012364D01*
X005300Y012420D01*
X005498Y012307D02*
X005498Y012137D01*
X005555Y012080D01*
X005725Y012080D01*
X005725Y012307D01*
X005867Y012307D02*
X005867Y012080D01*
X005867Y012193D02*
X005980Y012307D01*
X006037Y012307D01*
X006174Y012250D02*
X006174Y012137D01*
X006230Y012080D01*
X006400Y012080D01*
X006400Y012420D01*
X006400Y012307D02*
X006230Y012307D01*
X006174Y012250D01*
X006542Y012307D02*
X006542Y012137D01*
X006599Y012080D01*
X006769Y012080D01*
X006769Y012307D01*
X006910Y012250D02*
X006910Y012137D01*
X006967Y012080D01*
X007080Y012080D01*
X007137Y012193D02*
X006910Y012193D01*
X006910Y012250D02*
X006967Y012307D01*
X007080Y012307D01*
X007137Y012250D01*
X007137Y012193D01*
X006705Y011620D02*
X006535Y011450D01*
X006705Y011280D02*
X006705Y011620D01*
X006962Y012830D02*
X006962Y013000D01*
X006905Y013057D01*
X009800Y013170D02*
X009800Y013227D01*
X013250Y010600D02*
X013250Y010100D01*
X013500Y009850D01*
X014000Y009850D01*
X014250Y010100D01*
X014250Y010600D01*
X014000Y010850D01*
X013500Y010850D01*
X013250Y010600D01*
X013900Y007750D02*
X013650Y007500D01*
X013650Y007000D01*
X013900Y006750D01*
X014400Y006750D01*
X014650Y007000D01*
X014650Y007500D01*
X014400Y007750D01*
X013900Y007750D01*
X013900Y006650D02*
X013650Y006400D01*
X013650Y005900D01*
X013900Y005650D01*
X014400Y005650D01*
X014650Y005900D01*
X014650Y006400D01*
X014400Y006650D01*
X013900Y006650D01*
X012200Y004920D02*
X010500Y004920D01*
X010477Y004918D01*
X010454Y004913D01*
X010432Y004904D01*
X010412Y004891D01*
X010394Y004876D01*
X010379Y004858D01*
X010366Y004838D01*
X010357Y004816D01*
X010352Y004793D01*
X010350Y004770D01*
X010350Y004350D01*
X010350Y003950D01*
X010350Y003530D01*
X010352Y003507D01*
X010357Y003484D01*
X010366Y003462D01*
X010379Y003442D01*
X010394Y003424D01*
X010412Y003409D01*
X010432Y003396D01*
X010454Y003387D01*
X010477Y003382D01*
X010500Y003380D01*
X012200Y003380D01*
X012223Y003382D01*
X012246Y003387D01*
X012268Y003396D01*
X012288Y003409D01*
X012306Y003424D01*
X012321Y003442D01*
X012334Y003462D01*
X012343Y003484D01*
X012348Y003507D01*
X012350Y003530D01*
X012350Y004770D01*
X012348Y004793D01*
X012343Y004816D01*
X012334Y004838D01*
X012321Y004858D01*
X012306Y004876D01*
X012288Y004891D01*
X012268Y004904D01*
X012246Y004913D01*
X012223Y004918D01*
X012200Y004920D01*
X010350Y004350D02*
X010377Y004348D01*
X010404Y004343D01*
X010430Y004333D01*
X010454Y004321D01*
X010476Y004305D01*
X010496Y004287D01*
X010513Y004265D01*
X010528Y004242D01*
X010538Y004217D01*
X010546Y004191D01*
X010550Y004164D01*
X010550Y004136D01*
X010546Y004109D01*
X010538Y004083D01*
X010528Y004058D01*
X010513Y004035D01*
X010496Y004013D01*
X010476Y003995D01*
X010454Y003979D01*
X010430Y003967D01*
X010404Y003957D01*
X010377Y003952D01*
X010350Y003950D01*
D12*
X002244Y003520D02*
X002171Y003520D01*
X002207Y003520D02*
X002207Y003740D01*
X002171Y003740D02*
X002244Y003740D01*
X002318Y003703D02*
X002318Y003667D01*
X002355Y003630D01*
X002428Y003630D01*
X002465Y003593D01*
X002465Y003557D01*
X002428Y003520D01*
X002355Y003520D01*
X002318Y003557D01*
X002318Y003703D02*
X002355Y003740D01*
X002428Y003740D01*
X002465Y003703D01*
X002539Y003740D02*
X002649Y003740D01*
X002686Y003703D01*
X002686Y003630D01*
X002649Y003593D01*
X002539Y003593D01*
X002539Y003520D02*
X002539Y003740D01*
X003610Y004260D02*
X003757Y004260D01*
X003683Y004260D02*
X003683Y004480D01*
X003610Y004407D01*
X006289Y004472D02*
X006362Y004399D01*
X006362Y004289D01*
X006362Y004399D02*
X006436Y004472D01*
X006436Y004509D01*
X006510Y004435D02*
X006583Y004509D01*
X006583Y004289D01*
X006510Y004289D02*
X006657Y004289D01*
X006289Y004472D02*
X006289Y004509D01*
X009320Y004312D02*
X009320Y004239D01*
X009357Y004202D01*
X009503Y004202D01*
X009357Y004349D01*
X009503Y004349D01*
X009540Y004312D01*
X009540Y004239D01*
X009503Y004202D01*
X009540Y004128D02*
X009540Y003981D01*
X009540Y004054D02*
X009320Y004054D01*
X009393Y003981D01*
X009357Y003907D02*
X009320Y003870D01*
X009320Y003797D01*
X009357Y003760D01*
X009503Y003760D01*
X009540Y003797D01*
X009540Y003870D01*
X009503Y003907D01*
X009320Y004312D02*
X009357Y004349D01*
X009960Y004224D02*
X009960Y004151D01*
X009997Y004114D01*
X010033Y004114D01*
X010070Y004151D01*
X010070Y004261D01*
X010143Y004261D02*
X009997Y004261D01*
X009960Y004224D01*
X010143Y004261D02*
X010180Y004224D01*
X010180Y004151D01*
X010143Y004114D01*
X010143Y004040D02*
X010180Y004003D01*
X010180Y003930D01*
X010143Y003893D01*
X009997Y003893D01*
X009960Y003930D01*
X009960Y004003D01*
X009997Y004040D01*
X010350Y003520D02*
X012350Y003520D01*
X011475Y004110D02*
X011328Y004110D01*
X011475Y004257D01*
X011475Y004293D01*
X011438Y004330D01*
X011365Y004330D01*
X011328Y004293D01*
X011254Y004293D02*
X011217Y004330D01*
X011144Y004330D01*
X011107Y004293D01*
X011107Y004147D01*
X011144Y004110D01*
X011217Y004110D01*
X011254Y004147D01*
X011033Y004110D02*
X010960Y004110D01*
X010997Y004110D02*
X010997Y004330D01*
X011033Y004330D02*
X010960Y004330D01*
X012620Y006310D02*
X012620Y006420D01*
X012657Y006457D01*
X012730Y006457D01*
X012767Y006420D01*
X012767Y006310D01*
X012840Y006310D02*
X012620Y006310D01*
X012767Y006383D02*
X012840Y006457D01*
X012840Y006531D02*
X012840Y006678D01*
X012840Y006604D02*
X012620Y006604D01*
X012693Y006531D01*
X012657Y006752D02*
X012620Y006789D01*
X012620Y006862D01*
X012657Y006899D01*
X012693Y006899D01*
X012840Y006752D01*
X012840Y006899D01*
X013530Y006727D02*
X013530Y006580D01*
X013530Y006690D02*
X013677Y006690D01*
X013677Y006727D02*
X013677Y006580D01*
X013677Y006727D02*
X013603Y006800D01*
X013530Y006727D01*
X013530Y007680D02*
X013640Y007680D01*
X013677Y007717D01*
X013677Y007753D01*
X013640Y007790D01*
X013530Y007790D01*
X013530Y007680D02*
X013530Y007900D01*
X013640Y007900D01*
X013677Y007863D01*
X013677Y007827D01*
X013640Y007790D01*
X013332Y009730D02*
X013222Y009730D01*
X013222Y009950D01*
X013332Y009950D01*
X013369Y009913D01*
X013369Y009767D01*
X013332Y009730D01*
X013148Y009730D02*
X013148Y009950D01*
X013001Y009950D02*
X013148Y009730D01*
X013001Y009730D02*
X013001Y009950D01*
X012927Y009913D02*
X012890Y009950D01*
X012817Y009950D01*
X012780Y009913D01*
X012780Y009767D01*
X012817Y009730D01*
X012890Y009730D01*
X012927Y009767D01*
X012927Y009840D01*
X012853Y009840D01*
X011920Y012210D02*
X011957Y012247D01*
X011920Y012210D02*
X011847Y012210D01*
X011810Y012247D01*
X011810Y012393D01*
X011847Y012430D01*
X011920Y012430D01*
X011957Y012393D01*
X012031Y012320D02*
X012178Y012320D01*
X010698Y009290D02*
X010551Y009290D01*
X010477Y009400D02*
X010477Y009180D01*
X010330Y009180D02*
X010330Y009400D01*
X010403Y009327D01*
X010477Y009400D01*
X008404Y013497D02*
X008404Y013643D01*
X008331Y013570D02*
X008478Y013570D01*
X008257Y013497D02*
X008220Y013460D01*
X008147Y013460D01*
X008110Y013497D01*
X008110Y013643D01*
X008147Y013680D01*
X008220Y013680D01*
X008257Y013643D01*
X007148Y013590D02*
X007001Y013590D01*
X006927Y013553D02*
X006927Y013700D01*
X006927Y013553D02*
X006853Y013480D01*
X006780Y013553D01*
X006780Y013700D01*
X007074Y013663D02*
X007074Y013517D01*
X004824Y009463D02*
X004824Y009317D01*
X004751Y009390D02*
X004898Y009390D01*
X004677Y009500D02*
X004677Y009280D01*
X004530Y009280D02*
X004530Y009500D01*
X004603Y009427D01*
X004677Y009500D01*
X002586Y007840D02*
X002439Y007840D01*
X002439Y007730D01*
X002512Y007767D01*
X002549Y007767D01*
X002586Y007730D01*
X002586Y007657D01*
X002549Y007620D01*
X002476Y007620D01*
X002439Y007657D01*
X002365Y007620D02*
X002291Y007693D01*
X002328Y007693D02*
X002218Y007693D01*
X002218Y007620D02*
X002218Y007840D01*
X002328Y007840D01*
X002365Y007803D01*
X002365Y007730D01*
X002328Y007693D01*
X007185Y001080D02*
X007258Y001080D01*
X007222Y001080D02*
X007222Y000860D01*
X007258Y000860D02*
X007185Y000860D01*
X007332Y000897D02*
X007332Y001043D01*
X007369Y001080D01*
X007442Y001080D01*
X007479Y001043D01*
X007553Y001007D02*
X007627Y001080D01*
X007627Y000860D01*
X007700Y000860D02*
X007553Y000860D01*
X007479Y000897D02*
X007442Y000860D01*
X007369Y000860D01*
X007332Y000897D01*
X009260Y001997D02*
X009297Y001960D01*
X009370Y001960D01*
X009407Y001997D01*
X009481Y001997D02*
X009481Y002033D01*
X009518Y002070D01*
X009591Y002070D01*
X009628Y002033D01*
X009628Y001997D01*
X009591Y001960D01*
X009518Y001960D01*
X009481Y001997D01*
X009518Y002070D02*
X009481Y002107D01*
X009481Y002143D01*
X009518Y002180D01*
X009591Y002180D01*
X009628Y002143D01*
X009628Y002107D01*
X009591Y002070D01*
X009407Y002143D02*
X009370Y002180D01*
X009297Y002180D01*
X009260Y002143D01*
X009260Y001997D01*
X009897Y002018D02*
X010007Y002018D01*
X010044Y002055D01*
X010044Y002128D01*
X010007Y002165D01*
X009897Y002165D01*
X009897Y001945D01*
X009970Y002018D02*
X010044Y001945D01*
X010118Y001945D02*
X010265Y001945D01*
X010191Y001945D02*
X010191Y002165D01*
X010118Y002092D01*
X010339Y002128D02*
X010376Y002165D01*
X010449Y002165D01*
X010486Y002128D01*
X010486Y002092D01*
X010449Y002055D01*
X010486Y002018D01*
X010486Y001982D01*
X010449Y001945D01*
X010376Y001945D01*
X010339Y001982D01*
X010412Y002055D02*
X010449Y002055D01*
D13*
X008130Y003985D02*
X008130Y004615D01*
X006870Y004615D02*
X006870Y003985D01*
D14*
X007689Y014456D02*
X007691Y014503D01*
X007697Y014549D01*
X007707Y014595D01*
X007720Y014640D01*
X007737Y014683D01*
X007758Y014725D01*
X007782Y014765D01*
X007810Y014803D01*
X007841Y014839D01*
X007874Y014871D01*
X007910Y014901D01*
X007948Y014928D01*
X007989Y014951D01*
X008031Y014971D01*
X008075Y014988D01*
X008120Y015000D01*
X008166Y015009D01*
X008213Y015014D01*
X008260Y015015D01*
X008306Y015012D01*
X008353Y015005D01*
X008398Y014994D01*
X008443Y014980D01*
X008486Y014962D01*
X008527Y014940D01*
X008567Y014915D01*
X008604Y014887D01*
X008639Y014855D01*
X008671Y014821D01*
X008700Y014785D01*
X008726Y014746D01*
X008749Y014705D01*
X008768Y014662D01*
X008783Y014618D01*
X008795Y014572D01*
X008803Y014526D01*
X008807Y014479D01*
X008807Y014433D01*
X008803Y014386D01*
X008795Y014340D01*
X008783Y014294D01*
X008768Y014250D01*
X008749Y014207D01*
X008726Y014166D01*
X008700Y014127D01*
X008671Y014091D01*
X008639Y014057D01*
X008604Y014025D01*
X008567Y013997D01*
X008528Y013972D01*
X008486Y013950D01*
X008443Y013932D01*
X008398Y013918D01*
X008353Y013907D01*
X008306Y013900D01*
X008260Y013897D01*
X008213Y013898D01*
X008166Y013903D01*
X008120Y013912D01*
X008075Y013924D01*
X008031Y013941D01*
X007989Y013961D01*
X007948Y013984D01*
X007910Y014011D01*
X007874Y014041D01*
X007841Y014073D01*
X007810Y014109D01*
X007782Y014147D01*
X007758Y014187D01*
X007737Y014229D01*
X007720Y014272D01*
X007707Y014317D01*
X007697Y014363D01*
X007691Y014409D01*
X007689Y014456D01*
M02*
