G75*
G70*
%OFA0B0*%
%FSLAX24Y24*%
%IPPOS*%
%LPD*%
%AMOC8*
5,1,8,0,0,1.08239X$1,22.5*
%
%ADD10C,0.0060*%
%ADD11C,0.0020*%
%ADD12R,0.0470X0.0200*%
%ADD13C,0.0040*%
%ADD14C,0.0000*%
%ADD15C,0.0080*%
%ADD16C,0.0315*%
%ADD17R,0.0434X0.0572*%
%ADD18R,0.0336X0.0336*%
%ADD19R,0.0375X0.0375*%
%ADD20R,0.0336X0.0336*%
%ADD21R,0.0375X0.0375*%
%ADD22C,0.0600*%
%ADD23OC8,0.0680*%
%ADD24C,0.0050*%
%ADD25R,0.0780X0.2080*%
%ADD26R,0.0513X0.0474*%
%ADD27R,0.0474X0.0513*%
%ADD28C,0.0440*%
D10*
X007013Y005764D02*
X008810Y005764D01*
X008810Y009536D01*
X007013Y009536D01*
X007013Y005764D01*
X007251Y006242D02*
X007253Y006268D01*
X007259Y006294D01*
X007268Y006318D01*
X007281Y006341D01*
X007297Y006362D01*
X007316Y006380D01*
X007337Y006396D01*
X007361Y006408D01*
X007385Y006416D01*
X007411Y006421D01*
X007438Y006422D01*
X007464Y006419D01*
X007489Y006412D01*
X007513Y006402D01*
X007536Y006388D01*
X007556Y006372D01*
X007573Y006352D01*
X007588Y006330D01*
X007599Y006306D01*
X007607Y006281D01*
X007611Y006255D01*
X007611Y006229D01*
X007607Y006203D01*
X007599Y006178D01*
X007588Y006154D01*
X007573Y006132D01*
X007556Y006112D01*
X007536Y006096D01*
X007513Y006082D01*
X007489Y006072D01*
X007464Y006065D01*
X007438Y006062D01*
X007411Y006063D01*
X007385Y006068D01*
X007361Y006076D01*
X007337Y006088D01*
X007316Y006104D01*
X007297Y006122D01*
X007281Y006143D01*
X007268Y006166D01*
X007259Y006190D01*
X007253Y006216D01*
X007251Y006242D01*
D11*
X007103Y005854D02*
X008720Y005854D01*
X008720Y009446D01*
X007103Y009446D01*
X007103Y005854D01*
X007881Y005687D02*
X007881Y004913D01*
X009041Y004913D01*
X009041Y005687D01*
X007881Y005687D01*
X009424Y006820D02*
X010198Y006820D01*
X010198Y007980D01*
X009424Y007980D01*
X009424Y006820D01*
X009581Y006787D02*
X009581Y006013D01*
X010741Y006013D01*
X010741Y006787D01*
X009581Y006787D01*
X010074Y006820D02*
X010848Y006820D01*
X010848Y007980D01*
X010074Y007980D01*
X010074Y006820D01*
X010098Y008320D02*
X009324Y008320D01*
X009324Y009480D01*
X010098Y009480D01*
X010098Y008320D01*
X006291Y008863D02*
X006291Y009637D01*
X005131Y009637D01*
X005131Y008863D01*
X006291Y008863D01*
X006241Y008787D02*
X005081Y008787D01*
X005081Y008013D01*
X006241Y008013D01*
X006241Y008787D01*
X006241Y008187D02*
X006241Y007413D01*
X005081Y007413D01*
X005081Y008187D01*
X006241Y008187D01*
X006241Y007637D02*
X005081Y007637D01*
X005081Y006863D01*
X006241Y006863D01*
X006241Y007637D01*
X006291Y009463D02*
X005131Y009463D01*
X005131Y010237D01*
X006291Y010237D01*
X006291Y009463D01*
D12*
X006763Y009313D03*
X006763Y009057D03*
X006763Y008802D03*
X006763Y008546D03*
X006763Y008290D03*
X006763Y008034D03*
X006763Y007778D03*
X006763Y007522D03*
X006763Y007266D03*
X006763Y007010D03*
X006763Y006754D03*
X006763Y006498D03*
X006763Y006243D03*
X006763Y005987D03*
X009060Y005987D03*
X009060Y006243D03*
X009060Y006498D03*
X009060Y006754D03*
X009060Y007010D03*
X009060Y007266D03*
X009060Y007522D03*
X009060Y007778D03*
X009060Y008034D03*
X009060Y008290D03*
X009060Y008546D03*
X009060Y008802D03*
X009060Y009057D03*
X009060Y009313D03*
D13*
X009905Y008977D02*
X009905Y008670D01*
X010158Y008398D02*
X010081Y008321D01*
X010081Y008168D01*
X010158Y008091D01*
X010465Y008398D01*
X010158Y008398D01*
X010465Y008398D02*
X010542Y008321D01*
X010542Y008168D01*
X010465Y008091D01*
X010158Y008091D01*
X010081Y007937D02*
X010081Y007630D01*
X010081Y007477D02*
X010235Y007323D01*
X010235Y007400D02*
X010235Y007170D01*
X010161Y007130D02*
X010084Y007054D01*
X010084Y006900D01*
X010161Y006823D01*
X010391Y006823D01*
X010391Y006670D02*
X010391Y007130D01*
X010161Y007130D01*
X010081Y007170D02*
X010542Y007170D01*
X010542Y007400D01*
X010465Y007477D01*
X010312Y007477D01*
X010235Y007400D01*
X010388Y007630D02*
X010542Y007784D01*
X010081Y007784D01*
X010731Y007861D02*
X010731Y007707D01*
X010808Y007630D01*
X010885Y007630D01*
X010962Y007707D01*
X010962Y007861D01*
X010885Y007937D01*
X010808Y007937D01*
X010731Y007861D01*
X010962Y007861D02*
X011038Y007937D01*
X011115Y007937D01*
X011192Y007861D01*
X011192Y007707D01*
X011115Y007630D01*
X011038Y007630D01*
X010962Y007707D01*
X010962Y007477D02*
X010885Y007400D01*
X010885Y007170D01*
X010885Y007323D02*
X010731Y007477D01*
X010962Y007477D02*
X011115Y007477D01*
X011192Y007400D01*
X011192Y007170D01*
X010731Y007170D01*
X010238Y006823D02*
X010084Y006670D01*
X009931Y006747D02*
X009854Y006670D01*
X009701Y006670D01*
X009624Y006747D01*
X009624Y007054D01*
X009701Y007130D01*
X009854Y007130D01*
X009931Y007054D01*
X009931Y006977D01*
X009854Y006900D01*
X009624Y006900D01*
X008691Y006030D02*
X008461Y006030D01*
X008384Y005954D01*
X008384Y005800D01*
X008461Y005723D01*
X008691Y005723D01*
X008691Y005570D02*
X008691Y006030D01*
X008538Y005723D02*
X008384Y005570D01*
X008231Y005570D02*
X007924Y005570D01*
X007936Y005595D02*
X007936Y005294D01*
X007996Y005234D01*
X008116Y005234D01*
X008176Y005294D01*
X008176Y005595D01*
X008077Y005570D02*
X008077Y006030D01*
X008231Y005877D01*
X007771Y005877D02*
X007617Y006030D01*
X007617Y005570D01*
X007628Y005595D02*
X007568Y005535D01*
X007628Y005595D02*
X007748Y005595D01*
X007808Y005535D01*
X007808Y005475D01*
X007748Y005414D01*
X007628Y005414D01*
X007568Y005354D01*
X007568Y005294D01*
X007628Y005234D01*
X007748Y005234D01*
X007808Y005294D01*
X007688Y005174D02*
X007688Y005655D01*
X007771Y005570D02*
X007464Y005570D01*
X007440Y005475D02*
X007320Y005595D01*
X007320Y005234D01*
X007440Y005234D02*
X007199Y005234D01*
X006235Y006520D02*
X006082Y006520D01*
X006005Y006597D01*
X005852Y006597D02*
X005775Y006520D01*
X005622Y006520D01*
X005545Y006597D01*
X005545Y006750D01*
X005622Y006827D01*
X005698Y006827D01*
X005852Y006750D01*
X005852Y006980D01*
X005545Y006980D01*
X006005Y006904D02*
X006082Y006980D01*
X006235Y006980D01*
X006312Y006904D01*
X006312Y006597D01*
X006235Y006520D01*
X006235Y007670D02*
X006082Y007670D01*
X006005Y007747D01*
X005852Y007670D02*
X005545Y007670D01*
X005698Y007670D02*
X005698Y008130D01*
X005852Y007977D01*
X005815Y008070D02*
X005661Y008070D01*
X005584Y008147D01*
X005431Y008147D02*
X005431Y008300D01*
X005201Y008300D01*
X005124Y008223D01*
X005124Y008147D01*
X005201Y008070D01*
X005354Y008070D01*
X005431Y008147D01*
X005431Y008300D02*
X005277Y008454D01*
X005124Y008530D01*
X005584Y008454D02*
X005661Y008530D01*
X005815Y008530D01*
X005891Y008454D01*
X005891Y008147D01*
X005815Y008070D01*
X006005Y008054D02*
X006082Y008130D01*
X006235Y008130D01*
X006312Y008054D01*
X006312Y007747D01*
X006235Y007670D01*
X005865Y009520D02*
X005711Y009520D01*
X005634Y009597D01*
X005481Y009597D02*
X005481Y009520D01*
X005481Y009597D02*
X005174Y009904D01*
X005174Y009980D01*
X005481Y009980D01*
X005481Y010120D02*
X005174Y010427D01*
X005174Y010504D01*
X005251Y010580D01*
X005404Y010580D01*
X005481Y010504D01*
X005634Y010504D02*
X005711Y010580D01*
X005865Y010580D01*
X005941Y010504D01*
X005941Y010197D01*
X005865Y010120D01*
X005711Y010120D01*
X005634Y010197D01*
X005481Y010120D02*
X005174Y010120D01*
X005634Y009904D02*
X005711Y009980D01*
X005865Y009980D01*
X005941Y009904D01*
X005941Y009597D01*
X005865Y009520D01*
X003316Y008229D02*
X003316Y007922D01*
X003239Y007845D01*
X003086Y007845D01*
X003009Y007922D01*
X003009Y008229D01*
X003086Y008305D01*
X003239Y008305D01*
X003316Y008229D01*
X003162Y007998D02*
X003009Y007845D01*
X002856Y007845D02*
X002549Y008152D01*
X002549Y008229D01*
X002625Y008305D01*
X002779Y008305D01*
X002856Y008229D01*
X002856Y007845D02*
X002549Y007845D01*
X004896Y012801D02*
X004996Y012759D01*
X005280Y012876D01*
X005321Y012977D01*
X005262Y013118D01*
X005162Y013160D01*
X004878Y013043D01*
X004837Y012942D01*
X004896Y012801D01*
X005008Y012930D02*
X004808Y013013D01*
X004749Y013155D02*
X004631Y013439D01*
X004690Y013297D02*
X005115Y013473D01*
X005032Y013272D01*
X007923Y014230D02*
X007965Y014129D01*
X008036Y014100D01*
X008136Y014141D01*
X008178Y014041D01*
X008249Y014012D01*
X008349Y014053D01*
X008407Y014195D01*
X008366Y014295D01*
X008425Y014437D02*
X008141Y014555D01*
X008100Y014655D01*
X008158Y014797D01*
X008259Y014838D01*
X008542Y014721D01*
X008584Y014621D01*
X008525Y014479D01*
X008425Y014437D01*
X008496Y014408D02*
X008413Y014608D01*
X008082Y014413D02*
X007982Y014371D01*
X007923Y014230D01*
X008136Y014141D02*
X008165Y014212D01*
X012772Y005280D02*
X013002Y005050D01*
X012695Y005050D01*
X012772Y004820D02*
X012772Y005280D01*
X013155Y005204D02*
X013155Y004897D01*
X013232Y004820D01*
X013385Y004820D01*
X013462Y004897D01*
X013462Y005204D01*
X013385Y005280D01*
X013232Y005280D01*
X013155Y005204D01*
X013309Y004973D02*
X013155Y004820D01*
D14*
X013561Y006150D02*
X013561Y006950D01*
X013161Y006550D02*
X013961Y006550D01*
X012961Y008800D02*
X012961Y009600D01*
X012561Y009200D02*
X013361Y009200D01*
X011311Y011300D02*
X011311Y012100D01*
X010911Y011700D02*
X011711Y011700D01*
X009811Y013300D02*
X009011Y013300D01*
X009411Y012900D02*
X009411Y013700D01*
X006961Y013300D02*
X006161Y013300D01*
X006561Y012900D02*
X006561Y013700D01*
X004811Y011700D02*
X004011Y011700D01*
X004411Y011300D02*
X004411Y012100D01*
X005711Y010250D02*
X005711Y009450D01*
X005711Y009650D02*
X005711Y008850D01*
X005661Y008800D02*
X005661Y008000D01*
X005661Y008200D02*
X005661Y007400D01*
X005661Y007650D02*
X005661Y006850D01*
X005261Y007250D02*
X006061Y007250D01*
X006061Y007800D02*
X005261Y007800D01*
X005261Y008400D02*
X006061Y008400D01*
X006111Y009250D02*
X005311Y009250D01*
X005311Y009850D02*
X006111Y009850D01*
X007911Y008050D02*
X007911Y007250D01*
X007511Y007650D02*
X008311Y007650D01*
X009411Y007400D02*
X010211Y007400D01*
X010061Y007400D02*
X010861Y007400D01*
X010461Y007000D02*
X010461Y007800D01*
X009811Y007800D02*
X009811Y007000D01*
X010161Y006800D02*
X010161Y006000D01*
X009761Y006400D02*
X010561Y006400D01*
X008861Y005300D02*
X008061Y005300D01*
X008461Y004900D02*
X008461Y005700D01*
X009711Y008500D02*
X009711Y009300D01*
X009311Y008900D02*
X010111Y008900D01*
X003168Y009257D02*
X002368Y009257D01*
X002768Y008857D02*
X002768Y009657D01*
X002336Y006975D02*
X002336Y006175D01*
X001936Y006575D02*
X002736Y006575D01*
D15*
X003369Y007313D02*
X003547Y007313D01*
X003547Y005837D01*
X003369Y005837D01*
X003369Y005699D01*
X003291Y005620D01*
X001381Y005620D01*
X001302Y005699D01*
X001302Y005837D01*
X001125Y005837D01*
X001125Y007313D01*
X001302Y007313D01*
X001302Y007451D01*
X001381Y007530D01*
X003291Y007530D01*
X003369Y007451D01*
X003369Y007313D01*
X006045Y012053D02*
X006148Y012010D01*
X006275Y012063D01*
X006343Y011899D01*
X007707Y012464D01*
X007639Y012628D01*
X007766Y012680D01*
X007809Y012783D01*
X007078Y014547D01*
X006975Y014590D01*
X006848Y014537D01*
X006780Y014701D01*
X005416Y014136D01*
X005484Y013972D01*
X005357Y013920D01*
X005314Y013817D01*
X006045Y012053D01*
X008164Y012783D02*
X008207Y012680D01*
X008334Y012628D01*
X008266Y012464D01*
X009630Y011899D01*
X009698Y012063D01*
X009825Y012010D01*
X009928Y012053D01*
X010659Y013817D01*
X010616Y013920D01*
X010489Y013972D01*
X010557Y014136D01*
X009193Y014701D01*
X009125Y014537D01*
X008998Y014590D01*
X008895Y014547D01*
X008164Y012783D01*
X012607Y007505D02*
X012528Y007426D01*
X012528Y007288D01*
X012351Y007288D01*
X012351Y005812D01*
X012528Y005812D01*
X012528Y005674D01*
X012607Y005595D01*
X014516Y005595D01*
X014595Y005674D01*
X014595Y005812D01*
X014772Y005812D01*
X014772Y007288D01*
X014595Y007288D01*
X014595Y007426D01*
X014516Y007505D01*
X012607Y007505D01*
D16*
X012961Y007141D03*
X010187Y013629D03*
X006877Y014081D03*
X002936Y005984D03*
D17*
X003301Y006250D03*
X003301Y006900D03*
X001371Y006900D03*
X001371Y006250D03*
G36*
X006449Y011976D02*
X006283Y012376D01*
X006811Y012594D01*
X006977Y012194D01*
X006449Y011976D01*
G37*
G36*
X007050Y012224D02*
X006884Y012624D01*
X007412Y012842D01*
X007578Y012442D01*
X007050Y012224D01*
G37*
G36*
X008395Y012442D02*
X008561Y012842D01*
X009089Y012624D01*
X008923Y012224D01*
X008395Y012442D01*
G37*
G36*
X008995Y012194D02*
X009161Y012594D01*
X009689Y012376D01*
X009523Y011976D01*
X008995Y012194D01*
G37*
G36*
X009734Y013976D02*
X009900Y014376D01*
X010428Y014158D01*
X010262Y013758D01*
X009734Y013976D01*
G37*
G36*
X009133Y014224D02*
X009299Y014624D01*
X009827Y014406D01*
X009661Y014006D01*
X009133Y014224D01*
G37*
G36*
X006311Y014006D02*
X006145Y014406D01*
X006673Y014624D01*
X006839Y014224D01*
X006311Y014006D01*
G37*
G36*
X005711Y013758D02*
X005545Y014158D01*
X006073Y014376D01*
X006239Y013976D01*
X005711Y013758D01*
G37*
X012597Y006875D03*
X012597Y006225D03*
X014526Y006225D03*
X014526Y006875D03*
D18*
G36*
X009298Y013465D02*
X009427Y013774D01*
X009736Y013645D01*
X009607Y013336D01*
X009298Y013465D01*
G37*
G36*
X006366Y013336D02*
X006237Y013645D01*
X006546Y013774D01*
X006675Y013465D01*
X006366Y013336D01*
G37*
D19*
G36*
X006385Y012748D02*
X006242Y013093D01*
X006587Y013236D01*
X006730Y012891D01*
X006385Y012748D01*
G37*
G36*
X006731Y012891D02*
X006588Y013236D01*
X006933Y013379D01*
X007076Y013034D01*
X006731Y012891D01*
G37*
G36*
X008897Y013034D02*
X009040Y013379D01*
X009385Y013236D01*
X009242Y012891D01*
X008897Y013034D01*
G37*
G36*
X009242Y012891D02*
X009385Y013236D01*
X009730Y013093D01*
X009587Y012748D01*
X009242Y012891D01*
G37*
D20*
X013286Y006550D03*
X002612Y006575D03*
D21*
X002080Y006762D03*
X002080Y006388D03*
X013817Y006363D03*
X013817Y006737D03*
D22*
X003961Y003197D03*
X005861Y003203D03*
D23*
X002611Y004150D03*
X009411Y002950D03*
X009411Y001950D03*
X010411Y001950D03*
X010411Y002950D03*
X011411Y002950D03*
X011411Y001950D03*
X011411Y004150D03*
X012911Y004150D03*
X013411Y011350D03*
X007911Y014350D03*
X002411Y011300D03*
D24*
X002714Y011700D02*
X004411Y010003D01*
X006108Y011700D01*
X004411Y013397D01*
X002714Y011700D01*
X002119Y010825D02*
X001200Y008608D01*
X003418Y007689D01*
X004336Y009907D01*
X002119Y010825D01*
X002498Y009910D02*
X003230Y009066D01*
X002115Y008987D01*
X002306Y009448D01*
X001844Y009640D01*
X002306Y009448D02*
X002498Y009910D01*
X003230Y009066D02*
X003692Y008874D01*
X003039Y008604D02*
X003421Y009528D01*
X004411Y010993D02*
X004058Y012054D01*
X005118Y011700D01*
X004765Y011346D01*
X005118Y010993D01*
X004765Y011346D02*
X004411Y010993D01*
X003704Y011700D02*
X004411Y012407D01*
X004058Y012054D02*
X003704Y012407D01*
X009614Y011700D02*
X011311Y010003D01*
X013008Y011700D01*
X011311Y013397D01*
X009614Y011700D01*
X010604Y011700D02*
X011665Y012054D01*
X011311Y010993D01*
X010958Y011346D01*
X010604Y010993D01*
X010958Y011346D02*
X010604Y011700D01*
X011311Y012407D02*
X012018Y011700D01*
X011665Y012054D02*
X012018Y012407D01*
X013611Y010768D02*
X014529Y008551D01*
X012312Y007632D01*
X011393Y009849D01*
X013611Y010768D01*
X013232Y009853D02*
X013423Y009391D01*
X013885Y009583D01*
X013423Y009391D02*
X013615Y008929D01*
X012499Y009009D01*
X013232Y009853D01*
X012308Y009471D02*
X012691Y008547D01*
X012499Y009009D02*
X012037Y008817D01*
D25*
G36*
X010995Y009532D02*
X011716Y009831D01*
X012511Y007910D01*
X011790Y007611D01*
X010995Y009532D01*
G37*
G36*
X011424Y010315D02*
X010872Y009763D01*
X009402Y011233D01*
X009954Y011785D01*
X011424Y010315D01*
G37*
G36*
X013256Y012146D02*
X012704Y011594D01*
X011234Y013064D01*
X011786Y013616D01*
X013256Y012146D01*
G37*
G36*
X013387Y010523D02*
X014108Y010822D01*
X014903Y008901D01*
X014182Y008602D01*
X013387Y010523D01*
G37*
G36*
X005797Y011813D02*
X006349Y011261D01*
X004879Y009791D01*
X004327Y010343D01*
X005797Y011813D01*
G37*
G36*
X003965Y013644D02*
X004517Y013092D01*
X003047Y011622D01*
X002495Y012174D01*
X003965Y013644D01*
G37*
G36*
X001532Y008622D02*
X000811Y008921D01*
X001606Y010842D01*
X002327Y010543D01*
X001532Y008622D01*
G37*
G36*
X003925Y007631D02*
X003204Y007930D01*
X003999Y009851D01*
X004720Y009552D01*
X003925Y007631D01*
G37*
D26*
X005327Y007800D03*
X005327Y007250D03*
X005996Y007250D03*
X005996Y007800D03*
X005996Y008400D03*
X005327Y008400D03*
X005377Y009250D03*
X005377Y009850D03*
X006046Y009850D03*
X006046Y009250D03*
X009811Y007735D03*
X010461Y007735D03*
X010461Y007065D03*
X009811Y007065D03*
D27*
X009827Y006400D03*
X010496Y006400D03*
X008796Y005300D03*
X008127Y005300D03*
X009711Y008565D03*
X009711Y009235D03*
D28*
X010361Y009400D03*
X010461Y008250D03*
X008511Y008150D03*
X007661Y008650D03*
X007361Y009250D03*
X006411Y010850D03*
X006411Y011650D03*
X007161Y011950D03*
X008711Y011950D03*
X009361Y011650D03*
X009361Y010850D03*
X010761Y013800D03*
X008611Y014350D03*
X007161Y014350D03*
X005261Y013750D03*
X008561Y007250D03*
X008311Y006150D03*
X007961Y005850D03*
X009411Y005300D03*
X009811Y005750D03*
X010861Y005500D03*
X012311Y002800D03*
X013811Y004900D03*
X006611Y002500D03*
X005161Y004300D03*
X006411Y005050D03*
X006111Y006100D03*
X002111Y004950D03*
M02*
