%
M48
M72
T01C0.0200
T02C0.0320
T03C0.0400
%
T01
X2111Y4950
X5161Y4300
X6411Y5050
X6111Y6100
X7961Y5850
X8311Y6150
X8561Y7250
X8511Y8150
X7661Y8650
X7361Y9250
X6411Y10850
X6411Y11650
X7161Y11950
X8711Y11950
X9361Y11650
X9361Y10850
X10361Y9400
X10461Y8250
X9811Y5750
X9411Y5300
X10861Y5500
X12311Y2800
X13811Y4900
X6611Y2500
X5261Y13750
X7161Y14350
X8611Y14350
X10761Y13800
T02
X3961Y3197
X5861Y3203
T03
X2611Y4150
X9411Y2950
X9411Y1950
X10411Y1950
X10411Y2950
X11411Y2950
X11411Y1950
X11411Y4150
X12911Y4150
X13411Y11350
X7911Y14350
X2411Y11300
M30
