G75*
G70*
%OFA0B0*%
%FSLAX24Y24*%
%IPPOS*%
%LPD*%
%AMOC8*
5,1,8,0,0,1.08239X$1,22.5*
%
%ADD10R,0.0316X0.0552*%
%ADD11C,0.0600*%
%ADD12R,0.0340X0.0880*%
%ADD13OC8,0.0680*%
%ADD14R,0.0395X0.0474*%
%ADD15R,0.0474X0.0513*%
%ADD16R,0.0513X0.0474*%
%ADD17R,0.0960X0.0560*%
%ADD18R,0.0946X0.1497*%
%ADD19C,0.0440*%
D10*
X006411Y004498D03*
X006911Y004498D03*
X007411Y004498D03*
X007911Y004498D03*
X008411Y004498D03*
X008911Y004498D03*
X009411Y004498D03*
X009411Y006702D03*
X008911Y006702D03*
X008411Y006702D03*
X007911Y006702D03*
X007411Y006702D03*
X006911Y006702D03*
X006411Y006702D03*
D11*
X003961Y003197D03*
X005861Y003203D03*
D12*
X011161Y006440D03*
X011661Y006440D03*
X012161Y006440D03*
X012661Y006440D03*
X012661Y008860D03*
X012161Y008860D03*
X011661Y008860D03*
X011161Y008860D03*
D13*
X013411Y011350D03*
X007911Y014350D03*
X002411Y011300D03*
X002611Y004150D03*
X009411Y002950D03*
X009411Y001950D03*
X010411Y001950D03*
X010411Y002950D03*
X011411Y002950D03*
X011411Y001950D03*
X011411Y004150D03*
X012911Y004150D03*
D14*
X008344Y003359D03*
X007478Y003359D03*
X007478Y001941D03*
X008344Y001941D03*
D15*
X008527Y001100D03*
X009196Y001100D03*
X011877Y005300D03*
X012546Y005300D03*
X004746Y008650D03*
X004077Y008650D03*
X003496Y008650D03*
X002827Y008650D03*
X001261Y007185D03*
X001261Y006515D03*
D16*
X003577Y004650D03*
X004246Y004650D03*
X004877Y005150D03*
X004877Y005650D03*
X005546Y005650D03*
X005546Y005150D03*
X007411Y007265D03*
X007411Y007935D03*
X010161Y007185D03*
X010161Y006515D03*
X005746Y001650D03*
X005077Y001650D03*
D17*
X002391Y005890D03*
X002391Y006800D03*
X002391Y007710D03*
D18*
X004831Y006800D03*
D19*
X006111Y006100D03*
X006411Y005050D03*
X005161Y004300D03*
X006611Y002500D03*
X009411Y005300D03*
X009811Y005750D03*
X010861Y005500D03*
X008561Y007250D03*
X008511Y008150D03*
X007661Y008650D03*
X007361Y009250D03*
X006411Y010850D03*
X006411Y011650D03*
X007161Y011950D03*
X008711Y011950D03*
X009361Y011650D03*
X009361Y010850D03*
X010361Y009400D03*
X010461Y008250D03*
X008311Y006150D03*
X007961Y005850D03*
X012311Y002800D03*
X013811Y004900D03*
X005261Y013750D03*
X007161Y014350D03*
X008611Y014350D03*
X010761Y013800D03*
X002111Y004950D03*
M02*
