G75*
G70*
%OFA0B0*%
%FSLAX24Y24*%
%IPPOS*%
%LPD*%
%AMOC8*
5,1,8,0,0,1.08239X$1,22.5*
%
%ADD10R,0.0390X0.0120*%
%ADD11R,0.0354X0.0492*%
%ADD12R,0.0256X0.0256*%
%ADD13R,0.0295X0.0295*%
%ADD14R,0.0256X0.0256*%
%ADD15R,0.0295X0.0295*%
%ADD16C,0.0520*%
%ADD17OC8,0.0600*%
%ADD18R,0.0700X0.2000*%
%ADD19R,0.0433X0.0394*%
%ADD20R,0.0394X0.0433*%
%ADD21C,0.0100*%
%ADD22C,0.0360*%
%ADD23C,0.0120*%
D10*
X006763Y005987D03*
X006763Y006243D03*
X006763Y006498D03*
X006763Y006754D03*
X006763Y007010D03*
X006763Y007266D03*
X006763Y007522D03*
X006763Y007778D03*
X006763Y008034D03*
X006763Y008290D03*
X006763Y008546D03*
X006763Y008802D03*
X006763Y009057D03*
X006763Y009313D03*
X009060Y009313D03*
X009060Y009057D03*
X009060Y008802D03*
X009060Y008546D03*
X009060Y008290D03*
X009060Y008034D03*
X009060Y007778D03*
X009060Y007522D03*
X009060Y007266D03*
X009060Y007010D03*
X009060Y006754D03*
X009060Y006498D03*
X009060Y006243D03*
X009060Y005987D03*
D11*
X012597Y006225D03*
X012597Y006875D03*
X014526Y006875D03*
X014526Y006225D03*
G36*
X009047Y012216D02*
X009183Y012542D01*
X009637Y012354D01*
X009501Y012028D01*
X009047Y012216D01*
G37*
G36*
X008447Y012464D02*
X008583Y012790D01*
X009037Y012602D01*
X008901Y012276D01*
X008447Y012464D01*
G37*
G36*
X007072Y012276D02*
X006936Y012602D01*
X007390Y012790D01*
X007526Y012464D01*
X007072Y012276D01*
G37*
G36*
X006471Y012028D02*
X006335Y012354D01*
X006789Y012542D01*
X006925Y012216D01*
X006471Y012028D01*
G37*
G36*
X005733Y013810D02*
X005597Y014136D01*
X006051Y014324D01*
X006187Y013998D01*
X005733Y013810D01*
G37*
G36*
X006333Y014058D02*
X006197Y014384D01*
X006651Y014572D01*
X006787Y014246D01*
X006333Y014058D01*
G37*
G36*
X009185Y014246D02*
X009321Y014572D01*
X009775Y014384D01*
X009639Y014058D01*
X009185Y014246D01*
G37*
G36*
X009786Y013998D02*
X009922Y014324D01*
X010376Y014136D01*
X010240Y013810D01*
X009786Y013998D01*
G37*
X003301Y006900D03*
X003301Y006250D03*
X001371Y006250D03*
X001371Y006900D03*
D12*
G36*
X006387Y013388D02*
X006289Y013624D01*
X006525Y013722D01*
X006623Y013486D01*
X006387Y013388D01*
G37*
G36*
X009350Y013486D02*
X009448Y013722D01*
X009684Y013624D01*
X009586Y013388D01*
X009350Y013486D01*
G37*
D13*
G36*
X008949Y013056D02*
X009062Y013327D01*
X009333Y013214D01*
X009220Y012943D01*
X008949Y013056D01*
G37*
G36*
X009294Y012913D02*
X009407Y013184D01*
X009678Y013071D01*
X009565Y012800D01*
X009294Y012913D01*
G37*
G36*
X006753Y012943D02*
X006640Y013214D01*
X006911Y013327D01*
X007024Y013056D01*
X006753Y012943D01*
G37*
G36*
X006407Y012800D02*
X006294Y013071D01*
X006565Y013184D01*
X006678Y012913D01*
X006407Y012800D01*
G37*
D14*
X002612Y006575D03*
X013286Y006550D03*
D15*
X013817Y006363D03*
X013817Y006737D03*
X002080Y006762D03*
X002080Y006388D03*
D16*
X003961Y003197D03*
X005861Y003203D03*
D17*
X002611Y004150D03*
X009411Y002950D03*
X009411Y001950D03*
X010411Y001950D03*
X010411Y002950D03*
X011411Y002950D03*
X011411Y001950D03*
X011411Y004150D03*
X012911Y004150D03*
X013411Y011350D03*
X007911Y014350D03*
X002411Y011300D03*
D18*
G36*
X003965Y013587D02*
X004460Y013092D01*
X003047Y011679D01*
X002552Y012174D01*
X003965Y013587D01*
G37*
G36*
X005797Y011756D02*
X006292Y011261D01*
X004879Y009848D01*
X004384Y010343D01*
X005797Y011756D01*
G37*
G36*
X003903Y007684D02*
X003256Y007952D01*
X004021Y009798D01*
X004668Y009530D01*
X003903Y007684D01*
G37*
G36*
X001510Y008675D02*
X000863Y008943D01*
X001628Y010789D01*
X002275Y010521D01*
X001510Y008675D01*
G37*
G36*
X011367Y010315D02*
X010872Y009820D01*
X009459Y011233D01*
X009954Y011728D01*
X011367Y010315D01*
G37*
G36*
X011047Y009510D02*
X011694Y009778D01*
X012459Y007932D01*
X011812Y007664D01*
X011047Y009510D01*
G37*
G36*
X013439Y010501D02*
X014086Y010769D01*
X014851Y008923D01*
X014204Y008655D01*
X013439Y010501D01*
G37*
G36*
X013199Y012146D02*
X012704Y011651D01*
X011291Y013064D01*
X011786Y013559D01*
X013199Y012146D01*
G37*
D19*
X010461Y007735D03*
X009811Y007735D03*
X009811Y007065D03*
X010461Y007065D03*
X006046Y009250D03*
X006046Y009850D03*
X005377Y009850D03*
X005377Y009250D03*
X005327Y008400D03*
X005327Y007800D03*
X005327Y007250D03*
X005996Y007250D03*
X005996Y007800D03*
X005996Y008400D03*
D20*
X008127Y005300D03*
X008796Y005300D03*
X009827Y006400D03*
X010496Y006400D03*
X009711Y008565D03*
X009711Y009235D03*
D21*
X003843Y002823D02*
X002846Y002823D01*
X002876Y002787D02*
X002248Y003536D01*
X001731Y004364D01*
X001333Y005256D01*
X001321Y005300D01*
X001761Y005300D01*
X001788Y006200D01*
X001793Y006182D01*
X001812Y006148D01*
X001840Y006120D01*
X001875Y006100D01*
X001913Y006090D01*
X002056Y006090D01*
X002056Y006364D01*
X002104Y006364D01*
X002104Y006090D01*
X002247Y006090D01*
X002286Y006100D01*
X002320Y006120D01*
X002348Y006148D01*
X002361Y006172D01*
X002361Y005300D01*
X002820Y005300D01*
X002908Y005251D01*
X002925Y005242D01*
X003081Y005156D01*
X003081Y005156D01*
X003433Y005091D01*
X003433Y005091D01*
X003788Y005139D01*
X004109Y005296D01*
X004113Y005300D01*
X004211Y005300D01*
X004211Y005396D01*
X004228Y005412D01*
X004237Y005421D01*
X004237Y005421D01*
X004237Y005421D01*
X004467Y005625D01*
X004981Y005961D01*
X005550Y006191D01*
X005836Y006246D01*
X005801Y006162D01*
X005801Y006038D01*
X005849Y005924D01*
X005936Y005837D01*
X006050Y005790D01*
X006173Y005790D01*
X006213Y005807D01*
X006504Y005807D01*
X006514Y005797D01*
X007011Y005797D01*
X007088Y005873D01*
X007088Y006100D01*
X007085Y006103D01*
X007097Y006125D01*
X007108Y006163D01*
X007108Y006243D01*
X007108Y006322D01*
X007097Y006360D01*
X007085Y006382D01*
X007088Y006385D01*
X007088Y006612D01*
X007073Y006626D01*
X007088Y006640D01*
X007088Y006687D01*
X007152Y006622D01*
X007222Y006453D01*
X007231Y006361D01*
X007231Y005459D01*
X007219Y005333D01*
X007219Y005333D01*
X007297Y005073D01*
X007297Y005073D01*
X007469Y004863D01*
X007469Y004863D01*
X007708Y004734D01*
X007779Y004727D01*
X007787Y004720D01*
X007852Y004720D01*
X007918Y004713D01*
X007926Y004720D01*
X013004Y004720D01*
X013017Y004710D01*
X013076Y004720D01*
X013136Y004720D01*
X013148Y004732D01*
X013186Y004738D01*
X013349Y004840D01*
X013349Y004840D01*
X013349Y004840D01*
X013461Y004997D01*
X013505Y005185D01*
X013491Y005265D01*
X013491Y005298D01*
X013561Y005300D01*
X013585Y006091D01*
X013612Y006076D01*
X013650Y006065D01*
X013793Y006065D01*
X013793Y006339D01*
X013841Y006339D01*
X013841Y006065D01*
X013985Y006065D01*
X014023Y006076D01*
X014057Y006095D01*
X014061Y006100D01*
X014061Y005300D01*
X014487Y005300D01*
X014306Y004803D01*
X013848Y003941D01*
X013274Y003150D01*
X012595Y002448D01*
X011841Y001859D01*
X011841Y002128D01*
X011589Y002380D01*
X011264Y002380D01*
X011091Y002570D01*
X011091Y002575D01*
X011042Y002624D01*
X010994Y002676D01*
X010989Y002676D01*
X010986Y002680D01*
X010916Y002680D01*
X010845Y002683D01*
X010842Y002680D01*
X010749Y002680D01*
X010841Y002772D01*
X010841Y003128D01*
X010589Y003380D01*
X010233Y003380D01*
X009981Y003128D01*
X009981Y002772D01*
X010073Y002680D01*
X009749Y002680D01*
X009841Y002772D01*
X009841Y003128D01*
X009589Y003380D01*
X009233Y003380D01*
X008981Y003128D01*
X008981Y002772D01*
X009073Y002680D01*
X008743Y002680D01*
X006716Y004976D01*
X006721Y004988D01*
X006721Y005112D01*
X006674Y005226D01*
X006587Y005313D01*
X006473Y005360D01*
X006350Y005360D01*
X006236Y005313D01*
X006149Y005226D01*
X006101Y005112D01*
X006101Y004988D01*
X006149Y004874D01*
X006236Y004787D01*
X006350Y004740D01*
X006445Y004740D01*
X008481Y002432D01*
X008481Y002425D01*
X008530Y002377D01*
X008576Y002325D01*
X008582Y002325D01*
X008587Y002320D01*
X008656Y002320D01*
X008725Y002316D01*
X008729Y002320D01*
X009145Y002320D01*
X008961Y002136D01*
X008961Y002000D01*
X009361Y002000D01*
X009361Y001900D01*
X008961Y001900D01*
X008961Y001764D01*
X009225Y001500D01*
X009361Y001500D01*
X009361Y001900D01*
X009461Y001900D01*
X009461Y001500D01*
X009598Y001500D01*
X009861Y001764D01*
X009861Y001900D01*
X009461Y001900D01*
X009461Y002000D01*
X009861Y002000D01*
X009861Y002136D01*
X009678Y002320D01*
X010173Y002320D01*
X009981Y002128D01*
X009981Y001772D01*
X010233Y001520D01*
X010589Y001520D01*
X010841Y001772D01*
X010841Y002128D01*
X010649Y002320D01*
X010832Y002320D01*
X010994Y002141D01*
X010981Y002128D01*
X010981Y001772D01*
X011233Y001520D01*
X011260Y001520D01*
X010980Y001358D01*
X010074Y000993D01*
X009127Y000756D01*
X008156Y000654D01*
X007180Y000688D01*
X006218Y000858D01*
X005289Y001160D01*
X004411Y001588D01*
X003602Y002134D01*
X002876Y002787D01*
X002945Y002725D02*
X008223Y002725D01*
X008310Y002626D02*
X003055Y002626D01*
X003164Y002528D02*
X008397Y002528D01*
X008481Y002429D02*
X003273Y002429D01*
X003383Y002331D02*
X008570Y002331D01*
X008661Y002500D02*
X006411Y005050D01*
X006229Y004793D02*
X001539Y004793D01*
X001583Y004695D02*
X006485Y004695D01*
X006571Y004596D02*
X002801Y004596D01*
X002798Y004600D02*
X002661Y004600D01*
X002661Y004200D01*
X002561Y004200D01*
X002561Y004100D01*
X002161Y004100D01*
X002161Y003964D01*
X002425Y003700D01*
X002561Y003700D01*
X002561Y004100D01*
X002661Y004100D01*
X002661Y003700D01*
X002798Y003700D01*
X003061Y003964D01*
X003061Y004100D01*
X002661Y004100D01*
X002661Y004200D01*
X003061Y004200D01*
X003061Y004336D01*
X002798Y004600D01*
X002661Y004596D02*
X002561Y004596D01*
X002561Y004600D02*
X002425Y004600D01*
X002161Y004336D01*
X002161Y004200D01*
X002561Y004200D01*
X002561Y004600D01*
X002561Y004498D02*
X002661Y004498D01*
X002661Y004399D02*
X002561Y004399D01*
X002561Y004301D02*
X002661Y004301D01*
X002661Y004202D02*
X002561Y004202D01*
X002561Y004104D02*
X001893Y004104D01*
X001955Y004005D02*
X002161Y004005D01*
X002218Y003907D02*
X002016Y003907D01*
X002078Y003808D02*
X002316Y003808D01*
X002415Y003710D02*
X002139Y003710D01*
X002201Y003611D02*
X007441Y003611D01*
X007527Y003513D02*
X006103Y003513D01*
X006082Y003534D02*
X005939Y003593D01*
X005784Y003593D01*
X005640Y003534D01*
X005531Y003424D01*
X005471Y003281D01*
X005471Y003126D01*
X005531Y002982D01*
X005640Y002873D01*
X005784Y002813D01*
X005939Y002813D01*
X006082Y002873D01*
X006192Y002982D01*
X006251Y003126D01*
X006251Y003281D01*
X006192Y003424D01*
X006082Y003534D01*
X006196Y003414D02*
X007614Y003414D01*
X007701Y003316D02*
X006237Y003316D01*
X006251Y003217D02*
X007788Y003217D01*
X007875Y003119D02*
X006249Y003119D01*
X006208Y003020D02*
X007962Y003020D01*
X008049Y002922D02*
X006132Y002922D01*
X005963Y002823D02*
X008136Y002823D01*
X008442Y003020D02*
X008981Y003020D01*
X008981Y002922D02*
X008529Y002922D01*
X008616Y002823D02*
X008981Y002823D01*
X009028Y002725D02*
X008703Y002725D01*
X008661Y002500D02*
X010911Y002500D01*
X011411Y001950D01*
X011112Y001641D02*
X010711Y001641D01*
X010612Y001543D02*
X011210Y001543D01*
X011129Y001444D02*
X004705Y001444D01*
X004907Y001346D02*
X010949Y001346D01*
X010705Y001247D02*
X005109Y001247D01*
X005322Y001149D02*
X010462Y001149D01*
X010218Y001050D02*
X005625Y001050D01*
X005928Y000952D02*
X009912Y000952D01*
X009516Y000853D02*
X006243Y000853D01*
X006802Y000755D02*
X009114Y000755D01*
X009182Y001543D02*
X004503Y001543D01*
X004332Y001641D02*
X009083Y001641D01*
X008985Y001740D02*
X004186Y001740D01*
X004040Y001838D02*
X008961Y001838D01*
X008961Y002035D02*
X003748Y002035D01*
X003894Y001937D02*
X009361Y001937D01*
X009361Y001838D02*
X009461Y001838D01*
X009461Y001740D02*
X009361Y001740D01*
X009361Y001641D02*
X009461Y001641D01*
X009461Y001543D02*
X009361Y001543D01*
X009641Y001543D02*
X010210Y001543D01*
X010112Y001641D02*
X009739Y001641D01*
X009838Y001740D02*
X010013Y001740D01*
X009981Y001838D02*
X009861Y001838D01*
X009981Y001937D02*
X009461Y001937D01*
X009765Y002232D02*
X010086Y002232D01*
X009987Y002134D02*
X009861Y002134D01*
X009861Y002035D02*
X009981Y002035D01*
X010028Y002725D02*
X009794Y002725D01*
X009841Y002823D02*
X009981Y002823D01*
X009981Y002922D02*
X009841Y002922D01*
X009841Y003020D02*
X009981Y003020D01*
X009981Y003119D02*
X009841Y003119D01*
X009752Y003217D02*
X010071Y003217D01*
X010169Y003316D02*
X009653Y003316D01*
X009169Y003316D02*
X008181Y003316D01*
X008094Y003414D02*
X013465Y003414D01*
X013394Y003316D02*
X011653Y003316D01*
X011589Y003380D02*
X011233Y003380D01*
X010981Y003128D01*
X010981Y002772D01*
X011233Y002520D01*
X011589Y002520D01*
X011841Y002772D01*
X011841Y003128D01*
X011589Y003380D01*
X011752Y003217D02*
X013322Y003217D01*
X013243Y003119D02*
X011841Y003119D01*
X011841Y003020D02*
X013148Y003020D01*
X013053Y002922D02*
X011841Y002922D01*
X011841Y002823D02*
X012958Y002823D01*
X012863Y002725D02*
X011794Y002725D01*
X011696Y002626D02*
X012768Y002626D01*
X012673Y002528D02*
X011597Y002528D01*
X011638Y002331D02*
X012445Y002331D01*
X012319Y002232D02*
X011737Y002232D01*
X011835Y002134D02*
X012193Y002134D01*
X012067Y002035D02*
X011841Y002035D01*
X011841Y001937D02*
X011941Y001937D01*
X012572Y002429D02*
X011219Y002429D01*
X011225Y002528D02*
X011129Y002528D01*
X011127Y002626D02*
X011040Y002626D01*
X011028Y002725D02*
X010794Y002725D01*
X010841Y002823D02*
X010981Y002823D01*
X010981Y002922D02*
X010841Y002922D01*
X010841Y003020D02*
X010981Y003020D01*
X010981Y003119D02*
X010841Y003119D01*
X010752Y003217D02*
X011071Y003217D01*
X011169Y003316D02*
X010653Y003316D01*
X011233Y003720D02*
X011589Y003720D01*
X011841Y003972D01*
X011841Y004328D01*
X011589Y004580D01*
X011233Y004580D01*
X010981Y004328D01*
X010981Y003972D01*
X011233Y003720D01*
X011145Y003808D02*
X007747Y003808D01*
X007834Y003710D02*
X013680Y003710D01*
X013609Y003611D02*
X007921Y003611D01*
X008008Y003513D02*
X013537Y003513D01*
X013752Y003808D02*
X013178Y003808D01*
X013089Y003720D02*
X013341Y003972D01*
X013341Y004328D01*
X013089Y004580D01*
X012733Y004580D01*
X012481Y004328D01*
X012481Y003972D01*
X012733Y003720D01*
X013089Y003720D01*
X013276Y003907D02*
X013823Y003907D01*
X013882Y004005D02*
X013341Y004005D01*
X013341Y004104D02*
X013935Y004104D01*
X013987Y004202D02*
X013341Y004202D01*
X013341Y004301D02*
X014039Y004301D01*
X014092Y004399D02*
X013270Y004399D01*
X013171Y004498D02*
X014144Y004498D01*
X014196Y004596D02*
X007052Y004596D01*
X007138Y004498D02*
X011151Y004498D01*
X011053Y004399D02*
X007225Y004399D01*
X007312Y004301D02*
X010981Y004301D01*
X010981Y004202D02*
X007399Y004202D01*
X007486Y004104D02*
X010981Y004104D01*
X010981Y004005D02*
X007573Y004005D01*
X007660Y003907D02*
X011046Y003907D01*
X011678Y003808D02*
X012645Y003808D01*
X012546Y003907D02*
X011776Y003907D01*
X011841Y004005D02*
X012481Y004005D01*
X012481Y004104D02*
X011841Y004104D01*
X011841Y004202D02*
X012481Y004202D01*
X012481Y004301D02*
X011841Y004301D01*
X011770Y004399D02*
X012553Y004399D01*
X012651Y004498D02*
X011671Y004498D01*
X011711Y005250D02*
X013122Y005288D01*
X013131Y005235D01*
X013131Y005179D01*
X013124Y005149D01*
X013096Y005110D01*
X013055Y005084D01*
X013041Y005080D01*
X009630Y005080D01*
X009674Y005124D01*
X009721Y005238D01*
X009721Y005362D01*
X009676Y005470D01*
X009750Y005440D01*
X009873Y005440D01*
X009987Y005487D01*
X010074Y005574D01*
X010121Y005688D01*
X010121Y005812D01*
X010074Y005926D01*
X009987Y006013D01*
X009889Y006053D01*
X010077Y006053D01*
X010154Y006130D01*
X010154Y006147D01*
X010159Y006126D01*
X010179Y006091D01*
X010207Y006063D01*
X010241Y006044D01*
X010279Y006033D01*
X010448Y006033D01*
X010448Y006352D01*
X010544Y006352D01*
X010544Y006033D01*
X010713Y006033D01*
X010751Y006044D01*
X010785Y006063D01*
X010813Y006091D01*
X010833Y006126D01*
X010843Y006164D01*
X010843Y006352D01*
X010544Y006352D01*
X010544Y006448D01*
X010843Y006448D01*
X010843Y006636D01*
X010833Y006674D01*
X010813Y006709D01*
X010785Y006737D01*
X010767Y006747D01*
X010770Y006748D01*
X010798Y006776D01*
X010818Y006811D01*
X010828Y006849D01*
X010828Y007017D01*
X010510Y007017D01*
X010510Y007114D01*
X010828Y007114D01*
X010828Y007282D01*
X010818Y007320D01*
X010798Y007354D01*
X010770Y007382D01*
X010736Y007402D01*
X010714Y007408D01*
X010732Y007408D01*
X010808Y007484D01*
X010808Y007985D01*
X010732Y008061D01*
X010711Y008061D01*
X010724Y008074D01*
X010771Y008188D01*
X010771Y008312D01*
X010724Y008426D01*
X010637Y008513D01*
X010523Y008560D01*
X010400Y008560D01*
X010286Y008513D01*
X010199Y008426D01*
X010151Y008312D01*
X010151Y008188D01*
X010199Y008074D01*
X010211Y008061D01*
X010191Y008061D01*
X010136Y008007D01*
X010082Y008061D01*
X009739Y008061D01*
X009587Y008214D01*
X009385Y008214D01*
X009385Y008294D01*
X009461Y008219D01*
X009962Y008219D01*
X010038Y008295D01*
X010038Y008836D01*
X009974Y008900D01*
X010038Y008964D01*
X010038Y009505D01*
X009962Y009581D01*
X009461Y009581D01*
X009384Y009505D01*
X009384Y009493D01*
X009319Y009493D01*
X009309Y009503D01*
X008811Y009503D01*
X008735Y009427D01*
X008735Y009200D01*
X008749Y009185D01*
X008735Y009171D01*
X008735Y008944D01*
X008738Y008941D01*
X008725Y008919D01*
X008715Y008881D01*
X008715Y008802D01*
X009060Y008802D01*
X009060Y008802D01*
X008715Y008802D01*
X008715Y008722D01*
X008725Y008684D01*
X008727Y008680D01*
X008414Y008680D01*
X008343Y008682D01*
X008340Y008680D01*
X008337Y008680D01*
X008286Y008629D01*
X008191Y008540D01*
X008191Y008587D01*
X008200Y008649D01*
X008192Y008659D01*
X008208Y010022D01*
X010111Y010000D01*
X010761Y009500D01*
X010900Y009544D01*
X010895Y009511D01*
X010900Y009472D01*
X011272Y008576D01*
X011687Y008748D01*
X011726Y008656D01*
X011310Y008483D01*
X011681Y007588D01*
X011705Y007556D01*
X011736Y007532D01*
X011773Y007517D01*
X011812Y007512D01*
X011847Y007517D01*
X011611Y007350D01*
X011711Y005250D01*
X011710Y005286D02*
X009721Y005286D01*
X009712Y005384D02*
X011705Y005384D01*
X011700Y005483D02*
X009977Y005483D01*
X010077Y005581D02*
X011696Y005581D01*
X011691Y005680D02*
X010118Y005680D01*
X010121Y005778D02*
X011686Y005778D01*
X011681Y005877D02*
X010094Y005877D01*
X010024Y005975D02*
X011677Y005975D01*
X011672Y006074D02*
X010795Y006074D01*
X010843Y006172D02*
X011667Y006172D01*
X011663Y006271D02*
X010843Y006271D01*
X010843Y006468D02*
X011653Y006468D01*
X011649Y006566D02*
X010843Y006566D01*
X010835Y006665D02*
X011644Y006665D01*
X011639Y006763D02*
X010785Y006763D01*
X010828Y006862D02*
X011635Y006862D01*
X011630Y006960D02*
X010828Y006960D01*
X010828Y007157D02*
X011620Y007157D01*
X011625Y007059D02*
X010510Y007059D01*
X010510Y007017D02*
X010510Y006719D01*
X010544Y006719D01*
X010544Y006448D01*
X010448Y006448D01*
X010448Y006767D01*
X010413Y006767D01*
X010413Y007017D01*
X010510Y007017D01*
X010510Y006960D02*
X010413Y006960D01*
X010413Y006862D02*
X010510Y006862D01*
X010510Y006763D02*
X010448Y006763D01*
X010448Y006665D02*
X010544Y006665D01*
X010544Y006566D02*
X010448Y006566D01*
X010448Y006468D02*
X010544Y006468D01*
X010544Y006369D02*
X011658Y006369D01*
X011616Y007256D02*
X010828Y007256D01*
X010798Y007354D02*
X011618Y007354D01*
X011757Y007453D02*
X010777Y007453D01*
X010808Y007551D02*
X011711Y007551D01*
X011655Y007650D02*
X010808Y007650D01*
X010808Y007749D02*
X011614Y007749D01*
X011573Y007847D02*
X010808Y007847D01*
X010808Y007946D02*
X011533Y007946D01*
X011492Y008044D02*
X010749Y008044D01*
X010752Y008143D02*
X011451Y008143D01*
X011410Y008241D02*
X010771Y008241D01*
X010760Y008340D02*
X011369Y008340D01*
X011329Y008438D02*
X010712Y008438D01*
X010580Y008537D02*
X011438Y008537D01*
X011414Y008635D02*
X011676Y008635D01*
X011693Y008734D02*
X011652Y008734D01*
X011247Y008635D02*
X010038Y008635D01*
X010038Y008537D02*
X010343Y008537D01*
X010211Y008438D02*
X010038Y008438D01*
X010038Y008340D02*
X010163Y008340D01*
X010151Y008241D02*
X009984Y008241D01*
X010170Y008143D02*
X009658Y008143D01*
X009512Y008034D02*
X009811Y007735D01*
X010099Y008044D02*
X010173Y008044D01*
X010461Y008250D02*
X010461Y007735D01*
X009811Y007065D02*
X009811Y006415D01*
X009827Y006400D01*
X009413Y005987D01*
X009060Y005987D01*
X008861Y005750D02*
X009811Y005750D01*
X010098Y006074D02*
X010196Y006074D01*
X010448Y006074D02*
X010544Y006074D01*
X010544Y006172D02*
X010448Y006172D01*
X010448Y006271D02*
X010544Y006271D01*
X009700Y005187D02*
X013131Y005187D01*
X013123Y005286D02*
X013043Y005286D01*
X013311Y005250D02*
X013315Y005216D01*
X013314Y005182D01*
X013311Y005148D01*
X013303Y005115D01*
X013291Y005083D01*
X013277Y005052D01*
X013258Y005023D01*
X013237Y004997D01*
X013213Y004973D01*
X013186Y004952D01*
X013157Y004933D01*
X013126Y004919D01*
X013094Y004908D01*
X013061Y004900D01*
X007861Y004900D01*
X007708Y004734D02*
X007708Y004734D01*
X007598Y004793D02*
X006878Y004793D01*
X006965Y004695D02*
X014249Y004695D01*
X014301Y004793D02*
X013274Y004793D01*
X013186Y004738D02*
X013186Y004738D01*
X013386Y004892D02*
X014339Y004892D01*
X014374Y004990D02*
X013457Y004990D01*
X013461Y004997D02*
X013461Y004997D01*
X013483Y005089D02*
X014410Y005089D01*
X014446Y005187D02*
X013504Y005187D01*
X013505Y005185D02*
X013505Y005185D01*
X013491Y005286D02*
X014482Y005286D01*
X014061Y005384D02*
X013564Y005384D01*
X013567Y005483D02*
X014061Y005483D01*
X014061Y005581D02*
X013570Y005581D01*
X013573Y005680D02*
X014061Y005680D01*
X014061Y005778D02*
X013576Y005778D01*
X013579Y005877D02*
X014061Y005877D01*
X014061Y005975D02*
X013582Y005975D01*
X013585Y006074D02*
X013618Y006074D01*
X013793Y006074D02*
X013841Y006074D01*
X013841Y006172D02*
X013793Y006172D01*
X013793Y006271D02*
X013841Y006271D01*
X013841Y006387D02*
X013793Y006387D01*
X013793Y006713D01*
X013841Y006713D01*
X013841Y006439D01*
X013841Y006387D01*
X013841Y006468D02*
X013793Y006468D01*
X013793Y006566D02*
X013841Y006566D01*
X013841Y006665D02*
X013793Y006665D01*
X013311Y006524D02*
X013311Y005250D01*
X013063Y005089D02*
X009639Y005089D01*
X009411Y005300D02*
X008796Y005300D01*
X008861Y005750D02*
X008711Y005850D01*
X008711Y006400D01*
X008810Y006498D01*
X009060Y006498D01*
X009056Y006750D02*
X009060Y006754D01*
X009056Y006750D02*
X008661Y006750D01*
X008311Y006400D01*
X008311Y006150D01*
X007961Y005850D02*
X007961Y007000D01*
X008561Y007250D02*
X008801Y007010D01*
X009060Y007010D01*
X009060Y007266D02*
X009060Y007522D01*
X009038Y007500D01*
X008661Y007600D01*
X008833Y007778D02*
X008511Y008150D01*
X008411Y008500D02*
X007611Y007750D01*
X007611Y005400D01*
X007711Y005300D01*
X008127Y005300D01*
X007861Y004900D02*
X007818Y004907D01*
X007775Y004917D01*
X007733Y004930D01*
X007693Y004948D01*
X007655Y004968D01*
X007618Y004992D01*
X007584Y005019D01*
X007552Y005049D01*
X007522Y005082D01*
X007496Y005117D01*
X007473Y005154D01*
X007453Y005194D01*
X007437Y005234D01*
X007425Y005276D01*
X007416Y005319D01*
X007410Y005362D01*
X007409Y005406D01*
X007411Y005450D01*
X007411Y006361D01*
X007231Y006369D02*
X007092Y006369D01*
X007088Y006468D02*
X007216Y006468D01*
X007175Y006566D02*
X007088Y006566D01*
X007088Y006665D02*
X007109Y006665D01*
X006763Y006754D02*
X005822Y006754D01*
X005327Y007250D01*
X005327Y006965D01*
X004611Y006250D01*
X003301Y006250D01*
X003301Y006250D01*
X003011Y005400D02*
X003064Y005373D01*
X003119Y005350D01*
X003175Y005330D01*
X003232Y005313D01*
X003290Y005301D01*
X003349Y005292D01*
X003408Y005286D01*
X003467Y005285D01*
X003527Y005287D01*
X003586Y005294D01*
X003645Y005303D01*
X003702Y005317D01*
X003759Y005334D01*
X003815Y005355D01*
X003869Y005380D01*
X003922Y005407D01*
X003972Y005439D01*
X004021Y005473D01*
X004067Y005510D01*
X004111Y005550D01*
X004211Y005384D02*
X007224Y005384D01*
X007233Y005286D02*
X006614Y005286D01*
X006690Y005187D02*
X007263Y005187D01*
X007292Y005089D02*
X006721Y005089D01*
X006721Y004990D02*
X007365Y004990D01*
X007445Y004892D02*
X006791Y004892D01*
X006658Y004498D02*
X002900Y004498D01*
X002998Y004399D02*
X006745Y004399D01*
X006832Y004301D02*
X003061Y004301D01*
X003061Y004202D02*
X006919Y004202D01*
X007006Y004104D02*
X002661Y004104D01*
X002661Y004005D02*
X002561Y004005D01*
X002561Y003907D02*
X002661Y003907D01*
X002661Y003808D02*
X002561Y003808D01*
X002561Y003710D02*
X002661Y003710D01*
X002808Y003710D02*
X007354Y003710D01*
X007267Y003808D02*
X002906Y003808D01*
X003005Y003907D02*
X007180Y003907D01*
X007093Y004005D02*
X003061Y004005D01*
X003631Y003418D02*
X003571Y003274D01*
X003571Y003119D01*
X003631Y002976D01*
X003740Y002866D01*
X003884Y002807D01*
X004039Y002807D01*
X004182Y002866D01*
X004292Y002976D01*
X004351Y003119D01*
X005474Y003119D01*
X005471Y003217D02*
X004351Y003217D01*
X004351Y003274D02*
X004292Y003418D01*
X004182Y003527D01*
X004039Y003587D01*
X003884Y003587D01*
X003740Y003527D01*
X003631Y003418D01*
X003629Y003414D02*
X002350Y003414D01*
X002432Y003316D02*
X003589Y003316D01*
X003571Y003217D02*
X002515Y003217D01*
X002598Y003119D02*
X003571Y003119D01*
X003612Y003020D02*
X002680Y003020D01*
X002763Y002922D02*
X003684Y002922D01*
X004079Y002823D02*
X005759Y002823D01*
X005591Y002922D02*
X004238Y002922D01*
X004310Y003020D02*
X005515Y003020D01*
X005486Y003316D02*
X004334Y003316D01*
X004351Y003274D02*
X004351Y003119D01*
X004293Y003414D02*
X005527Y003414D01*
X005619Y003513D02*
X004197Y003513D01*
X003726Y003513D02*
X002267Y003513D01*
X002161Y004202D02*
X001831Y004202D01*
X001770Y004301D02*
X002161Y004301D01*
X002224Y004399D02*
X001715Y004399D01*
X001671Y004498D02*
X002323Y004498D01*
X002421Y004596D02*
X001627Y004596D01*
X001495Y004892D02*
X006141Y004892D01*
X006101Y004990D02*
X001452Y004990D01*
X001408Y005089D02*
X006101Y005089D01*
X006133Y005187D02*
X003887Y005187D01*
X003788Y005139D02*
X003788Y005139D01*
X004088Y005286D02*
X006209Y005286D01*
X005896Y005877D02*
X004853Y005877D01*
X004702Y005778D02*
X007231Y005778D01*
X007231Y005680D02*
X004551Y005680D01*
X004418Y005581D02*
X007231Y005581D01*
X007231Y005483D02*
X004307Y005483D01*
X004109Y005296D02*
X004109Y005296D01*
X003011Y005399D02*
X002966Y005426D01*
X002922Y005456D01*
X002881Y005489D01*
X002842Y005525D01*
X002805Y005563D01*
X002771Y005604D01*
X002740Y005647D01*
X002712Y005692D01*
X002687Y005738D01*
X002666Y005787D01*
X002647Y005836D01*
X002633Y005887D01*
X002621Y005939D01*
X002613Y005991D01*
X002609Y006044D01*
X002608Y006097D01*
X002611Y006150D01*
X002361Y006074D02*
X001784Y006074D01*
X001787Y006172D02*
X001798Y006172D01*
X001781Y005975D02*
X002361Y005975D01*
X002361Y005877D02*
X001778Y005877D01*
X001775Y005778D02*
X002361Y005778D01*
X002361Y005680D02*
X001773Y005680D01*
X001770Y005581D02*
X002361Y005581D01*
X002361Y005483D02*
X001767Y005483D01*
X001764Y005384D02*
X002361Y005384D01*
X002845Y005286D02*
X001325Y005286D01*
X001364Y005187D02*
X003024Y005187D01*
X002104Y006172D02*
X002056Y006172D01*
X002056Y006271D02*
X002104Y006271D01*
X002104Y006412D02*
X002056Y006412D01*
X002056Y006686D01*
X002056Y006738D01*
X002104Y006738D01*
X002104Y006412D01*
X002104Y006468D02*
X002056Y006468D01*
X002056Y006566D02*
X002104Y006566D01*
X002104Y006665D02*
X002056Y006665D01*
X002612Y006575D02*
X002619Y006469D01*
X002621Y006363D01*
X002619Y006256D01*
X002612Y006150D01*
X004029Y007602D02*
X004033Y007608D01*
X004404Y008504D01*
X003989Y008676D01*
X004027Y008768D01*
X004443Y008596D01*
X004814Y009492D01*
X004819Y009531D01*
X004814Y009570D01*
X004804Y009594D01*
X005011Y009550D01*
X005036Y009568D01*
X005040Y009561D01*
X005051Y009550D01*
X005040Y009539D01*
X005020Y009505D01*
X005010Y009467D01*
X005010Y009298D01*
X005328Y009298D01*
X005328Y009202D01*
X005010Y009202D01*
X005010Y009033D01*
X005020Y008995D01*
X005040Y008961D01*
X005068Y008933D01*
X005102Y008913D01*
X005140Y008903D01*
X005328Y008903D01*
X005328Y009202D01*
X005425Y009202D01*
X005425Y008903D01*
X005575Y008903D01*
X005399Y008727D01*
X005056Y008727D01*
X004980Y008651D01*
X004980Y008149D01*
X005015Y008114D01*
X004990Y008089D01*
X004970Y008055D01*
X004960Y008017D01*
X004960Y007848D01*
X005278Y007848D01*
X005278Y007752D01*
X004960Y007752D01*
X004960Y007583D01*
X004970Y007545D01*
X004990Y007511D01*
X004990Y007511D01*
X004980Y007501D01*
X004980Y006999D01*
X005043Y006936D01*
X004537Y006430D01*
X004211Y006430D01*
X004211Y007500D01*
X004029Y007602D01*
X004051Y007650D02*
X004960Y007650D01*
X004960Y007749D02*
X004092Y007749D01*
X004132Y007847D02*
X005278Y007847D01*
X004960Y007946D02*
X004173Y007946D01*
X004214Y008044D02*
X004967Y008044D01*
X004987Y008143D02*
X004255Y008143D01*
X004296Y008241D02*
X004980Y008241D01*
X004980Y008340D02*
X004336Y008340D01*
X004377Y008438D02*
X004980Y008438D01*
X004980Y008537D02*
X004325Y008537D01*
X004348Y008635D02*
X004087Y008635D01*
X004111Y008734D02*
X004013Y008734D01*
X004459Y008635D02*
X004980Y008635D01*
X005073Y008931D02*
X004581Y008931D01*
X004622Y009029D02*
X005011Y009029D01*
X005010Y009128D02*
X004663Y009128D01*
X004704Y009226D02*
X005328Y009226D01*
X005328Y009298D02*
X005328Y009776D01*
X005364Y009802D01*
X005425Y009802D01*
X005425Y009503D01*
X005425Y009298D01*
X005328Y009298D01*
X005328Y009325D02*
X005425Y009325D01*
X005425Y009423D02*
X005328Y009423D01*
X005328Y009522D02*
X005425Y009522D01*
X005425Y009620D02*
X005328Y009620D01*
X005328Y009719D02*
X005425Y009719D01*
X005030Y009522D02*
X004818Y009522D01*
X004785Y009423D02*
X005010Y009423D01*
X005010Y009325D02*
X004744Y009325D01*
X004540Y008832D02*
X005504Y008832D01*
X005425Y008931D02*
X005328Y008931D01*
X005328Y009029D02*
X005425Y009029D01*
X005425Y009128D02*
X005328Y009128D01*
X005406Y008734D02*
X004500Y008734D01*
X005327Y008400D02*
X005777Y008850D01*
X006211Y008850D01*
X006516Y008546D01*
X006763Y008546D01*
X007557Y008546D01*
X007661Y008650D01*
X008012Y008600D02*
X008005Y008565D01*
X007995Y008531D01*
X007981Y008497D01*
X007965Y008466D01*
X007945Y008436D01*
X007923Y008408D01*
X007898Y008383D01*
X007871Y008360D01*
X007841Y008340D01*
X007810Y008322D01*
X007777Y008308D01*
X007743Y008298D01*
X007708Y008290D01*
X007672Y008287D01*
X007637Y008286D01*
X007601Y008289D01*
X007601Y008290D02*
X006763Y008290D01*
X006763Y008034D02*
X006362Y008034D01*
X005996Y008400D01*
X005996Y007800D02*
X005996Y007778D01*
X006763Y007778D01*
X006763Y007266D02*
X005996Y007266D01*
X005996Y007250D01*
X006461Y006500D02*
X006763Y006498D01*
X006763Y007010D02*
X006811Y007008D01*
X006860Y007003D01*
X006907Y006994D01*
X006954Y006981D01*
X007000Y006965D01*
X007045Y006946D01*
X007088Y006923D01*
X007129Y006897D01*
X007168Y006868D01*
X007204Y006837D01*
X007239Y006802D01*
X007270Y006766D01*
X007299Y006727D01*
X007325Y006686D01*
X007348Y006643D01*
X007367Y006598D01*
X007383Y006552D01*
X007396Y006505D01*
X007405Y006458D01*
X007410Y006409D01*
X007412Y006361D01*
X007231Y006271D02*
X007108Y006271D01*
X007108Y006243D02*
X006763Y006243D01*
X006763Y006243D01*
X007108Y006243D01*
X007108Y006172D02*
X007231Y006172D01*
X007231Y006074D02*
X007088Y006074D01*
X007088Y005975D02*
X007231Y005975D01*
X007231Y005877D02*
X007088Y005877D01*
X006763Y005987D02*
X006225Y005987D01*
X006111Y006100D01*
X006335Y006315D02*
X006418Y006318D01*
X006418Y006243D01*
X006763Y006243D01*
X006763Y006243D01*
X006418Y006243D01*
X006418Y006171D01*
X006374Y006276D01*
X006335Y006315D01*
X006376Y006271D02*
X006418Y006271D01*
X006417Y006172D02*
X006418Y006172D01*
X005806Y006172D02*
X005505Y006172D01*
X005261Y006074D02*
X005801Y006074D01*
X005827Y005975D02*
X005017Y005975D01*
X004575Y006468D02*
X004211Y006468D01*
X004211Y006566D02*
X004673Y006566D01*
X004772Y006665D02*
X004211Y006665D01*
X004211Y006763D02*
X004870Y006763D01*
X004969Y006862D02*
X004211Y006862D01*
X004211Y006960D02*
X005019Y006960D01*
X004980Y007059D02*
X004211Y007059D01*
X004211Y007157D02*
X004980Y007157D01*
X004980Y007256D02*
X004211Y007256D01*
X004211Y007354D02*
X004980Y007354D01*
X004980Y007453D02*
X004211Y007453D01*
X004119Y007551D02*
X004969Y007551D01*
X006238Y009057D02*
X006763Y009057D01*
X007169Y009057D01*
X007361Y009250D01*
X007063Y008801D02*
X007116Y008805D01*
X007168Y008812D01*
X007220Y008823D01*
X007271Y008837D01*
X007321Y008854D01*
X007369Y008875D01*
X007416Y008900D01*
X007461Y008927D01*
X007505Y008957D01*
X007546Y008991D01*
X007584Y009027D01*
X007620Y009065D01*
X007654Y009106D01*
X007684Y009149D01*
X007712Y009194D01*
X007736Y009241D01*
X007758Y009290D01*
X007775Y009340D01*
X007790Y009390D01*
X007801Y009442D01*
X007808Y009494D01*
X007811Y009547D01*
X007812Y009600D01*
X007811Y009600D02*
X007811Y012900D01*
X008061Y012950D02*
X008011Y008600D01*
X008198Y008635D02*
X008292Y008635D01*
X008193Y008734D02*
X008715Y008734D01*
X008715Y008832D02*
X008194Y008832D01*
X008195Y008931D02*
X008732Y008931D01*
X008735Y009029D02*
X008196Y009029D01*
X008197Y009128D02*
X008735Y009128D01*
X008735Y009226D02*
X008199Y009226D01*
X008200Y009325D02*
X008735Y009325D01*
X008735Y009423D02*
X008201Y009423D01*
X008202Y009522D02*
X009401Y009522D01*
X009633Y009313D02*
X009060Y009313D01*
X009060Y009057D02*
X009354Y009057D01*
X009361Y009050D01*
X009361Y008915D01*
X009711Y008565D01*
X010038Y008734D02*
X011206Y008734D01*
X011165Y008832D02*
X010038Y008832D01*
X010004Y008931D02*
X011125Y008931D01*
X011084Y009029D02*
X010038Y009029D01*
X010038Y009128D02*
X011043Y009128D01*
X011002Y009226D02*
X010038Y009226D01*
X010038Y009325D02*
X010961Y009325D01*
X010921Y009423D02*
X010038Y009423D01*
X010022Y009522D02*
X010733Y009522D01*
X010829Y009522D02*
X010897Y009522D01*
X010605Y009620D02*
X008203Y009620D01*
X008204Y009719D02*
X010477Y009719D01*
X010349Y009817D02*
X008205Y009817D01*
X008206Y009916D02*
X010221Y009916D01*
X010160Y010450D02*
X008311Y010450D01*
X008311Y011400D01*
X008358Y012343D01*
X008371Y012333D01*
X008581Y012246D01*
X008692Y012512D01*
X008763Y012483D01*
X008793Y012554D01*
X009123Y012417D01*
X009123Y012417D01*
X009321Y012335D01*
X009292Y012264D01*
X008962Y012400D01*
X008763Y012483D01*
X008653Y012216D01*
X008863Y012129D01*
X008902Y012124D01*
X008926Y012127D01*
X008940Y012108D01*
X008972Y012084D01*
X009181Y011997D01*
X009292Y012264D01*
X009363Y012234D01*
X009253Y011968D01*
X009463Y011881D01*
X009502Y011875D01*
X009541Y011881D01*
X009577Y011896D01*
X009609Y011920D01*
X009633Y011951D01*
X009693Y012097D01*
X009363Y012234D01*
X009393Y012305D01*
X009723Y012169D01*
X009749Y012232D01*
X009811Y012200D01*
X011061Y011200D01*
X010878Y011016D01*
X010802Y011092D01*
X010484Y010774D01*
X010413Y010844D01*
X010343Y010774D01*
X009565Y011552D01*
X009339Y011325D01*
X009319Y011291D01*
X009309Y011253D01*
X009309Y011214D01*
X009319Y011175D01*
X009339Y011141D01*
X010024Y010455D01*
X010343Y010774D01*
X010413Y010703D01*
X010160Y010450D01*
X010217Y010507D02*
X010075Y010507D01*
X009973Y010507D02*
X008311Y010507D01*
X008311Y010605D02*
X009875Y010605D01*
X009776Y010704D02*
X008311Y010704D01*
X008311Y010802D02*
X009678Y010802D01*
X009579Y010901D02*
X008311Y010901D01*
X008311Y010999D02*
X009481Y010999D01*
X009382Y011098D02*
X008311Y011098D01*
X008311Y011196D02*
X009313Y011196D01*
X009321Y011295D02*
X008311Y011295D01*
X008311Y011393D02*
X009406Y011393D01*
X009505Y011492D02*
X008316Y011492D01*
X008321Y011590D02*
X009668Y011590D01*
X009635Y011622D02*
X009862Y011848D01*
X009896Y011868D01*
X009934Y011878D01*
X009973Y011878D01*
X010012Y011868D01*
X010046Y011848D01*
X010732Y011163D01*
X010413Y010844D01*
X009635Y011622D01*
X009702Y011689D02*
X008326Y011689D01*
X008331Y011787D02*
X009800Y011787D01*
X009646Y011984D02*
X010081Y011984D01*
X009958Y012083D02*
X009687Y012083D01*
X009693Y012181D02*
X009491Y012181D01*
X009455Y012280D02*
X009382Y012280D01*
X009298Y012280D02*
X009254Y012280D01*
X009258Y012181D02*
X009341Y012181D01*
X009300Y012083D02*
X009217Y012083D01*
X009260Y011984D02*
X008341Y011984D01*
X008345Y012083D02*
X008975Y012083D01*
X008737Y012181D02*
X008350Y012181D01*
X008355Y012280D02*
X008500Y012280D01*
X008595Y012280D02*
X008679Y012280D01*
X008720Y012378D02*
X008636Y012378D01*
X008677Y012477D02*
X008760Y012477D01*
X008778Y012477D02*
X008980Y012477D01*
X008962Y012400D02*
X008962Y012400D01*
X009016Y012378D02*
X009217Y012378D01*
X009516Y013554D02*
X009466Y013587D01*
X009413Y013617D01*
X009358Y013643D01*
X009302Y013665D01*
X009245Y013684D01*
X009186Y013699D01*
X009127Y013711D01*
X009067Y013718D01*
X009007Y013722D01*
X008946Y013721D01*
X008886Y013717D01*
X008826Y013709D01*
X008767Y013697D01*
X008709Y013681D01*
X008651Y013662D01*
X008596Y013638D01*
X008541Y013612D01*
X008489Y013582D01*
X008439Y013548D01*
X008391Y013511D01*
X008345Y013472D01*
X008302Y013429D01*
X008262Y013384D01*
X008225Y013336D01*
X008191Y013286D01*
X008161Y013234D01*
X008134Y013180D01*
X008110Y013124D01*
X008090Y013067D01*
X008074Y013009D01*
X008061Y012950D01*
X007911Y013400D02*
X007711Y013750D01*
X007361Y014050D01*
X006911Y014150D01*
X006897Y014142D01*
X006918Y014170D01*
X006934Y014207D01*
X006939Y014246D01*
X006934Y014285D01*
X006873Y014431D01*
X006543Y014295D01*
X006513Y014366D01*
X006843Y014503D01*
X006824Y014549D01*
X007180Y014612D01*
X007550Y014625D01*
X007461Y014536D01*
X007461Y014400D01*
X007861Y014400D01*
X007861Y014300D01*
X007461Y014300D01*
X007461Y014164D01*
X007725Y013900D01*
X007861Y013900D01*
X007861Y014300D01*
X007961Y014300D01*
X007961Y013900D01*
X008098Y013900D01*
X008361Y014164D01*
X008361Y014300D01*
X007961Y014300D01*
X007961Y014400D01*
X008361Y014400D01*
X008361Y014536D01*
X008263Y014634D01*
X009127Y014544D01*
X009144Y014539D01*
X009129Y014503D01*
X009459Y014366D01*
X009430Y014295D01*
X009100Y014431D01*
X009039Y014285D01*
X009034Y014246D01*
X009039Y014207D01*
X009054Y014170D01*
X009078Y014139D01*
X009110Y014115D01*
X009320Y014028D01*
X009430Y014295D01*
X009501Y014265D01*
X009391Y013998D01*
X009601Y013911D01*
X009640Y013906D01*
X009664Y013909D01*
X009678Y013890D01*
X009710Y013866D01*
X009920Y013779D01*
X010030Y014046D01*
X009700Y014183D01*
X009501Y014265D01*
X009531Y014336D01*
X009861Y014200D01*
X010060Y014117D01*
X010030Y014046D01*
X010101Y014016D01*
X009991Y013750D01*
X010201Y013663D01*
X010240Y013658D01*
X010279Y013663D01*
X010316Y013678D01*
X010347Y013702D01*
X010371Y013733D01*
X010432Y013880D01*
X010101Y014016D01*
X010131Y014088D01*
X010461Y013951D01*
X010522Y014097D01*
X010525Y014125D01*
X010980Y013942D01*
X011121Y013860D01*
X010661Y013400D01*
X009861Y013400D01*
X009811Y013750D01*
X008911Y014150D01*
X008411Y014050D01*
X008111Y013750D01*
X007911Y013400D01*
X007876Y013462D02*
X007946Y013462D01*
X008003Y013560D02*
X007820Y013560D01*
X007764Y013659D02*
X008059Y013659D01*
X008118Y013757D02*
X007703Y013757D01*
X007588Y013856D02*
X008217Y013856D01*
X008152Y013954D02*
X008315Y013954D01*
X008250Y014053D02*
X008424Y014053D01*
X008349Y014151D02*
X009069Y014151D01*
X009034Y014250D02*
X008361Y014250D01*
X008361Y014447D02*
X009265Y014447D01*
X009301Y014348D02*
X009452Y014348D01*
X009411Y014250D02*
X009495Y014250D01*
X009539Y014250D02*
X009740Y014250D01*
X009700Y014183D02*
X009700Y014183D01*
X009777Y014151D02*
X009978Y014151D01*
X010014Y014053D02*
X010033Y014053D01*
X010116Y014053D02*
X010216Y014053D01*
X010252Y013954D02*
X010454Y013954D01*
X010462Y013954D02*
X010949Y013954D01*
X011117Y013856D02*
X010422Y013856D01*
X010381Y013757D02*
X011018Y013757D01*
X010920Y013659D02*
X010246Y013659D01*
X010234Y013659D02*
X009824Y013659D01*
X009838Y013560D02*
X010821Y013560D01*
X010723Y013462D02*
X009853Y013462D01*
X009796Y013757D02*
X009994Y013757D01*
X009951Y013856D02*
X010035Y013856D01*
X010076Y013954D02*
X009992Y013954D01*
X009736Y013856D02*
X009574Y013856D01*
X009498Y013954D02*
X009352Y013954D01*
X009330Y014053D02*
X009413Y014053D01*
X009371Y014151D02*
X009454Y014151D01*
X009260Y014053D02*
X009131Y014053D01*
X009065Y014348D02*
X007961Y014348D01*
X007961Y014250D02*
X007861Y014250D01*
X007861Y014348D02*
X006907Y014348D01*
X006938Y014250D02*
X007461Y014250D01*
X007474Y014151D02*
X006904Y014151D01*
X006785Y014082D02*
X006161Y013750D01*
X006161Y013656D01*
X006148Y013624D01*
X006161Y013592D01*
X006161Y013400D01*
X005061Y013250D01*
X004538Y013774D01*
X005289Y014140D01*
X005459Y014196D01*
X005451Y014176D01*
X005446Y014136D01*
X005451Y014097D01*
X005511Y013951D01*
X005842Y014088D01*
X005871Y014016D01*
X005943Y014046D01*
X005913Y014117D01*
X006112Y014200D01*
X006112Y014200D01*
X006442Y014336D01*
X006471Y014265D01*
X006273Y014183D01*
X006273Y014183D01*
X005943Y014046D01*
X006053Y013779D01*
X006263Y013866D01*
X006294Y013890D01*
X006309Y013909D01*
X006333Y013906D01*
X006372Y013911D01*
X006582Y013998D01*
X006471Y014265D01*
X006543Y014295D01*
X006653Y014028D01*
X006785Y014082D01*
X006729Y014053D02*
X006712Y014053D01*
X006643Y014053D02*
X006559Y014053D01*
X006544Y013954D02*
X006475Y013954D01*
X006359Y013856D02*
X006237Y013856D01*
X006174Y013757D02*
X005979Y013757D01*
X005982Y013750D02*
X005871Y014016D01*
X005541Y013880D01*
X005602Y013733D01*
X005626Y013702D01*
X005657Y013678D01*
X005693Y013663D01*
X005733Y013658D01*
X005772Y013663D01*
X005982Y013750D01*
X006021Y013856D02*
X005938Y013856D01*
X005897Y013954D02*
X005981Y013954D01*
X005958Y014053D02*
X005940Y014053D01*
X005856Y014053D02*
X005757Y014053D01*
X005721Y013954D02*
X005519Y013954D01*
X005510Y013954D02*
X004907Y013954D01*
X004705Y013856D02*
X005551Y013856D01*
X005592Y013757D02*
X004554Y013757D01*
X004653Y013659D02*
X005726Y013659D01*
X005739Y013659D02*
X006161Y013659D01*
X006161Y013560D02*
X004751Y013560D01*
X004850Y013462D02*
X006161Y013462D01*
X005890Y013363D02*
X004948Y013363D01*
X005047Y013265D02*
X005168Y013265D01*
X005109Y014053D02*
X005469Y014053D01*
X005448Y014151D02*
X005322Y014151D01*
X005995Y014151D02*
X006196Y014151D01*
X006232Y014250D02*
X006434Y014250D01*
X006478Y014250D02*
X006561Y014250D01*
X006521Y014348D02*
X006672Y014348D01*
X006708Y014447D02*
X007461Y014447D01*
X007470Y014545D02*
X006826Y014545D01*
X006602Y014151D02*
X006519Y014151D01*
X007350Y014053D02*
X007572Y014053D01*
X007473Y013954D02*
X007671Y013954D01*
X007861Y013954D02*
X007961Y013954D01*
X007961Y014053D02*
X007861Y014053D01*
X007861Y014151D02*
X007961Y014151D01*
X008353Y014545D02*
X009114Y014545D01*
X009861Y014200D02*
X009861Y014200D01*
X010503Y014053D02*
X010705Y014053D01*
X009835Y012181D02*
X009728Y012181D01*
X009553Y011886D02*
X010204Y011886D01*
X010107Y011787D02*
X010328Y011787D01*
X010206Y011689D02*
X010451Y011689D01*
X010574Y011590D02*
X010304Y011590D01*
X010403Y011492D02*
X010697Y011492D01*
X010820Y011393D02*
X010501Y011393D01*
X010600Y011295D02*
X010943Y011295D01*
X011057Y011196D02*
X010698Y011196D01*
X010666Y011098D02*
X010959Y011098D01*
X010709Y010999D02*
X010568Y010999D01*
X010611Y010901D02*
X010469Y010901D01*
X010456Y010802D02*
X010512Y010802D01*
X010413Y010704D02*
X010272Y010704D01*
X010314Y010802D02*
X010371Y010802D01*
X010357Y010901D02*
X010216Y010901D01*
X010259Y010999D02*
X010117Y010999D01*
X010160Y011098D02*
X010019Y011098D01*
X010062Y011196D02*
X009920Y011196D01*
X009963Y011295D02*
X009822Y011295D01*
X009865Y011393D02*
X009723Y011393D01*
X009766Y011492D02*
X009625Y011492D01*
X009451Y011886D02*
X008336Y011886D01*
X007511Y011886D02*
X006522Y011886D01*
X006510Y011881D02*
X006471Y011875D01*
X006432Y011881D01*
X006395Y011896D01*
X006364Y011920D01*
X006340Y011951D01*
X006279Y012097D01*
X006609Y012234D01*
X006580Y012305D01*
X006250Y012169D01*
X006222Y012235D01*
X005911Y012100D01*
X004761Y011150D01*
X004866Y011038D01*
X004949Y011120D01*
X005267Y010802D01*
X005267Y010802D01*
X005338Y010873D01*
X006115Y011650D01*
X005889Y011877D01*
X005855Y011896D01*
X005817Y011907D01*
X005778Y011907D01*
X005739Y011896D01*
X005705Y011877D01*
X005019Y011191D01*
X005338Y010873D01*
X005408Y010802D01*
X005408Y010802D01*
X006186Y011580D01*
X006412Y011354D01*
X006432Y011319D01*
X006442Y011281D01*
X006442Y011242D01*
X006432Y011204D01*
X006412Y011169D01*
X005727Y010484D01*
X005408Y010802D01*
X005338Y010731D01*
X005656Y010413D01*
X005593Y010350D01*
X007511Y010350D01*
X007511Y012295D01*
X007391Y012246D01*
X007281Y012512D01*
X007210Y012483D01*
X007320Y012216D01*
X007110Y012129D01*
X007071Y012124D01*
X007047Y012127D01*
X007032Y012108D01*
X007001Y012084D01*
X006791Y011997D01*
X006681Y012264D01*
X006651Y012335D01*
X006850Y012417D01*
X007180Y012554D01*
X007210Y012483D01*
X007011Y012400D01*
X007011Y012400D01*
X006681Y012264D01*
X006609Y012234D01*
X006720Y011968D01*
X006510Y011881D01*
X006420Y011886D02*
X005874Y011886D01*
X005771Y011984D02*
X006326Y011984D01*
X006285Y012083D02*
X005890Y012083D01*
X006098Y012181D02*
X006245Y012181D01*
X006280Y012181D02*
X006481Y012181D01*
X006517Y012280D02*
X006591Y012280D01*
X006674Y012280D02*
X006719Y012280D01*
X006715Y012181D02*
X006632Y012181D01*
X006672Y012083D02*
X006756Y012083D01*
X006713Y011984D02*
X007511Y011984D01*
X007511Y012083D02*
X006998Y012083D01*
X007235Y012181D02*
X007511Y012181D01*
X007511Y012280D02*
X007473Y012280D01*
X007377Y012280D02*
X007294Y012280D01*
X007253Y012378D02*
X007337Y012378D01*
X007296Y012477D02*
X007212Y012477D01*
X007195Y012477D02*
X006993Y012477D01*
X006957Y012378D02*
X006755Y012378D01*
X006850Y012417D02*
X006850Y012417D01*
X007811Y012900D02*
X007807Y012965D01*
X007799Y013030D01*
X007787Y013095D01*
X007771Y013158D01*
X007752Y013221D01*
X007729Y013282D01*
X007702Y013342D01*
X007673Y013400D01*
X007639Y013456D01*
X007603Y013510D01*
X007563Y013562D01*
X007521Y013612D01*
X007475Y013659D01*
X007427Y013703D01*
X007376Y013745D01*
X007323Y013783D01*
X007268Y013818D01*
X007211Y013850D01*
X007212Y013851D02*
X007167Y013865D01*
X007122Y013875D01*
X007076Y013883D01*
X007029Y013886D01*
X006983Y013887D01*
X006936Y013883D01*
X006890Y013877D01*
X006845Y013866D01*
X006800Y013853D01*
X006757Y013836D01*
X006715Y013816D01*
X006674Y013792D01*
X006636Y013766D01*
X006600Y013737D01*
X006565Y013705D01*
X006534Y013671D01*
X006505Y013634D01*
X006479Y013596D01*
X006456Y013555D01*
X005721Y011886D02*
X005652Y011886D01*
X005616Y011787D02*
X005532Y011787D01*
X005517Y011689D02*
X005413Y011689D01*
X005419Y011590D02*
X005294Y011590D01*
X005320Y011492D02*
X005175Y011492D01*
X005222Y011393D02*
X005056Y011393D01*
X005123Y011295D02*
X004936Y011295D01*
X005025Y011196D02*
X004817Y011196D01*
X004811Y011098D02*
X004926Y011098D01*
X004971Y011098D02*
X005113Y011098D01*
X005070Y010999D02*
X005211Y010999D01*
X005168Y010901D02*
X005310Y010901D01*
X005365Y010901D02*
X005507Y010901D01*
X005464Y010999D02*
X005605Y010999D01*
X005562Y011098D02*
X005704Y011098D01*
X005661Y011196D02*
X005802Y011196D01*
X005759Y011295D02*
X005901Y011295D01*
X005858Y011393D02*
X005999Y011393D01*
X005956Y011492D02*
X006098Y011492D01*
X006055Y011590D02*
X007511Y011590D01*
X007511Y011492D02*
X006274Y011492D01*
X006373Y011393D02*
X007511Y011393D01*
X007511Y011295D02*
X006439Y011295D01*
X006428Y011196D02*
X007511Y011196D01*
X007511Y011098D02*
X006340Y011098D01*
X006242Y010999D02*
X007511Y010999D01*
X007511Y010901D02*
X006143Y010901D01*
X006045Y010802D02*
X007511Y010802D01*
X007511Y010704D02*
X005946Y010704D01*
X005848Y010605D02*
X007511Y010605D01*
X007511Y010507D02*
X005749Y010507D01*
X005704Y010507D02*
X005562Y010507D01*
X005605Y010605D02*
X005464Y010605D01*
X005507Y010704D02*
X005365Y010704D01*
X005338Y010802D02*
X005338Y010558D01*
X006046Y009850D01*
X006046Y009250D01*
X006238Y009057D01*
X006763Y008802D02*
X007063Y008802D01*
X008411Y008500D02*
X008661Y008500D01*
X008872Y008290D01*
X009060Y008290D01*
X009060Y008034D02*
X009512Y008034D01*
X009438Y008241D02*
X009385Y008241D01*
X009060Y007778D02*
X008833Y007778D01*
X008661Y007600D02*
X008612Y007602D01*
X008564Y007600D01*
X008515Y007595D01*
X008467Y007586D01*
X008420Y007573D01*
X008374Y007557D01*
X008329Y007538D01*
X008286Y007515D01*
X008245Y007489D01*
X008205Y007461D01*
X008168Y007429D01*
X008134Y007394D01*
X008102Y007358D01*
X008073Y007318D01*
X008047Y007277D01*
X008024Y007234D01*
X008005Y007189D01*
X007988Y007143D01*
X007976Y007096D01*
X007966Y007048D01*
X007961Y007000D01*
X007469Y004863D02*
X007469Y004863D01*
X008268Y003217D02*
X009071Y003217D01*
X008981Y003119D02*
X008355Y003119D01*
X009057Y002232D02*
X003492Y002232D01*
X003602Y002134D02*
X008961Y002134D01*
X008177Y000656D02*
X008092Y000656D01*
X006461Y006500D02*
X006299Y006497D01*
X006137Y006486D01*
X005976Y006467D01*
X005815Y006440D01*
X005657Y006406D01*
X005500Y006364D01*
X005345Y006314D01*
X005193Y006257D01*
X005044Y006192D01*
X004898Y006120D01*
X004756Y006042D01*
X004618Y005956D01*
X004484Y005864D01*
X004355Y005765D01*
X004231Y005661D01*
X004112Y005550D01*
X008208Y010014D02*
X008879Y010014D01*
X009633Y009313D02*
X009711Y009235D01*
X010174Y010605D02*
X010315Y010605D01*
X007511Y010408D02*
X005651Y010408D01*
X006077Y011689D02*
X007511Y011689D01*
X007511Y011787D02*
X005979Y011787D01*
X013286Y006550D02*
X013294Y006549D01*
X013301Y006545D01*
X013307Y006539D01*
X013311Y006532D01*
X013312Y006524D01*
X014017Y006074D02*
X014061Y006074D01*
X010911Y002232D02*
X010737Y002232D01*
X010835Y002134D02*
X010987Y002134D01*
X010981Y002035D02*
X010841Y002035D01*
X010841Y001937D02*
X010981Y001937D01*
X010981Y001838D02*
X010841Y001838D01*
X010809Y001740D02*
X011013Y001740D01*
D22*
X012311Y002800D03*
X013811Y004900D03*
X010861Y005500D03*
X009811Y005750D03*
X009411Y005300D03*
X008311Y006150D03*
X007961Y005850D03*
X008561Y007250D03*
X008511Y008150D03*
X007661Y008650D03*
X007361Y009250D03*
X006411Y010850D03*
X006411Y011650D03*
X007161Y011950D03*
X008711Y011950D03*
X009361Y011650D03*
X009361Y010850D03*
X010361Y009400D03*
X010461Y008250D03*
X006411Y005050D03*
X006111Y006100D03*
X005161Y004300D03*
X006611Y002500D03*
X002111Y004950D03*
X005261Y013750D03*
X007161Y014350D03*
X008611Y014350D03*
X010761Y013800D03*
D23*
X011164Y013457D02*
X011478Y013457D01*
X011467Y013468D02*
X012245Y012690D01*
X012160Y012605D01*
X012245Y012520D01*
X012330Y012605D01*
X013107Y011827D01*
X013327Y012047D01*
X013331Y012054D01*
X013508Y011810D01*
X013451Y011810D01*
X013451Y011390D01*
X013371Y011390D01*
X013371Y011310D01*
X012951Y011310D01*
X012951Y011159D01*
X013221Y010890D01*
X013371Y010890D01*
X013371Y011310D01*
X013451Y011310D01*
X013451Y010890D01*
X013602Y010890D01*
X013871Y011159D01*
X013871Y011294D01*
X014065Y010929D01*
X014044Y010926D01*
X013757Y010807D01*
X014178Y009791D01*
X014067Y009745D01*
X013646Y010761D01*
X013359Y010642D01*
X013325Y010616D01*
X013300Y010583D01*
X013284Y010544D01*
X013278Y010502D01*
X013284Y010460D01*
X013651Y009572D01*
X014067Y009745D01*
X014113Y009634D01*
X013697Y009462D01*
X014065Y008574D01*
X014091Y008540D01*
X014124Y008515D01*
X014163Y008498D01*
X014205Y008493D01*
X014247Y008498D01*
X014534Y008617D01*
X014113Y009634D01*
X014224Y009680D01*
X014645Y008663D01*
X014810Y008732D01*
X014833Y008623D01*
X014901Y007650D01*
X012728Y007650D01*
X012861Y007700D02*
X012861Y008150D01*
X012111Y009850D01*
X012111Y010750D01*
X010011Y012400D01*
X009133Y012758D01*
X008663Y012953D01*
X008902Y013479D01*
X008955Y013482D01*
X008985Y013470D01*
X008980Y013468D01*
X008947Y013442D01*
X008921Y013409D01*
X008862Y013266D01*
X009133Y013153D01*
X009123Y013128D01*
X008851Y013240D01*
X008792Y013097D01*
X008786Y013055D01*
X008792Y013013D01*
X008808Y012975D01*
X008834Y012941D01*
X008867Y012915D01*
X009010Y012856D01*
X009123Y013128D01*
X009148Y013117D01*
X009036Y012846D01*
X009179Y012786D01*
X009198Y012784D01*
X009213Y012772D01*
X009356Y012713D01*
X009468Y012985D01*
X009197Y013097D01*
X009148Y013117D01*
X009159Y013143D01*
X009430Y013030D01*
X009479Y013010D01*
X009468Y012985D01*
X009494Y012974D01*
X009504Y012999D01*
X009776Y012887D01*
X009835Y013030D01*
X009840Y013072D01*
X009835Y013114D01*
X009821Y013147D01*
X010861Y013100D01*
X011374Y013703D01*
X011582Y013583D01*
X011467Y013468D01*
X011382Y013383D02*
X011162Y013163D01*
X011141Y013126D01*
X011130Y013086D01*
X011130Y013044D01*
X011141Y013003D01*
X011162Y012966D01*
X011842Y012287D01*
X012160Y012605D01*
X011382Y013383D01*
X011337Y013338D02*
X011064Y013338D01*
X010963Y013220D02*
X011219Y013220D01*
X011134Y013101D02*
X010862Y013101D01*
X010839Y013101D02*
X009837Y013101D01*
X009815Y012983D02*
X011153Y012983D01*
X011265Y012864D02*
X009759Y012864D01*
X009765Y012862D02*
X009494Y012974D01*
X009381Y012703D01*
X009524Y012643D01*
X009566Y012638D01*
X009608Y012643D01*
X009647Y012659D01*
X009680Y012685D01*
X009706Y012718D01*
X009765Y012862D01*
X009717Y012746D02*
X011383Y012746D01*
X011502Y012627D02*
X009454Y012627D01*
X009399Y012746D02*
X009369Y012746D01*
X009277Y012746D02*
X009163Y012746D01*
X009043Y012864D02*
X009013Y012864D01*
X008991Y012864D02*
X008877Y012864D01*
X008805Y012983D02*
X008676Y012983D01*
X008730Y013101D02*
X008794Y013101D01*
X008784Y013220D02*
X008843Y013220D01*
X008901Y013220D02*
X008973Y013220D01*
X008892Y013338D02*
X008838Y013338D01*
X008892Y013457D02*
X008965Y013457D01*
X009112Y013101D02*
X009141Y013101D01*
X009187Y013101D02*
X009259Y013101D01*
X009092Y012983D02*
X009062Y012983D01*
X009418Y012864D02*
X009448Y012864D01*
X009467Y012983D02*
X009473Y012983D01*
X009497Y012983D02*
X009545Y012983D01*
X009745Y012509D02*
X011620Y012509D01*
X011739Y012390D02*
X010024Y012390D01*
X010175Y012272D02*
X011996Y012272D01*
X011927Y012202D02*
X012606Y011522D01*
X012643Y011501D01*
X012683Y011491D01*
X012725Y011491D01*
X012766Y011501D01*
X012803Y011522D01*
X013023Y011742D01*
X012245Y012520D01*
X011927Y012202D01*
X011976Y012153D02*
X010326Y012153D01*
X010477Y012035D02*
X012094Y012035D01*
X012213Y011916D02*
X010627Y011916D01*
X010778Y011798D02*
X012331Y011798D01*
X012450Y011679D02*
X010929Y011679D01*
X011080Y011561D02*
X012568Y011561D01*
X012841Y011561D02*
X012971Y011561D01*
X012951Y011541D02*
X013221Y011810D01*
X013371Y011810D01*
X013371Y011390D01*
X012951Y011390D01*
X012951Y011541D01*
X012951Y011442D02*
X011231Y011442D01*
X011381Y011324D02*
X013371Y011324D01*
X013371Y011442D02*
X013451Y011442D01*
X013451Y011561D02*
X013371Y011561D01*
X013371Y011679D02*
X013451Y011679D01*
X013451Y011798D02*
X013371Y011798D01*
X013431Y011916D02*
X013196Y011916D01*
X013208Y011798D02*
X012967Y011798D01*
X012959Y011679D02*
X013090Y011679D01*
X013019Y011916D02*
X012849Y011916D01*
X012900Y012035D02*
X012730Y012035D01*
X012782Y012153D02*
X012612Y012153D01*
X012663Y012272D02*
X012493Y012272D01*
X012545Y012390D02*
X012375Y012390D01*
X012426Y012509D02*
X012256Y012509D01*
X012233Y012509D02*
X012063Y012509D01*
X012114Y012390D02*
X011945Y012390D01*
X012138Y012627D02*
X012182Y012627D01*
X012189Y012746D02*
X012019Y012746D01*
X012071Y012864D02*
X011901Y012864D01*
X011952Y012983D02*
X011782Y012983D01*
X011834Y013101D02*
X011664Y013101D01*
X011715Y013220D02*
X011545Y013220D01*
X011597Y013338D02*
X011427Y013338D01*
X011574Y013575D02*
X011265Y013575D01*
X011366Y013694D02*
X011390Y013694D01*
X013315Y012035D02*
X013345Y012035D01*
X013371Y011205D02*
X013451Y011205D01*
X013451Y011087D02*
X013371Y011087D01*
X013371Y010968D02*
X013451Y010968D01*
X013680Y010968D02*
X014044Y010968D01*
X013981Y011087D02*
X013798Y011087D01*
X013871Y011205D02*
X013918Y011205D01*
X013860Y010850D02*
X011985Y010850D01*
X012111Y010731D02*
X013574Y010731D01*
X013659Y010731D02*
X013788Y010731D01*
X013837Y010613D02*
X013708Y010613D01*
X013757Y010494D02*
X013887Y010494D01*
X013936Y010376D02*
X013806Y010376D01*
X013855Y010257D02*
X013985Y010257D01*
X014034Y010139D02*
X013904Y010139D01*
X013953Y010020D02*
X014083Y010020D01*
X014132Y009902D02*
X014002Y009902D01*
X014051Y009783D02*
X014160Y009783D01*
X014187Y009665D02*
X014230Y009665D01*
X014279Y009546D02*
X014149Y009546D01*
X014100Y009665D02*
X013874Y009665D01*
X013901Y009546D02*
X012245Y009546D01*
X012193Y009665D02*
X013613Y009665D01*
X013564Y009783D02*
X012141Y009783D01*
X012111Y009902D02*
X013515Y009902D01*
X013466Y010020D02*
X012111Y010020D01*
X012111Y010139D02*
X013417Y010139D01*
X013368Y010257D02*
X012111Y010257D01*
X012111Y010376D02*
X013319Y010376D01*
X013279Y010494D02*
X012111Y010494D01*
X012111Y010613D02*
X013323Y010613D01*
X013143Y010968D02*
X011834Y010968D01*
X011683Y011087D02*
X013024Y011087D01*
X012951Y011205D02*
X011532Y011205D01*
X012298Y009428D02*
X013711Y009428D01*
X013760Y009309D02*
X012350Y009309D01*
X012402Y009191D02*
X013810Y009191D01*
X013859Y009072D02*
X012455Y009072D01*
X012507Y008954D02*
X013908Y008954D01*
X013957Y008835D02*
X012559Y008835D01*
X012611Y008717D02*
X014006Y008717D01*
X014055Y008598D02*
X012664Y008598D01*
X012716Y008480D02*
X014843Y008480D01*
X014835Y008598D02*
X014487Y008598D01*
X014493Y008717D02*
X014623Y008717D01*
X014574Y008835D02*
X014444Y008835D01*
X014395Y008954D02*
X014525Y008954D01*
X014476Y009072D02*
X014346Y009072D01*
X014297Y009191D02*
X014426Y009191D01*
X014377Y009309D02*
X014248Y009309D01*
X014198Y009428D02*
X014328Y009428D01*
X014773Y008717D02*
X014813Y008717D01*
X014852Y008361D02*
X012768Y008361D01*
X012821Y008243D02*
X014860Y008243D01*
X014868Y008124D02*
X012861Y008124D01*
X012861Y008006D02*
X014876Y008006D01*
X014885Y007887D02*
X012861Y007887D01*
X012861Y007769D02*
X014893Y007769D01*
X014901Y007650D02*
X014863Y007103D01*
X014863Y007142D01*
X014852Y007183D01*
X014831Y007219D01*
X014801Y007249D01*
X014765Y007270D01*
X014724Y007281D01*
X014554Y007281D01*
X014554Y006903D01*
X014497Y006903D01*
X014497Y007281D01*
X014328Y007281D01*
X014287Y007270D01*
X014252Y007250D01*
X012870Y007250D01*
X012836Y007270D01*
X012795Y007281D01*
X012625Y007281D01*
X012625Y006903D01*
X012568Y006903D01*
X012568Y006846D01*
X012625Y006846D01*
X012625Y006469D01*
X012625Y006254D01*
X012568Y006254D01*
X012568Y006846D01*
X012260Y006846D01*
X012260Y006608D01*
X012271Y006567D01*
X012280Y006550D01*
X012271Y006533D01*
X012260Y006492D01*
X012260Y006254D01*
X012568Y006254D01*
X012568Y006197D01*
X012260Y006197D01*
X012260Y005958D01*
X012271Y005917D01*
X012292Y005881D01*
X012321Y005851D01*
X012358Y005830D01*
X012399Y005819D01*
X012568Y005819D01*
X012568Y006197D01*
X012625Y006197D01*
X012625Y005819D01*
X012795Y005819D01*
X012811Y005824D01*
X012811Y005700D01*
X012061Y005700D01*
X012061Y007400D01*
X012861Y007700D01*
X012412Y007531D02*
X014893Y007531D01*
X014885Y007413D02*
X012096Y007413D01*
X012061Y007294D02*
X014876Y007294D01*
X014868Y007176D02*
X014854Y007176D01*
X014554Y007176D02*
X014497Y007176D01*
X014497Y007057D02*
X014554Y007057D01*
X014554Y006939D02*
X014497Y006939D01*
X014497Y006846D02*
X014554Y006846D01*
X014554Y006469D01*
X014554Y006254D01*
X014497Y006254D01*
X014497Y006846D01*
X014497Y006820D02*
X014554Y006820D01*
X014554Y006702D02*
X014497Y006702D01*
X014497Y006583D02*
X014554Y006583D01*
X014554Y006465D02*
X014497Y006465D01*
X014497Y006346D02*
X014554Y006346D01*
X014554Y006197D02*
X014554Y005819D01*
X014651Y005819D01*
X014631Y005723D01*
X014622Y005700D01*
X014461Y005700D01*
X014461Y005819D01*
X014497Y005819D01*
X014497Y006197D01*
X014554Y006197D01*
X014554Y006109D02*
X014497Y006109D01*
X014497Y005991D02*
X014554Y005991D01*
X014554Y005872D02*
X014497Y005872D01*
X014461Y005754D02*
X014637Y005754D01*
X012811Y005754D02*
X012061Y005754D01*
X012061Y005872D02*
X012300Y005872D01*
X012260Y005991D02*
X012061Y005991D01*
X012061Y006109D02*
X012260Y006109D01*
X012061Y006228D02*
X012568Y006228D01*
X012568Y006346D02*
X012625Y006346D01*
X012625Y006465D02*
X012568Y006465D01*
X012568Y006583D02*
X012625Y006583D01*
X012625Y006702D02*
X012568Y006702D01*
X012568Y006820D02*
X012625Y006820D01*
X012568Y006903D02*
X012260Y006903D01*
X012260Y007142D01*
X012271Y007183D01*
X012292Y007219D01*
X012321Y007249D01*
X012358Y007270D01*
X012399Y007281D01*
X012568Y007281D01*
X012568Y006903D01*
X012568Y006939D02*
X012625Y006939D01*
X012625Y007057D02*
X012568Y007057D01*
X012568Y007176D02*
X012625Y007176D01*
X012269Y007176D02*
X012061Y007176D01*
X012061Y007057D02*
X012260Y007057D01*
X012260Y006939D02*
X012061Y006939D01*
X012061Y006820D02*
X012260Y006820D01*
X012260Y006702D02*
X012061Y006702D01*
X012061Y006583D02*
X012266Y006583D01*
X012260Y006465D02*
X012061Y006465D01*
X012061Y006346D02*
X012260Y006346D01*
X012568Y006109D02*
X012625Y006109D01*
X012625Y005991D02*
X012568Y005991D01*
X012568Y005872D02*
X012625Y005872D01*
X006790Y012737D02*
X006197Y012492D01*
X006188Y012468D01*
X005911Y012350D01*
X003761Y010750D01*
X003711Y009950D01*
X002961Y008150D01*
X002961Y007800D01*
X003811Y007450D01*
X003811Y005650D01*
X003161Y005600D01*
X003161Y005844D01*
X003272Y005844D01*
X003272Y006221D01*
X003329Y006221D01*
X003329Y005844D01*
X003499Y005844D01*
X003539Y005855D01*
X003576Y005876D01*
X003606Y005906D01*
X003627Y005942D01*
X003638Y005983D01*
X003638Y006221D01*
X003329Y006221D01*
X003329Y006279D01*
X003272Y006279D01*
X003272Y006656D01*
X003272Y006871D01*
X003329Y006871D01*
X003329Y006279D01*
X003638Y006279D01*
X003638Y006517D01*
X003627Y006558D01*
X003617Y006575D01*
X003627Y006592D01*
X003638Y006633D01*
X003638Y006871D01*
X003329Y006871D01*
X003329Y006928D01*
X003638Y006928D01*
X003638Y007167D01*
X003627Y007207D01*
X003606Y007244D01*
X003576Y007274D01*
X003539Y007295D01*
X003499Y007306D01*
X003329Y007306D01*
X003329Y006928D01*
X003272Y006928D01*
X003272Y007306D01*
X003102Y007306D01*
X003062Y007295D01*
X003025Y007274D01*
X003001Y007250D01*
X001671Y007250D01*
X001647Y007274D01*
X001610Y007295D01*
X001570Y007306D01*
X001400Y007306D01*
X001400Y006928D01*
X001343Y006928D01*
X001343Y006871D01*
X001400Y006871D01*
X001400Y006279D01*
X001343Y006279D01*
X001343Y006494D01*
X001343Y006871D01*
X001034Y006871D01*
X001034Y006633D01*
X001045Y006592D01*
X001055Y006575D01*
X001045Y006558D01*
X001034Y006517D01*
X001034Y006480D01*
X000938Y007162D01*
X000938Y008138D01*
X001018Y008705D01*
X001069Y008684D01*
X001490Y009700D01*
X001601Y009654D01*
X001180Y008638D01*
X001468Y008519D01*
X001509Y008513D01*
X001551Y008519D01*
X001590Y008535D01*
X001624Y008560D01*
X001649Y008594D01*
X002017Y009482D01*
X001601Y009654D01*
X001647Y009765D01*
X001536Y009811D01*
X001957Y010827D01*
X001734Y010919D01*
X001740Y010932D01*
X001995Y011340D01*
X002371Y011340D01*
X002371Y011260D01*
X001951Y011260D01*
X001951Y011109D01*
X002221Y010840D01*
X002371Y010840D01*
X002371Y011260D01*
X002451Y011260D01*
X002451Y010840D01*
X002602Y010840D01*
X002871Y011109D01*
X002871Y011260D01*
X002451Y011260D01*
X002451Y011340D01*
X002371Y011340D01*
X002371Y011760D01*
X002257Y011760D01*
X002477Y012022D01*
X002644Y011856D01*
X003421Y012633D01*
X003506Y012549D01*
X002728Y011771D01*
X002948Y011551D01*
X002985Y011530D01*
X003026Y011519D01*
X003068Y011519D01*
X003108Y011530D01*
X003145Y011551D01*
X003824Y012230D01*
X003506Y012549D01*
X003591Y012633D01*
X003909Y012315D01*
X004589Y012995D01*
X004610Y013031D01*
X004621Y013072D01*
X004621Y013114D01*
X004610Y013155D01*
X004589Y013191D01*
X004369Y013411D01*
X003591Y012633D01*
X003506Y012718D01*
X004284Y013496D01*
X004213Y013567D01*
X004251Y013592D01*
X004861Y012950D01*
X006152Y013149D01*
X006138Y013114D01*
X006132Y013072D01*
X006138Y013030D01*
X006197Y012887D01*
X006468Y012999D01*
X006479Y012974D01*
X006208Y012862D01*
X006267Y012718D01*
X006292Y012685D01*
X006326Y012659D01*
X006365Y012643D01*
X006407Y012638D01*
X006448Y012643D01*
X006591Y012703D01*
X006479Y012974D01*
X006505Y012985D01*
X006494Y013010D01*
X006543Y013030D01*
X006814Y013143D01*
X006825Y013117D01*
X006850Y013128D01*
X006840Y013153D01*
X007111Y013266D01*
X007052Y013409D01*
X007026Y013442D01*
X006993Y013468D01*
X006980Y013473D01*
X007061Y013500D01*
X007310Y012953D01*
X006798Y012740D01*
X006795Y012735D01*
X006790Y012737D01*
X006810Y012746D02*
X006695Y012746D01*
X006760Y012772D02*
X006775Y012784D01*
X006794Y012786D01*
X006937Y012846D01*
X006825Y013117D01*
X006776Y013097D01*
X006505Y012985D01*
X006617Y012713D01*
X006760Y012772D01*
X006604Y012746D02*
X006574Y012746D01*
X006554Y012864D02*
X006525Y012864D01*
X006505Y012983D02*
X006500Y012983D01*
X006475Y012983D02*
X006427Y012983D01*
X006543Y013030D02*
X006543Y013030D01*
X006714Y013101D02*
X006786Y013101D01*
X006776Y013097D02*
X006776Y013097D01*
X006831Y013101D02*
X006861Y013101D01*
X006850Y013128D02*
X006963Y012856D01*
X007106Y012915D01*
X007139Y012941D01*
X007165Y012975D01*
X007181Y013013D01*
X007186Y013055D01*
X007181Y013097D01*
X007122Y013240D01*
X006850Y013128D01*
X006880Y012983D02*
X006910Y012983D01*
X006929Y012864D02*
X006959Y012864D01*
X006981Y012864D02*
X007096Y012864D01*
X007168Y012983D02*
X007297Y012983D01*
X007243Y013101D02*
X007179Y013101D01*
X007189Y013220D02*
X007130Y013220D01*
X007072Y013220D02*
X007000Y013220D01*
X007081Y013338D02*
X007135Y013338D01*
X007081Y013457D02*
X007007Y013457D01*
X006524Y012627D02*
X004221Y012627D01*
X004103Y012509D02*
X006238Y012509D01*
X006256Y012746D02*
X004340Y012746D01*
X004458Y012864D02*
X006214Y012864D01*
X006157Y012983D02*
X005073Y012983D01*
X004830Y012983D02*
X004577Y012983D01*
X004621Y013101D02*
X004718Y013101D01*
X004605Y013220D02*
X004561Y013220D01*
X004493Y013338D02*
X004442Y013338D01*
X004380Y013457D02*
X004245Y013457D01*
X004226Y013575D02*
X004268Y013575D01*
X004296Y013338D02*
X004126Y013338D01*
X004177Y013220D02*
X004008Y013220D01*
X004059Y013101D02*
X003889Y013101D01*
X003940Y012983D02*
X003771Y012983D01*
X003822Y012864D02*
X003652Y012864D01*
X003703Y012746D02*
X003534Y012746D01*
X003585Y012627D02*
X003597Y012627D01*
X003546Y012509D02*
X003716Y012509D01*
X003665Y012390D02*
X003834Y012390D01*
X003783Y012272D02*
X005806Y012272D01*
X005647Y012153D02*
X003747Y012153D01*
X003629Y012035D02*
X005487Y012035D01*
X005328Y011916D02*
X003510Y011916D01*
X003392Y011798D02*
X005169Y011798D01*
X005010Y011679D02*
X003273Y011679D01*
X003155Y011561D02*
X004850Y011561D01*
X004691Y011442D02*
X002871Y011442D01*
X002871Y011491D02*
X002602Y011760D01*
X002451Y011760D01*
X002451Y011340D01*
X002871Y011340D01*
X002871Y011491D01*
X002939Y011561D02*
X002801Y011561D01*
X002820Y011679D02*
X002683Y011679D01*
X002755Y011798D02*
X002289Y011798D01*
X002371Y011679D02*
X002451Y011679D01*
X002451Y011561D02*
X002371Y011561D01*
X002371Y011442D02*
X002451Y011442D01*
X002451Y011324D02*
X004532Y011324D01*
X004373Y011205D02*
X002871Y011205D01*
X002848Y011087D02*
X004214Y011087D01*
X004054Y010968D02*
X002730Y010968D01*
X002611Y010850D02*
X003895Y010850D01*
X003760Y010731D02*
X002189Y010731D01*
X002211Y010850D02*
X001903Y010850D01*
X001917Y010731D02*
X002047Y010731D01*
X002068Y010781D02*
X001647Y009765D01*
X002063Y009593D01*
X002431Y010480D01*
X002436Y010522D01*
X002431Y010564D01*
X002415Y010603D01*
X002389Y010636D01*
X002355Y010662D01*
X002068Y010781D01*
X001998Y010613D02*
X001868Y010613D01*
X001819Y010494D02*
X001949Y010494D01*
X001900Y010376D02*
X001770Y010376D01*
X001721Y010257D02*
X001851Y010257D01*
X001802Y010139D02*
X001672Y010139D01*
X001623Y010020D02*
X001753Y010020D01*
X001704Y009902D02*
X001574Y009902D01*
X001603Y009783D02*
X001655Y009783D01*
X001606Y009665D02*
X001889Y009665D01*
X001862Y009546D02*
X003543Y009546D01*
X003494Y009428D02*
X001995Y009428D01*
X001945Y009309D02*
X003444Y009309D01*
X003395Y009191D02*
X001896Y009191D01*
X001847Y009072D02*
X003346Y009072D01*
X003296Y008954D02*
X001798Y008954D01*
X001749Y008835D02*
X003247Y008835D01*
X003197Y008717D02*
X001700Y008717D01*
X001651Y008598D02*
X003148Y008598D01*
X003099Y008480D02*
X000986Y008480D01*
X001003Y008598D02*
X001276Y008598D01*
X001213Y008717D02*
X001083Y008717D01*
X001132Y008835D02*
X001262Y008835D01*
X001311Y008954D02*
X001181Y008954D01*
X001230Y009072D02*
X001360Y009072D01*
X001409Y009191D02*
X001279Y009191D01*
X001328Y009309D02*
X001458Y009309D01*
X001507Y009428D02*
X001378Y009428D01*
X001427Y009546D02*
X001557Y009546D01*
X001576Y009665D02*
X001476Y009665D01*
X002093Y009665D02*
X003592Y009665D01*
X003642Y009783D02*
X002142Y009783D01*
X002191Y009902D02*
X003691Y009902D01*
X003716Y010020D02*
X002240Y010020D01*
X002289Y010139D02*
X003723Y010139D01*
X003731Y010257D02*
X002338Y010257D01*
X002387Y010376D02*
X003738Y010376D01*
X003745Y010494D02*
X002432Y010494D01*
X002407Y010613D02*
X003753Y010613D01*
X002451Y010850D02*
X002371Y010850D01*
X002371Y010968D02*
X002451Y010968D01*
X002451Y011087D02*
X002371Y011087D01*
X002371Y011205D02*
X002451Y011205D01*
X002371Y011324D02*
X001984Y011324D01*
X001951Y011205D02*
X001910Y011205D01*
X001974Y011087D02*
X001836Y011087D01*
X001762Y010968D02*
X002093Y010968D01*
X002388Y011916D02*
X002583Y011916D01*
X002704Y011916D02*
X002874Y011916D01*
X002823Y012035D02*
X002992Y012035D01*
X002941Y012153D02*
X003111Y012153D01*
X003060Y012272D02*
X003229Y012272D01*
X003178Y012390D02*
X003348Y012390D01*
X003297Y012509D02*
X003466Y012509D01*
X003428Y012627D02*
X003415Y012627D01*
X003984Y012390D02*
X006005Y012390D01*
X006136Y013101D02*
X005843Y013101D01*
X003049Y008361D02*
X000970Y008361D01*
X000953Y008243D02*
X003000Y008243D01*
X002961Y008124D02*
X000938Y008124D01*
X000938Y008006D02*
X002961Y008006D01*
X002961Y007887D02*
X000938Y007887D01*
X000938Y007769D02*
X003038Y007769D01*
X003326Y007650D02*
X000938Y007650D01*
X000938Y007531D02*
X003613Y007531D01*
X003811Y007413D02*
X000938Y007413D01*
X000938Y007294D02*
X001132Y007294D01*
X001132Y007295D02*
X001096Y007274D01*
X001066Y007244D01*
X001045Y007207D01*
X001034Y007167D01*
X001034Y006928D01*
X001343Y006928D01*
X001343Y007306D01*
X001173Y007306D01*
X001132Y007295D01*
X001037Y007176D02*
X000938Y007176D01*
X000953Y007057D02*
X001034Y007057D01*
X001034Y006939D02*
X000970Y006939D01*
X000986Y006820D02*
X001034Y006820D01*
X001034Y006702D02*
X001003Y006702D01*
X001020Y006583D02*
X001050Y006583D01*
X001343Y006583D02*
X001400Y006583D01*
X001400Y006465D02*
X001343Y006465D01*
X001343Y006346D02*
X001400Y006346D01*
X001400Y006221D02*
X001400Y005844D01*
X001511Y005844D01*
X001511Y005650D01*
X001231Y005650D01*
X001175Y005844D01*
X001343Y005844D01*
X001343Y006221D01*
X001400Y006221D01*
X001400Y006109D02*
X001343Y006109D01*
X001343Y005991D02*
X001400Y005991D01*
X001400Y005872D02*
X001343Y005872D01*
X001201Y005754D02*
X001511Y005754D01*
X001400Y006702D02*
X001343Y006702D01*
X001343Y006820D02*
X001400Y006820D01*
X001400Y006939D02*
X001343Y006939D01*
X001343Y007057D02*
X001400Y007057D01*
X001400Y007176D02*
X001343Y007176D01*
X001343Y007294D02*
X001400Y007294D01*
X001611Y007294D02*
X003061Y007294D01*
X003272Y007294D02*
X003329Y007294D01*
X003329Y007176D02*
X003272Y007176D01*
X003272Y007057D02*
X003329Y007057D01*
X003329Y006939D02*
X003272Y006939D01*
X003272Y006820D02*
X003329Y006820D01*
X003329Y006702D02*
X003272Y006702D01*
X003272Y006583D02*
X003329Y006583D01*
X003329Y006465D02*
X003272Y006465D01*
X003272Y006346D02*
X003329Y006346D01*
X003329Y006228D02*
X003811Y006228D01*
X003811Y006346D02*
X003638Y006346D01*
X003638Y006465D02*
X003811Y006465D01*
X003811Y006583D02*
X003622Y006583D01*
X003638Y006702D02*
X003811Y006702D01*
X003811Y006820D02*
X003638Y006820D01*
X003638Y006939D02*
X003811Y006939D01*
X003811Y007057D02*
X003638Y007057D01*
X003635Y007176D02*
X003811Y007176D01*
X003811Y007294D02*
X003540Y007294D01*
X003638Y006109D02*
X003811Y006109D01*
X003811Y005991D02*
X003638Y005991D01*
X003570Y005872D02*
X003811Y005872D01*
X003811Y005754D02*
X003161Y005754D01*
X003161Y005635D02*
X003623Y005635D01*
X003329Y005872D02*
X003272Y005872D01*
X003272Y005991D02*
X003329Y005991D01*
X003329Y006109D02*
X003272Y006109D01*
M02*
